<?xml version="1.0" encoding="UTF-8" standalone="no"?>
<!-- Created with Inkscape (http://www.inkscape.org/) -->

<svg
   width="210mm"
   height="297mm"
   viewBox="0 0 210 297"
   version="1.1"
   id="svg12363"
   inkscape:version="1.1 (c68e22c387, 2021-05-23)"
   sodipodi:docname="Engel.svg"
   xmlns:inkscape="http://www.inkscape.org/namespaces/inkscape"
   xmlns:sodipodi="http://sodipodi.sourceforge.net/DTD/sodipodi-0.dtd"
   xmlns="http://www.w3.org/2000/svg"
   xmlns:svg="http://www.w3.org/2000/svg">
  <sodipodi:namedview
     id="namedview12365"
     pagecolor="#ffffff"
     bordercolor="#666666"
     borderopacity="1.0"
     inkscape:pageshadow="2"
     inkscape:pageopacity="0.0"
     inkscape:pagecheckerboard="0"
     inkscape:document-units="mm"
     showgrid="false"
     inkscape:zoom="0.49071405"
     inkscape:cx="663.98129"
     inkscape:cy="532.84665"
     inkscape:window-width="1920"
     inkscape:window-height="1017"
     inkscape:window-x="-8"
     inkscape:window-y="-8"
     inkscape:window-maximized="1"
     inkscape:current-layer="layer1"
     inkscape:snap-global="false" />
  <defs
     id="defs12360" />
  <g
     inkscape:label="Ebene 1"
     inkscape:groupmode="layer"
     id="layer1">
    <path
       style="fill:none;fill-opacity:1;stroke:#000000;stroke-width:0.352778;stroke-opacity:1"
       d="m 111.27566,36.644752 c 1.43486,0.08662 2.21995,0.23342 2.62887,0.642338 0.27658,0.276577 -0.5972,0.324053 -3.12715,0.169922 -3.34671,-0.203891 -3.55678,-0.174488 -4.49029,0.628499 -0.83441,0.717737 -1.03434,1.260037 -1.35102,3.664619 -0.20443,1.552223 -0.44166,2.897 -0.52719,2.988395 -0.31198,0.33338 -0.81203,-0.901481 -0.81729,-2.018256 -0.003,-0.63059 -0.13308,-1.146528 -0.28912,-1.146528 -0.15604,0 -1.02041,0.467201 -1.92082,1.038224 -2.109331,1.337702 -2.796824,2.640864 -2.507356,4.752775 0.208852,1.523722 0.149673,1.674054 -1.155156,2.934582 -0.756409,0.730723 -1.891912,1.60075 -2.523346,1.933399 -0.631433,0.332648 -1.275411,0.949078 -1.43106,1.369843 -0.423676,1.145293 0.08993,3.76302 0.949244,4.83809 1.98387,2.481989 3.634704,5.123603 4.280393,6.849363 0.390532,1.043789 1.105321,2.433537 1.588411,3.088337 0.48309,0.65479 0.98051,1.75757 1.10537,2.4506 0.29244,1.62318 0.75026,2.49479 1.31044,2.49479 0.30323,0 0.39906,0.40142 0.29946,1.25449 -0.10028,0.85901 0.0412,1.44287 0.44889,1.85208 0.32744,0.32867 0.89914,1.11353 1.27044,1.74412 0.42485,0.72152 0.95274,1.14653 1.42409,1.14653 0.62933,0 0.71242,0.14569 0.5201,0.91194 -0.28484,1.13488 0.048,2.26306 0.66759,2.26306 0.53243,0 0.99817,0.96025 0.69985,1.44294 -0.1091,0.17652 0.43665,0.32095 1.21276,0.32095 1.48837,0 2.2287,0.57365 1.40975,1.09237 -0.26739,0.16937 -1.09717,0.31037 -1.84394,0.31334 -1.05774,0.004 -1.57622,-0.22846 -2.3464,-1.05293 -0.69334,-0.74223 -1.32017,-1.05834 -2.09866,-1.05834 -1.14647,0 -2.61538,-1.20526 -3.01908,-2.47721 -0.11079,-0.34907 -0.58882,-0.88849 -1.06228,-1.19872 -0.47347,-0.31022 -1.119155,-1.06355 -1.43486,-1.67407 -0.315708,-0.61051 -0.857461,-1.41426 -1.203893,-1.78611 -0.63265,-0.67907 -1.510538,-2.78588 -1.914175,-4.59375 -0.200731,-0.89906 -0.344992,-0.97014 -1.96892,-0.97014 -1.949567,0 -10.904167,1.21572 -13.185161,1.79008 -0.805762,0.20289 -2.73237,1.30226 -4.281354,2.44304 -8.820111,6.49573 -12.193118,8.36981 -19.303488,10.72525 -4.796117,1.5888 -10.7067,4.23606 -11.930285,5.34339 -1.167706,1.05676 -0.902687,2.76562 0.673325,4.34163 1.747734,1.74773 2.842334,2.02524 4.549565,1.15342 2.041002,-1.04226 5.232336,-3.52103 8.856224,-6.8788 3.538125,-3.2783 4.437412,-3.91351 5.025701,-3.54994 0.440986,0.27255 -7.179074,7.51233 -9.948871,9.45237 l -0.758037,0.53095 0.752469,1.21752 c 1.07643,1.7417 2.369191,2.19308 4.703342,1.64219 4.093305,-0.96606 9.269878,-6.01948 12.863741,-12.55772 1.190978,-2.16671 1.984054,-2.96328 2.468235,-2.4791 0.878833,0.87883 -5.964319,10.64043 -8.602059,12.27065 -1.19796,0.74038 -1.235686,0.82829 -1.074653,2.5042 0.199979,2.081226 0.898034,2.925866 2.156943,2.609906 1.642865,-0.41234 6.931226,-6.116586 10.445348,-11.266796 3.25072,-4.76416 3.774239,-5.41537 4.095379,-5.09423 0.665463,0.66547 -4.655336,8.70018 -8.032616,12.12972 -1.939956,1.96997 -2.427679,2.6703 -2.249847,3.230596 0.334377,1.05353 1.270727,1.26008 2.299399,0.50725 0.494675,-0.36203 3.096069,-3.583946 5.780877,-7.159826 4.203072,-5.59803 5.878252,-7.45161 5.878252,-6.50425 0,0.6411 -5.701746,8.82032 -8.18733,11.74481 -1.48631,1.748746 -1.157634,4.148596 0.683044,4.987266 2.098958,0.95634 5.988008,-2.61284 9.152806,-8.400016 2.090748,-3.82316 3.337048,-5.68372 4.070018,-6.07599 1.155347,-0.61832 1.113599,-0.1033 -0.165777,2.04514 -0.671894,1.1283 -1.89127,3.21173 -2.709718,4.62984 -0.818448,1.41811 -2.193033,3.44387 -3.054629,4.501666 -1.52872,1.87686 -1.553764,1.948 -1.037304,2.94672 1.167998,2.25865 3.243781,3.05519 4.986369,1.91341 1.296194,-0.8493 3.916355,-4.67536 4.959001,-7.241326 1.311836,-3.22845 3.657088,-7.36944 4.316193,-7.62107 0.313101,-0.11953 1.045521,-0.71607 1.627604,-1.32565 0.582082,-0.60958 1.931462,-1.54662 2.998612,-2.0823 1.75161,-0.87928 2.16324,-0.95009 4.23333,-0.72828 3.51984,0.37716 4.12282,0.33363 5.18684,-0.37444 0.81606,-0.54307 0.87922,-0.67865 0.36509,-0.78373 -1.04585,-0.21375 -0.29643,-0.77921 1.03271,-0.77921 1.51026,0 4.37784,-2.0119 3.58448,-2.51488 -0.25725,-0.1631 -0.83124,-0.29897 -1.27553,-0.30195 -0.96813,-0.006 -3.28725,-1.14145 -3.94038,-1.92842 -0.84342,-1.01626 -0.12145,-0.95957 1.44623,0.11358 1.93076,1.32169 3.434,1.6513 4.36715,0.95758 0.67299,-0.50031 0.67603,-0.55583 0.0827,-1.50947 -0.33881,-0.54453 -0.87883,-1.58537 -1.20004,-2.31297 -0.32121,-0.72761 -0.79807,-1.32292 -1.05968,-1.32292 -0.28485,0 -0.47565,-0.39305 -0.47565,-0.97984 0,-1.47289 -0.71447,-2.25005 -5.04171,-5.48405 -2.17775,-1.62756 -4.1289,-3.180563 -4.33589,-3.451122 -0.207,-0.270563 -0.79655,-1.484118 -1.31013,-2.696792 -0.89512,-2.113619 -0.90499,-2.204861 -0.23829,-2.204861 0.51026,0 0.69547,0.239533 0.69547,0.899463 0,2.070118 1.40063,3.510495 8.55294,8.795622 3.04642,2.25112 3.33729,2.56836 3.37929,3.68559 0.0259,0.68812 0.28081,1.35389 0.58325,1.52315 0.29551,0.16537 0.53729,0.59811 0.53729,0.96164 0,0.88784 1.67417,2.83176 2.4388,2.83176 0.33671,0 2.06334,0.80922 3.83696,1.79827 1.77361,0.98906 3.80151,1.92836 4.50643,2.08735 1.48146,0.33412 4.38369,-0.38535 5.11658,-1.26842 0.47937,-0.57761 3.09505,-1.99175 4.47415,-2.4189 1.27758,-0.39571 0.94224,0.48121 -0.39818,1.04128 -0.65557,0.27391 -1.28311,0.73561 -1.39454,1.02599 -0.11143,0.29038 -0.98988,0.92691 -1.95211,1.4145 -1.99802,1.01248 -3.09479,2.36883 -3.79391,4.69182 -0.63136,2.09783 -0.62111,5.78147 0.023,8.2542 0.44969,1.72645 9.26411,23.127246 10.66079,25.883626 0.29494,0.58208 0.75327,1.65539 1.0185,2.38512 0.64614,1.77771 2.37306,4.30322 4.33943,6.34613 1.24156,1.28988 1.86401,1.67569 2.7035,1.67569 1.63959,0 3.24146,-1.82372 3.69295,-4.20443 1.17848,-6.2141 -0.65574,-15.78951 -3.72925,-19.46826 -1.88732,-2.25897 -5.07606,-7.61754 -6.01082,-10.100966 -0.46893,-1.24583 -1.01866,-3.45907 -1.22162,-4.91833 -0.35852,-2.57767 -0.34225,-2.69366 0.57162,-4.0746 0.51736,-0.78178 2.09917,-2.66023 3.51514,-4.17433 3.03582,-3.24621 3.87004,-5.17276 3.35137,-7.73963 -0.17643,-0.87313 -0.3277,-1.71593 -0.33615,-1.87291 -0.008,-0.15697 -0.17413,-0.18729 -0.36815,-0.0674 -0.19403,0.11992 -0.35278,0.76429 -0.35278,1.43193 0,0.66765 -0.14805,1.2139 -0.32901,1.2139 -0.37244,0 -0.58735,-0.6125 -0.92837,-2.64583 -0.30196,-1.80046 -1.7724,-7.91963 -2.09812,-8.73125 -0.26157,-0.65177 -1.40225,-0.843075 -1.74267,-0.29227 -0.1105,0.1788 0.37094,1.56787 1.06988,3.08681 1.9427,4.22191 2.74161,7.17143 1.94246,7.17143 -0.17706,0 -0.75503,-1.15093 -1.28438,-2.55764 -0.52935,-1.4067 -1.17325,-2.95451 -1.43088,-3.43958 -0.25764,-0.48507 -0.70344,-1.47726 -0.99067,-2.20486 -0.61471,-1.55716 -1.61657,-1.79759 -1.61657,-0.38794 0,0.51424 0.38984,1.74455 0.8663,2.73403 1.33427,2.77084 1.94794,5.90218 1.39976,7.14248 l -0.44487,1.00657 -0.0286,-0.90396 c -0.0158,-0.49718 -0.48794,-2.24343 -1.04929,-3.88056 -1.57911,-4.6053 -1.32742,-4.27275 -3.03949,-4.01601 -1.8791,0.28179 -3.15919,-0.28847 -2.67566,-1.19196 0.61098,-1.14163 4.97484,-3.406636 6.71863,-3.487228 2.45207,-0.113323 3.0562,0.123229 3.55654,1.392588 0.24954,0.63306 0.82852,1.55998 1.28663,2.05983 0.89098,0.97215 2.73097,5.40545 3.13308,7.54888 0.28795,1.53489 0.84305,1.83537 2.28625,1.23757 0.72614,-0.30077 1.32168,-0.9851 1.8891,-2.17074 l 0.82867,-1.73149 -1.45447,-1.02119 c -2.8266,-1.98456 -5.71437,-4.85618 -5.30793,-5.27823 0.27675,-0.28738 1.18657,0.28097 3.35139,2.09357 5.44099,4.55573 6.73132,5.17878 8.36107,4.03726 1.05814,-0.74115 0.98951,-1.04442 -0.36247,-1.6018 -1.8605,-0.76702 -11.2007,-8.446787 -11.2007,-9.209517 0,-0.699862 1.09092,-0.09973 3.70417,2.037736 1.55222,1.269611 3.97724,3.246601 5.38894,4.393301 2.74724,2.23156 4.73583,3.03672 6.16143,2.49471 0.97365,-0.37018 2.82503,-2.41683 2.65303,-2.93284 -0.0623,-0.18692 -3.62812,-2.18691 -7.92402,-4.444424 -4.2959,-2.25751 -7.74483,-4.211182 -7.6643,-4.341499 0.29044,-0.469935 2.54868,0.322605 5.00222,1.755546 1.37666,0.804012 2.58561,1.461844 2.68656,1.461844 0.10094,0 2.07063,1.031875 4.37707,2.293056 2.30645,1.261177 4.56491,2.293057 5.01881,2.293057 0.45389,0 1.10933,0.25709 1.45654,0.5713 0.95748,0.8665 3.5465,0.36513 5.08361,-0.98447 1.24561,-1.09367 1.63087,-2.409054 0.70557,-2.409054 -0.28284,0 -2.94191,-1.086587 -5.90903,-2.414637 -2.96712,-1.328049 -6.10914,-2.613064 -6.98227,-2.855588 -2.0447,-0.56794 -5.66705,-2.612062 -4.89845,-2.764232 0.31329,-0.06203 1.50391,0.304913 2.64584,0.815414 1.14193,0.510504 3.03999,1.229977 4.21791,1.598834 1.17793,0.368854 3.98917,1.542073 6.24719,2.607155 6.26447,2.95487 9.6451,3.236436 11.66219,0.971324 1.57976,-1.77401 -0.0804,-2.852716 -6.11634,-3.974256 -2.23132,-0.414602 -5.1682,-1.149248 -6.52639,-1.632547 -1.3582,-0.483302 -4.16594,-1.122567 -6.23943,-1.420593 -3.65157,-0.524842 -4.02201,-0.512639 -11.79404,0.388461 -4.41323,0.511679 -8.09568,1.001945 -8.18321,1.08948 -0.0875,0.08754 0.33399,0.72082 0.93672,1.407298 0.62103,0.707308 1.34122,2.126417 1.66207,3.275044 0.3114,1.114792 0.63758,2.285033 0.72484,2.600529 0.0988,0.357216 -0.10354,0.642197 -0.53635,0.755379 -0.90883,0.237666 -1.08866,0.01774 -1.08866,-1.331458 0,-1.885766 -1.90271,-5.101523 -4.24884,-7.18095 -1.951,-1.729204 -2.18598,-1.845222 -2.73512,-1.350402 -0.33042,0.297731 -1.04424,0.652018 -1.58626,0.787305 -1.30974,0.326902 -1.06794,0.885479 0.76982,1.778332 0.83163,0.404036 1.6545,0.959661 1.82861,1.234722 0.42461,0.670835 0.4142,2.440386 -0.0144,2.440386 -0.18794,0 -0.24986,-0.239349 -0.1376,-0.53189 0.22431,-0.584553 -0.74133,-2.290332 -1.29656,-2.290332 -0.19167,0 -1.06769,-0.338067 -1.94672,-0.751255 -1.74988,-0.82254 -2.62742,-2.103518 -2.62742,-3.835339 0,-0.914736 0.20033,-1.177555 1.22339,-1.605019 1.341,-0.560303 3.5327,-0.719829 2.7077,-0.197083 -0.33366,0.211419 -0.36037,0.376371 -0.0882,0.544586 0.21474,0.132719 0.39044,0.623828 0.39044,1.091357 0,0.610666 0.14902,0.792868 0.52916,0.646995 0.29104,-0.111686 0.52917,-0.564438 0.52917,-1.006119 0,-0.307215 -0.31465,-1.071259 -0.10882,-1.255611 m 2.9571,0.0223 c 0.69343,-0.0028 2.91593,-0.255375 4.93889,-0.561618 5.92869,-0.897506 12.5306,-0.104232 17.7347,2.130971 1.59817,0.686428 3.18348,1.248054 3.5229,1.248054 0.33942,0 1.04726,0.316297 1.57298,0.702882 0.62924,0.462699 2.87334,1.072613 6.56738,1.784911 7.31929,1.411333 9.28555,2.433528 8.96271,4.659428 -0.18367,1.266406 -2.64788,2.716883 -4.83234,2.844398 -1.78971,0.104472 -1.93825,0.185903 -2.56404,1.405705 -0.99256,1.93469 -2.05033,2.45704 -5.35551,2.64465 -2.82065,0.1601 -2.90478,0.19151 -4.03751,1.50737 -0.91571,1.06374 -1.49397,1.39441 -2.77424,1.5864 -1.05086,0.15758 -2.03915,0.61283 -2.82141,1.29967 -1.2466,1.09453 -3.31252,1.46411 -4.90678,0.8778 -0.6217,-0.22863 -0.82733,-0.0194 -1.46568,1.49155 -0.77576,1.83617 -1.37939,2.26909 -3.68317,2.64154 -1.14326,0.18483 -1.38784,0.42319 -2.20486,2.14877 -0.50543,1.06748 -0.9183,2.0556 -0.91749,2.19582 7.1e-4,0.14022 0.38698,1.01477 0.85816,1.94344 0.47117,0.92868 0.94753,2.59555 1.05855,3.70417 0.58558,5.84693 1.3393,12.494986 1.63166,14.391776 0.42593,2.76336 0.42241,5.85759 -0.008,6.98952 -0.25007,0.65772 -0.16603,1.39249 0.32127,2.80885 0.58683,1.70564 1.14277,4.7009 1.54391,8.31823 0.19792,1.78471 -0.42615,7.35293 -0.96996,8.65446 -0.57049,1.36537 -3.46633,3.00977 -5.3003,3.00977 -1.43259,0 -3.01932,-1.24002 -4.94698,-3.86602 l -1.24216,-1.69216 -1.50093,0.47402 c -3.1823,1.00502 -9.74679,2.6264 -12.61342,3.11544 -3.12086,0.5324 -10.15318,1.95252 -14.11111,2.84962 -2.24256,0.5083 -7.76985,1.54071 -12.34722,2.30626 -1.26118,0.21093 -3.826121,0.69136 -5.699861,1.06761 -1.873744,0.37627 -3.500931,0.68412 -3.615972,0.68412 -6.400087,1.51225 -6.735406,-9.63676 -5.141895,-20.45496 l 0.83179,-1.85516 c 0.457486,-1.02033 1.634596,-3.52203 2.615805,-5.55932 1.69496,-3.51926 2.584983,-5.93157 3.0587,-8.29028 0.191921,-0.95562 0.0054,-0.82979 -1.922343,1.29645 -1.46927,1.62061 -2.627633,2.54297 -3.715289,2.95835 -1.483861,0.56669 -1.675257,0.56733 -3.133383,0.0105 -0.951029,-0.36321 -1.864526,-1.04775 -2.356722,-1.76606 l -0.803733,-1.17298 -1.43564,0.65206 c -2.249473,1.02169 -3.031007,0.8694 -4.801771,-0.9357 -1.461329,-1.48965 -1.667309,-1.58729 -2.90728,-1.37814 -0.93774,0.15818 -1.5896,0.058 -2.192447,-0.33703 -1.10906,-0.72668 -1.50415,-0.70884 -3.175808,0.14342 -0.76115,0.38805 -1.675056,0.70555 -2.030907,0.70555 -1.029793,0 -2.378815,-1.59138 -2.378815,-2.806186 0,-1.2484 -0.427384,-1.34041 -2.150661,-0.46303 -0.81208,0.41345 -2.041376,0.61328 -3.797899,0.61736 -2.577314,0.006 -2.60615,-0.004 -3.771927,-1.35203 l -1.174758,-1.35805 -1.827834,0.60711 c -1.505764,0.50013 -2.066007,0.53575 -3.179534,0.20213 -1.61386,-0.48352 -3.330083,-1.85621 -4.042002,-3.23291 -1.475794,-2.85388 0.04551,-4.51 7.95017,-8.65473 8.835306,-4.63271 13.651304,-8.02488 17.537561,-12.35266 1.316912,-1.46652 3.92316,-3.89423 5.791665,-5.39489 3.099481,-2.489301 3.639542,-2.785525 6.161021,-3.379324 l 2.763738,-0.65085 6.715369,0.949349 c 3.693452,0.522143 6.834431,0.945579 6.979951,0.940972 0.896141,-0.02836 -0.37586,-2.850607 -2.490565,-5.525908 -1.99578,-2.524855 -2.536518,-3.739804 -2.536518,-5.69916 0,-1.86376 0.347532,-2.360027 2.369961,-3.384264 2.167587,-1.097753 2.921706,-2.269956 2.921706,-4.541515 0,-1.894503 0.102083,-2.150706 1.431667,-3.593134 0.787418,-0.854247 2.14011,-1.842888 3.00598,-2.196979 1.31911,-0.539439 1.6325,-0.858215 1.93325,-1.966451 0.4272,-1.574233 2.00522,-2.521689 4.7416,-2.846898 0.62262,-0.074 1.32091,-0.0836 2.00179,-0.0425 -0.36794,0.122647 0.23364,-0.764047 0.40463,-1.817775 0.27925,-1.720809 1.16519,-2.921244 2.91845,-3.954471 1.29338,-0.762214 1.6269,-0.798744 5.43488,-0.595276 2.80714,0.14999 4.49167,0.41632 5.46806,0.86452 0.77611,0.356262 2.17724,0.725058 3.11362,0.819548 2.71124,0.273588 4.4711,2.552796 4.4711,5.790558 0,0.798307 0.33765,1.317896 1.42343,2.190455 2.11944,1.703227 3.16268,3.559272 3.16268,5.626758 0,1.179302 0.18572,1.881386 0.58508,2.211871 1.25178,1.035895 2.60381,4.930061 1.89094,5.568222 0.47114,-0.194999 1.13007,0.04122 2.48897,0.03603 z m -2.92625,-0.02308 c -0.14552,0.08864 -0.76231,-1.46717 -1.57367,-3.1946 l -3e-5,10e-7 c -1.56137,-3.324193 -2.21556,-3.93064 -3.24001,-3.003525 -0.84855,0.76793 -1.44174,0.704445 -2.64989,-0.283598 -1.00618,-0.822865 -1.02794,-1.766561 -0.0319,-1.384355 0.32291,0.123911 0.51787,-0.0147 0.51787,-0.368185 0,-0.74715 0.6508,-0.715264 2.51912,0.123424 0.8458,0.379684 1.58686,0.550084 1.64679,0.378667 0.16762,-0.479455 -1.62083,-3.174548 -3.33301,-5.022638 -0.84615,-0.913319 -1.53845,-1.928896 -1.53845,-2.256835 0,-0.327941 -0.3445,-1.541071 -0.76555,-2.695845 -0.8395,-2.302395 -1.94364,-3.208328 -2.92134,-2.396909 -0.43815,0.363631 -0.86298,0.257535 -2.3917,-0.597292 -2.32727,-1.301362 -3.20548,-1.524883 -4.51531,-1.14923 -0.60842,0.174491 -1.12187,0.162476 -1.24022,-0.02902 -0.32784,-0.530447 -3.65973,-0.373355 -4.93705,0.232771 -1.25095,0.593617 -2.21715,1.80388 -2.60859,3.26752 -0.13083,0.489195 -0.45189,0.960784 -0.71346,1.047974 M 95.825073,136.98171 c 1.26118,-0.28752 4.11868,-0.82285 6.349997,-1.18961 6.95847,-1.14378 13.29167,-2.39721 21.51945,-4.259 2.42534,-0.54881 5.11162,-1.09728 5.96949,-1.21884 1.82799,-0.259 11.36856,-2.96451 11.76222,-3.33552 0.14807,-0.13955 0.10028,-0.73834 -0.10619,-1.33063 l -0.37542,-1.0769 -4.00179,0.1766 c -4.24443,0.1873 -6.3836,-0.0642 -5.4688,-0.64293 0.28092,-0.17772 2.38677,-0.32557 4.67968,-0.32854 4.15813,-0.005 4.16829,-0.007 3.92909,-0.79915 -0.38027,-1.25867 -0.55021,-1.30674 -3.17898,-0.89916 -2.43758,0.37794 -5.09541,0.17631 -5.09541,-0.38654 0,-0.15597 1.53189,-0.38421 3.4042,-0.5072 1.87231,-0.12298 3.48833,-0.30774 3.59116,-0.41057 0.38026,-0.38026 -1.22756,-3.53055 -1.73278,-3.39514 -0.9705,0.26012 -10.05488,0.0101 -12.31814,-0.33902 -1.26118,-0.19454 -4.27743,-0.84484 -6.70278,-1.44511 -2.47364,-0.61222 -5.24472,-1.07477 -6.31156,-1.05353 -2.89688,0.0577 -6.29955,1.81887 -12.032882,6.22814 -1.492123,1.14753 -2.822222,1.59583 -2.822222,0.95121 0,-0.90907 6.502774,-5.59168 9.698714,-6.98398 1.5307,-0.66685 2.29573,-1.19958 2.29573,-1.59865 0,-0.32919 0.89334,-2.79418 1.98519,-5.47775 4.09112,-10.055206 4.09791,-10.075496 4.10944,-12.287556 0.0127,-2.43269 -0.60426,-4.10985 -2.16614,-5.88873 -1.00316,-1.14254 -1.31503,-1.27262 -3.58814,-1.49661 -4.31243,-0.42494 -7.64121,1.24513 -10.359129,5.19722 -1.045002,1.51952 -1.469771,2.74591 -2.468499,7.127006 -1.329686,5.83292 -1.892935,7.43848 -4.269666,12.17083 -0.885236,1.76261 -1.915012,3.97978 -2.288388,4.92705 l -0.678868,1.7223 c -0.886643,3.11397 -0.884438,5.48763 -0.884438,5.48763 0.145989,12.04289 1.724206,13.09064 7.555861,12.36268 z M 136.36181,116.0375 c 0.40312,-0.2552 -0.17551,-2.00048 -3.07751,-9.28248 -1.96568,-4.93251 -3.7572,-9.822576 -3.98115,-10.866826 -0.6292,-2.93385 -0.22629,-7.43569 0.85138,-9.51285 l 0.89062,-1.71664 -1.7524,-0.37583 c -0.96382,-0.2067 -2.02277,-0.37582 -2.35321,-0.37582 -0.33045,0 -1.94982,-0.79587 -3.59861,-1.76861 l -2.9978,-1.76861 -0.38332,1.323 c -0.28723,0.9914 -1.03882,1.87133 -2.99861,3.51067 -1.43841,1.20321 -2.80436,2.19748 -3.03545,2.20949 -0.98504,0.0512 -0.74206,0.85441 0.92441,3.05578 0.9749,1.2878 1.86689,2.8444 1.98221,3.4591 0.29843,1.59079 -0.63589,5.24323 -2.32263,9.079596 -0.79824,1.81553 -1.85874,4.41222 -2.35668,5.77041 -0.49793,1.3582 -1.19573,2.88424 -1.55068,3.39121 -0.79028,1.12878 -0.5851,1.37129 1.16022,1.37129 1.25359,0 3.69694,0.49362 10.52081,2.12549 2.88484,0.68988 13.14776,0.9608 14.0784,0.37163 z m 15.39992,-10.0435 c -0.13694,-1.37928 -0.39235,-3.85716 -0.56759,-5.50639 -0.17524,-1.649236 -0.47763,-4.977646 -0.67197,-7.396476 -0.3449,-4.29258 -1.20673,-7.77297 -1.92479,-7.77297 -0.575,0 -4.08631,3.92926 -4.86729,5.44663 -1.31105,2.54725 -0.19841,6.13284 4.11176,13.250586 3.45763,5.70989 4.33427,6.15238 3.91988,1.97862 z M 60.784997,83.447084 c 3.017827,-1.18335 9.120322,-4.8615 13.187751,-7.94863 1.619578,-1.22924 3.695915,-2.61566 4.614082,-3.08093 1.914162,-0.96998 5.937741,-1.74216 11.874941,-2.27896 2.270718,-0.20531 4.492639,-0.4505 4.937601,-0.54489 0.977911,-0.20744 1.625766,-1.60576 0.930999,-2.00945 -0.794594,-0.46169 -7.897823,-1.3947 -11.794187,-1.549163 -3.549452,-0.140709 -3.77347,-0.105756 -5.3634,0.836883 -2.024874,1.2005 -7.458273,5.84191 -8.420255,7.1929 -1.023747,1.43771 -6.756266,6.15268 -10.117039,8.32121 -1.600729,1.03287 -2.910417,1.96961 -2.910417,2.08165 0,0.11203 0.120908,0.15079 0.268686,0.0861 0.147779,-0.0647 1.403834,-0.56271 2.791238,-1.10673 z m 44.917853,-2.02746 c 0,-0.7614 -0.346,-1.40651 -1.18255,-2.20486 -1.40593,-1.34172 -2.69709,-3.41937 -2.70033,-4.34518 -0.001,-0.36516 -0.31773,-1.14017 -0.70323,-1.72225 -0.3855,-0.58209 -0.70195,-1.34247 -0.70323,-1.68975 -0.004,-0.97275 -1.401168,-3.48842 -1.85412,-3.33743 -1.111377,0.37046 -0.789097,5.57423 0.410093,6.62172 0.337623,0.29491 0.556006,0.70976 0.485296,0.9219 -0.07071,0.21213 0.418729,0.86622 1.087641,1.45354 0.69498,0.6102 1.08392,1.20014 0.90753,1.37653 -0.17639,0.17639 0.1392,0.60875 0.73638,1.00886 0.57477,0.3851 1.0455,0.92581 1.04606,1.20157 0.001,0.7386 1.07098,1.79167 1.81958,1.79167 0.49043,0 0.65088,-0.26533 0.65088,-1.07632 z m 33.88986,-11.63609 c 0.77701,-0.41585 0.93011,-1.75148 0.20077,-1.75148 -0.59013,0 -2.34063,1.33832 -2.34063,1.78949 0,0.43876 1.29189,0.41581 2.13986,-0.038 z M 150.50563,56.03761 c 3.20146,-0.380894 7.29864,-0.695462 9.10485,-0.699043 2.06879,-0.0041 3.20439,-0.13534 3.06885,-0.354655 -0.81897,-1.325111 -10.59333,-2.298633 -15.3487,-1.528723 -1.45521,0.235602 -3.63802,0.436781 -4.8507,0.447061 -1.21267,0.01027 -2.20486,0.165262 -2.20486,0.344403 0,0.179144 0.41099,0.814144 0.91331,1.411111 1.1095,1.318577 1.34604,1.328219 9.31725,0.379846 z m -11.43684,22.193904 c -0.74413,-3.65891 -0.56863,-4.90779 0.68967,-4.90779 0.3595,0 0.37126,0.22272 0.0558,1.05833 -0.30053,0.7962 -0.29619,1.33199 0.0176,2.16316 0.33006,0.87444 0.3195,1.29095 -0.0506,1.99737 l -0.46765,0.89255 -0.24479,-1.20362 z m -32.65076,-3.83916 c -0.53846,-0.57642 -1.16495,-1.80673 -1.39221,-2.73403 -0.22727,-0.92729 -0.4961,-1.9638 -0.59742,-2.30335 -0.13418,-0.44972 0.0159,-0.61736 0.55268,-0.61736 0.76664,0 1.00031,0.40441 1.82157,3.15268 0.25725,0.86085 0.84352,2.01179 1.30282,2.55764 l 0.8351,0.99245 h -0.77177 c -0.42447,0 -1.21231,-0.47161 -1.75077,-1.04803 z m 10.68977,-3.30298 c -0.12506,-3.31348 -1.66394,-5.016732 -7.19736,-7.966145 -3.26422,-1.739886 -4.0045,-2.504609 -3.95955,-4.090292 0.0401,-1.416368 1.0845,-3.673835 1.9399,-4.193261 1.00627,-0.611047 1.04855,-0.04017 0.11762,1.588364 -1.71111,2.993351 -1.02398,4.373859 3.29556,6.621131 1.53829,0.800308 2.89172,1.455106 3.00761,1.455106 0.56209,0 0.085,-1.754117 -0.85404,-3.139892 -0.57855,-0.853817 -1.05191,-1.994418 -1.05191,-2.534673 0,-1.397473 0.59964,-2.792102 1.2005,-2.792102 0.40608,0 0.47462,0.384306 0.33029,1.852083 -0.16034,1.630649 -0.0563,2.041885 0.87017,3.439584 0.57876,0.873125 1.16857,2.301875 1.3107,3.175 0.14213,0.873125 0.63519,2.036297 1.0957,2.584827 1.19616,1.42479 1.34162,2.42009 0.60165,4.11659 l -0.64651,1.48221 z m 21.05061,-4.29204 c 0.24154,-0.29104 0.69754,-0.52412 1.01333,-0.51795 0.48236,0.0094 0.46467,0.09404 -0.11062,0.52917 -0.89131,0.67415 -1.4656,0.66701 -0.90271,-0.0112 z m -4.23334,-2.293057 c -0.8172,-0.817199 -0.93143,-2.548365 -0.20779,-3.148934 0.59957,-0.4976 0.771,-0.261676 1.10551,1.521453 0.16868,0.899146 0.48094,1.424524 0.91397,1.537766 0.95838,0.25062 0.80484,0.79527 -0.22419,0.79527 -0.48507,0 -1.19944,-0.3175 -1.5875,-0.705555 z m -10.58333,-0.621492 c 0,-0.155187 0.51594,-0.487084 1.14653,-0.737546 1.14616,-0.455245 1.14625,-0.455499 0.30097,-0.790695 -0.64214,-0.254638 -1.00282,-0.192976 -1.4993,0.256336 -0.61242,0.554231 -0.65376,0.553257 -0.65376,-0.01538 0,-0.779614 0.59455,-1.92732 1.54339,-2.979331 1.80806,-2.004649 4.25789,-1.684274 4.54809,0.594769 0.2569,2.017508 -0.84189,2.947949 -4.41578,3.739226 -0.53358,0.118138 -0.97014,0.08782 -0.97014,-0.06736 z m 13.48235,-0.138568 c 0.0869,-0.261063 0.441,-0.529512 0.78682,-0.596547 0.40217,-0.07796 0.57179,0.04917 0.4707,0.352778 -0.0869,0.261062 -0.441,0.529512 -0.78681,0.596547 -0.40218,0.07796 -0.5718,-0.04917 -0.47071,-0.352778 z m -36.2996,-1.775964 c -1.118222,-0.540615 -1.639155,-2.130958 -1.636248,-4.99526 0.0032,-3.148358 0.988544,-5.996326 2.131608,-6.160995 0.70945,-0.102204 0.74083,-0.0242 0.42583,1.058333 -0.69133,2.375821 -0.81014,7.070891 -0.21482,8.488807 0.30549,0.727604 0.73165,1.322917 0.94703,1.322917 0.21538,0 0.29349,0.15875 0.17357,0.352777 -0.26996,0.436806 -0.82781,0.416476 -1.82697,-0.06658 z m 20.3478,-3.057691 c 0,-0.662535 2.54615,-3.584314 3.28513,-3.769791 0.43363,-0.108828 1.18155,-0.05107 1.66206,0.128359 0.86137,0.321652 0.85423,0.334391 -0.5083,0.906797 -0.76007,0.31931 -1.91864,1.133189 -2.57462,1.808621 -1.15833,1.192703 -1.86427,1.54335 -1.86427,0.926014 z m -5.43945,-3.490313 c -0.14596,-0.145521 -0.76773,-0.297085 -1.38171,-0.336811 -2.98321,-0.193012 -3.95612,-0.547314 -5.44124,-1.981517 -1.67731,-1.619811 -2.90704,-4.401365 -2.90704,-6.575477 0,-2.520429 3.02842,-4.940889 6.17361,-4.934247 1.64334,0.0035 1.10815,0.460901 -0.97768,0.835634 -0.73175,0.131463 -1.88269,0.72389 -2.55764,1.316502 -1.04129,0.914265 -1.22718,1.305694 -1.22718,2.58408 0,0.828631 0.2317,2.163305 0.51489,2.965942 0.68395,1.938517 2.67746,4.816545 2.9881,4.313914 0.16675,-0.2698 0.80288,-0.152495 2.06527,0.380852 1.00337,0.423909 1.91662,0.678424 2.02946,0.565591 0.11283,-0.112836 -0.0602,-1.117808 -0.38444,-2.23327 -0.80704,-2.776104 -0.54888,-5.211016 0.85477,-8.062238 1.02562,-2.083345 2.71625,-4.013222 3.14238,-3.587089 0.0916,0.09163 -0.39518,1.012987 -1.08182,2.04745 -1.89537,2.85549 -2.65911,6.480616 -1.65384,7.84999 0.14244,0.194027 0.37027,1.42434 0.5063,2.734027 0.22978,2.212489 0.0406,2.817312 -0.66219,2.116667 z m 16.72834,-3.430386 c 0,-0.665163 2.17722,-1.949475 3.30484,-1.949475 1.44943,0 1.0869,0.447103 -1.19983,1.47973 -1.54728,0.698712 -2.10501,0.823172 -2.10501,0.469745 z M 109.79917,50.66908 c -0.61651,-1.422237 -0.75303,-3.295257 -0.26228,-3.598551 0.36323,-0.224491 1.26639,3.746079 1.00873,4.434691 -0.10573,0.282564 -0.40855,-0.05664 -0.74645,-0.83614 z m 18.276,-4.304777 c -0.59807,-0.260408 -1.93714,-1.087632 -2.97572,-1.838275 -1.03857,-0.750644 -2.77173,-1.875938 -3.85148,-2.500654 -1.78689,-1.03385 -1.87254,-1.136806 -0.95384,-1.146527 1.11934,-0.01185 5.8796,2.755867 8.16289,4.746065 1.49688,1.304739 1.39034,1.511026 -0.38185,0.739391 z m -21.66676,-4.406334 c 0,-0.48046 2.90839,-1.795359 3.97111,-1.795359 1.5469,0 1.42244,0.626602 -0.17725,0.892398 -0.82545,0.137151 -1.92949,0.468719 -2.45343,0.736818 -1.11877,0.572469 -1.34043,0.599944 -1.34043,0.166143 z m 18.71428,-1.365981 c -3.68715,-1.239994 -4.58019,-1.657028 -4.00445,-1.870009 1.21162,-0.448206 8.78278,2.11613 9.45389,3.202011 0.3408,0.551423 -0.35408,0.381573 -5.44944,-1.332002 z m -18.71428,-0.209793 c 0,-0.593829 0.60852,-1.107607 1.71384,-1.447012 1.13828,-0.349524 4.41073,0.09784 5.21407,0.712795 0.57842,0.442782 0.29809,0.476978 -2.34879,0.28652 -2.52469,-0.181666 -3.08195,-0.124273 -3.48278,0.358699 -0.58298,0.702448 -1.09634,0.744122 -1.09634,0.089 z m 14.55191,-3.482779 c 0.21219,-0.637252 1.06484,-0.722324 4.43009,-0.442 3.91469,0.326092 3.11818,0.870347 -1.28432,0.87757 -2.47903,0.0041 -3.25631,-0.103557 -3.14577,-0.43557 z m -3.26303,-1.613707 c 0,-0.596126 1.15092,-0.842754 4.58612,-0.982755 3.05966,-0.124696 3.25926,-0.09446 2.29305,0.347313 -1.31376,0.600684 -6.87917,1.114772 -6.87917,0.635442 z"
       id="path12454"
       sodipodi:nodetypes="cssssscsssssssssssssssssssscssssssssssssssssscsssssssssssssssssssssssssssssssscssssssssssssscssssssssssssssssssssssscsssssssssssscsccssssssssscssssssssssscssssssssssssssssssssssssssssssssssssssssccsssssssssssssssscscssssssscsssssccssscscscssscsssssccssssssscsssssssssscssssssssscccsssssssssssssssssccssssscssccsssssssssssssssssssscccsssscssscsssssssssssssssssssssssssssssssssscscsssssscsssssssssssssssssccsccssssssscsssscsssssssssssscsssssssssssssssssssssssssssssssssssssssssssssscssssssscsssssssssssssssssssssssssssssssssssssscsssss" />
    <path
       id="path13511"
       style="opacity:0.98;fill:#ffffff;stroke:#000000;stroke-width:0.0252018;stroke-linecap:square"
       transform="rotate(-28.33079)"
       d="m 83.419506,113.2312 a 0.49644876,0.34570649 0 0 1 -0.496448,0.34571 0.49644876,0.34570649 0 0 1 -0.496449,-0.34571 0.49644876,0.34570649 0 0 1 0.496449,-0.34571 0.49644876,0.34570649 0 0 1 0.496448,0.34571 z" />
    <path
       id="path13511-8"
       style="opacity:0.98;fill:#ffffff;stroke:#000000;stroke-width:0.029063;stroke-linecap:square"
       transform="rotate(-29.124202)"
       d="m 92.328108,114.26026 a 0.56619126,0.40312207 0 0 1 -0.566191,0.40312 0.56619126,0.40312207 0 0 1 -0.566191,-0.40312 0.56619126,0.40312207 0 0 1 0.566191,-0.40312 0.56619126,0.40312207 0 0 1 0.566191,0.40312 z" />
  </g>
</svg>
