<?xml version="1.0" encoding="UTF-8" standalone="no"?>
<!-- Created with Inkscape (http://www.inkscape.org/) -->

<svg
   width="210mm"
   height="297mm"
   viewBox="0 0 210 297"
   version="1.1"
   id="svg20685"
   inkscape:version="1.1 (c68e22c387, 2021-05-23)"
   sodipodi:docname="santa.svg"
   xmlns:inkscape="http://www.inkscape.org/namespaces/inkscape"
   xmlns:sodipodi="http://sodipodi.sourceforge.net/DTD/sodipodi-0.dtd"
   xmlns="http://www.w3.org/2000/svg"
   xmlns:svg="http://www.w3.org/2000/svg">
  <sodipodi:namedview
     id="namedview20687"
     pagecolor="#ffffff"
     bordercolor="#666666"
     borderopacity="1.0"
     inkscape:pageshadow="2"
     inkscape:pageopacity="0.0"
     inkscape:pagecheckerboard="0"
     inkscape:document-units="mm"
     showgrid="false"
     inkscape:zoom="1.9628562"
     inkscape:cx="450.36412"
     inkscape:cy="347.19813"
     inkscape:window-width="1920"
     inkscape:window-height="1017"
     inkscape:window-x="-8"
     inkscape:window-y="-8"
     inkscape:window-maximized="1"
     inkscape:current-layer="layer1" />
  <defs
     id="defs20682" />
  <g
     inkscape:label="Ebene 1"
     inkscape:groupmode="layer"
     id="layer1">
    <path
       style="fill:none;stroke:#000000;stroke-width:0.127;stroke-opacity:1"
       d="m 73.10082,142.4937 c 0.99199,-0.49956 2.59125,-0.94578 3.38966,-0.94578 0.48453,0 0.54871,-0.0303 0.46996,-0.22225 -0.18109,-0.44123 -0.33939,-2.53289 -0.27695,-3.65934 0.0717,-1.29309 0.28162,-1.92238 0.76933,-2.30601 l 0.33213,-0.26125 -0.32981,-0.74432 c -1.07139,-2.41804 -1.70067,-5.50339 -1.70067,-8.3385 v -0.99173 l -0.77185,-0.71461 c -2.21967,-2.05501 -2.98122,-4.40748 -2.10621,-6.50618 0.18819,-0.45138 0.4984,-0.98635 0.68936,-1.18882 0.33815,-0.35853 0.34062,-0.37191 0.0948,-0.51281 -0.1388,-0.0796 -0.47804,-0.36289 -0.75386,-0.6296 -0.47257,-0.45697 -0.53502,-0.48031 -1.08333,-0.40489 -0.76705,0.10549 -2.25161,-0.20977 -3.06024,-0.64988 -1.68254,-0.91575 -2.78518,-2.99677 -2.7843,-5.25481 7.6e-4,-1.89619 0.87786,-4.47743 2.15778,-6.35 0.36609,-0.53559 0.49618,-0.87192 0.55781,-1.44207 0.20303,-1.878347 1.84384,-4.872717 3.69452,-6.742297 1.04111,-1.05173 2.66805,-2.25952 3.37619,-2.50639 l 0.39749,-0.13856 -0.0827,-1.03059 c -0.16439,-2.04989 0.41123,-5.161393 1.36769,-7.393013 0.46889,-1.09404 1.4537,-3.06468 1.83433,-3.67058 0.23569,-0.37517 0.23532,-0.38973 -0.0242,-0.9525 -0.2238,-0.48527 -0.26366,-0.82061 -0.2642,-2.2225 -6.3e-4,-1.59502 0.0139,-1.68471 0.42821,-2.645404 0.23585,-0.546923 0.50731,-1.024526 0.60325,-1.061338 0.29516,-0.113264 0.19495,-0.298139 -0.266,-0.490737 -0.77727,-0.324762 -1.98412,-0.157523 -2.82119,0.390943 l -0.28127,0.184292 0.3335,0.509373 c 0.18342,0.280156 0.40638,0.509373 0.49546,0.509373 0.35754,0 0.80011,0.307143 0.94436,0.655382 0.0953,0.229966 0.12227,0.626616 0.0719,1.055396 -0.0444,0.37783 -0.03,0.71834 0.0321,0.75669 0.062,0.0383 0.15015,0.26876 0.19579,0.51203 0.10194,0.54336 -0.29644,1.54933 -0.79515,2.00789 -0.18619,0.17121 -0.42975,0.48 -0.54125,0.68621 -0.26653,0.49294 -1.03591,0.84889 -1.79736,0.83154 -0.33188,-0.008 -0.60342,0.041 -0.60342,0.10793 0,0.23043 -0.82644,0.62498 -1.3101,0.62546 -0.51754,5e-4 -0.88482,-0.14565 -1.2934,-0.51469 -0.1397,-0.12618 -0.56698,-0.33335 -0.94951,-0.46038 -0.51196,-0.17001 -0.77171,-0.34484 -0.98425,-0.66249 -0.34688,-0.51842 -0.38545,-1.39756 -0.0837,-1.90835 0.1887,-0.31943 0.1887,-0.37864 0,-0.74354 -0.11276,-0.21805 -0.20502,-0.53099 -0.20502,-0.69541 0,-0.42295 0.66545,-1.42028 1.13125,-1.695427 0.27943,-0.165063 0.39275,-0.32765 0.39275,-0.563485 0,-0.480088 0.51107,-0.900989 1.18645,-0.977113 0.56548,-0.06374 0.56752,-0.06578 0.65212,-0.65204 0.22249,-1.54188 0.71679,-2.686415 2.08334,-4.823904 1.61428,-2.52496 3.00841,-4.015843 4.75477,-5.084733 2.83963,-1.738043 6.11389,-2.839257 9.50668,-3.197321 1.69374,-0.178753 3.81144,-0.0283 5.69264,0.404429 1.38228,0.317966 4.0963,1.646187 5.16786,2.529116 1.81355,1.494291 4.27368,5.220957 4.67966,7.088849 0.11612,0.534304 0.26252,1.070697 0.32531,1.191987 0.0628,0.121291 0.11418,0.364178 0.11418,0.53975 0,0.185554 0.0728,0.319224 0.17391,0.319224 0.33992,0 1.47146,1.038746 1.84749,1.695986 0.79778,1.394363 0.99317,3.271452 0.50618,4.862882 -0.14652,0.47885 -0.37512,1.04883 -0.508,1.26662 -0.13287,0.2178 -0.24158,0.46346 -0.24158,0.54593 0,0.0825 0.37991,0.67579 0.84425,1.31851 2.18655,3.02654 2.97883,6.356873 2.40578,10.112693 -0.11112,0.72827 -0.20203,1.39124 -0.20203,1.47327 0,0.082 0.27562,0.32048 0.6125,0.5299 0.62052,0.38573 1.79819,1.65783 2.56046,2.76574 0.5453,0.79258 1.20859,2.66684 1.4633,4.134867 0.26174,1.50855 0.26841,3.42387 0.0148,4.24003 -0.20772,0.66841 -0.20753,0.66924 0.30833,1.34357 0.49145,0.64242 0.70852,1.29974 0.95117,2.88033 0.25157,1.63866 0.14094,2.95679 -0.32978,3.92917 -0.40283,0.83213 -1.55265,1.95122 -2.59624,2.52686 -0.58468,0.3225 -1.25854,0.86577 -1.9685,1.58698 -0.59373,0.60314 -1.21739,1.18185 -1.38591,1.28602 -0.28164,0.17408 -0.29447,0.22364 -0.15875,0.61297 0.41924,1.20265 0.0654,2.63927 -0.97497,3.95876 l -0.74227,0.94138 -0.0736,1.26701 c -0.19738,3.39772 -1.77746,8.75996 -3.223,10.93775 l -0.45066,0.67895 0.21211,0.60366 c 0.11666,0.33201 0.24403,1.17823 0.28305,1.88049 0.0623,1.12113 0.038,1.35124 -0.199,1.88705 -0.30778,0.69579 -0.27135,0.83662 0.21637,0.83662 0.59536,0 2.44712,0.67406 3.62683,1.32021 4.6231,2.20509 5.00685,7.26488 0.89744,7.42919 -13.360857,-0.0832 -25.405497,-0.41253 -40.382189,-0.39459 -2.113589,-0.95348 -1.340614,-4.71571 3.759819,-7.40903 z m 28.46123,0.14074 c 1.05564,-0.18824 2.1324,-0.64981 2.1324,-0.91409 0,-0.0899 0.11971,-0.22759 0.26601,-0.30589 0.14631,-0.0783 0.41131,-0.45972 0.58888,-0.8476 0.2913,-0.63628 0.3151,-0.80594 0.24341,-1.73535 -0.0437,-0.56657 -0.1543,-1.28729 -0.24577,-1.60162 l -0.16632,-0.5715 h -4.12136 c -2.26675,0 -5.10719,-0.0518 -6.31211,-0.1151 l -2.19075,-0.11511 v 2.67131 c 0,2.05533 0.0386,2.70333 0.16736,2.81019 0.7954,0.66012 7.27026,1.14701 9.63825,0.72476 z m -12.34561,-0.21649 c 0.38418,-0.0714 0.95568,-0.25353 1.27,-0.4047 l 0.5715,-0.27486 0.0343,-2.62162 0.0343,-2.62162 -2.12978,-0.0806 c -2.99375,-0.11337 -5.13543,-0.28751 -8.08069,-0.65702 -1.40147,-0.17583 -2.66524,-0.29029 -2.80839,-0.25437 -0.14314,0.0359 -0.3729,0.25341 -0.51057,0.4833 -0.31954,0.53361 -0.41726,2.7655 -0.1909,4.36018 0.13086,0.92187 0.19712,1.10726 0.42635,1.19296 0.44367,0.16588 3.85569,0.74935 5.22441,0.8934 2.45687,0.25858 4.71746,0.25307 6.1595,-0.015 z m 6.3134,-13.6963 c 3.75583,-0.47436 5.58941,-0.95183 7.89279,-2.05533 1.90157,-0.911 2.59253,-1.40762 3.88183,-2.79004 1.90054,-2.0378 2.46589,-2.91081 2.57602,-3.9779 0.0558,-0.54083 -0.12276,-1.59149 -0.2705,-1.59149 -0.0186,0 -0.37133,0.11652 -0.7839,0.25893 -0.41257,0.14241 -1.17501,0.31836 -1.69431,0.39101 -0.69916,0.0978 -1.08847,0.23137 -1.50019,0.51464 -1.65188,1.13653 -5.19243,2.25266 -7.17589,2.26214 -0.39343,0.002 -0.47625,0.0472 -0.47625,0.26051 0,0.257 -0.0263,0.25781 -5.49275,0.17153 -3.02101,-0.0477 -5.5118,-0.13532 -5.53508,-0.19473 -0.0233,-0.0594 -0.12329,-0.10803 -0.22225,-0.10803 -0.1134,0 -0.17992,-0.13466 -0.17992,-0.36428 0,-0.32977 -0.0511,-0.3728 -0.53975,-0.4543 -0.29686,-0.0495 -0.68262,-0.0999 -0.85725,-0.112 -0.17462,-0.0121 -0.43285,-0.0883 -0.57383,-0.16943 -0.14099,-0.0811 -0.47061,-0.18764 -0.7325,-0.23677 -0.93168,-0.17479 -2.92895,-0.94683 -3.78055,-1.46138 -0.47568,-0.28741 -1.13582,-0.81223 -1.46699,-1.16627 l -0.60212,-0.64372 -1.08925,-0.0546 c -0.75201,-0.0377 -1.32386,-0.14891 -1.84697,-0.35926 l -0.75772,-0.30468 -0.27722,0.26043 c -0.15248,0.14324 -0.44015,0.61308 -0.63929,1.04409 -0.31767,0.68758 -0.36206,0.93153 -0.36206,1.99014 0,1.13121 0.0269,1.25617 0.43165,2.00251 1.13573,2.09441 3.80167,4.04669 7.47484,5.47385 3.80117,1.47689 9.63196,2.04178 14.59941,1.4144 z m 1.85624,-10.57426 c -0.0422,-1.97285 -0.10217,-3.61557 -0.13325,-3.6505 -0.0989,-0.11116 -4.95926,-0.19285 -7.55667,-0.127 l -2.50478,0.0635 -0.0352,3.556 -0.0352,3.556 1.8415,0.0635 c 1.01282,0.0349 3.33974,0.0774 5.17093,0.0945 l 3.32944,0.031 z m -9.08273,2.35821 c -0.0269,-0.0568 -0.0182,-1.16048 0.0193,-2.45271 l 0.0683,-2.3495 1.524,-0.082 c 0.8382,-0.0451 2.4545,-0.0964 3.59178,-0.11401 1.90315,-0.0295 2.08231,-0.0128 2.25021,0.20897 0.13618,0.1799 0.18849,0.70795 0.20631,2.08251 0.0131,1.01283 0.0311,2.0048 0.0399,2.20438 0.0114,0.25786 -0.0586,0.39048 -0.24209,0.45824 -0.35444,0.13092 -7.39686,0.17255 -7.45775,0.0441 z m 6.50109,-0.67471 c 0,-0.0699 -0.1143,-0.127 -0.254,-0.127 -0.1397,0 -0.254,0.0572 -0.254,0.127 0,0.0698 0.1143,0.127 0.254,0.127 0.1397,0 0.254,-0.0572 0.254,-0.127 z m -5.88224,-0.27781 c -0.0405,-0.10131 -0.0706,-0.0712 -0.0767,0.0767 -0.006,0.13388 0.0245,0.20889 0.0667,0.16669 0.0422,-0.0422 0.0467,-0.15174 0.01,-0.24342 z m 0.13285,-3.22792 c -0.0422,-0.0422 -0.15174,-0.0467 -0.24342,-0.01 -0.10131,0.0405 -0.0712,0.0706 0.0767,0.0767 0.13388,0.006 0.20889,-0.0245 0.16669,-0.0667 z m 25.68432,-2.61026 c 0.92207,-0.90764 1.27805,-1.73666 1.36366,-3.17576 0.0791,-1.32892 -0.19469,-3.07637 -0.62814,-4.00984 -0.51277,-1.1043 -2.0429,-2.20694 -3.48726,-2.51299 -1.18657,-0.25143 -3.13165,-0.24152 -3.92081,0.02 -0.85976,0.28488 -0.91741,0.3757 -0.35181,0.55419 1.25794,0.39698 3.07791,2.07803 3.83646,3.54362 0.90731,1.753 1.39486,4.03496 1.23618,5.78597 -0.0453,0.50012 -0.044,0.94776 0.003,0.99475 0.14697,0.14697 1.30444,-0.56574 1.94868,-1.1999 z m -42.87888,0.81374 c 0.0319,-0.0524 -0.0259,-0.52387 -0.12858,-1.04775 -0.40471,-2.06567 0.0414,-5.16849 1.03305,-7.18569 0.75347,-1.53266 2.19702,-3.18455 3.17052,-3.62811 0.41015,-0.18687 0.40948,-0.27886 -0.004,-0.60444 -1.62398,-1.27742 -4.42673,-1.3708 -6.02088,-0.20059 -1.18338,0.86869 -1.78271,1.72832 -2.56656,3.68133 -0.64747,1.6132 -0.89194,2.80029 -0.82385,4.0005 0.0777,1.36899 0.33817,2.19082 1.01414,3.19929 0.58726,0.87613 1.49802,1.52685 2.43066,1.73666 0.64855,0.14591 1.81842,0.17602 1.89593,0.0488 z m 24.83339,-2.9845 c -0.009,-1.27476 -0.0514,-2.89832 -0.0952,-3.60791 l -0.0797,-1.29017 -1.2065,0.70217 c -1.23461,0.71852 -1.778,0.90585 -1.778,0.61295 0,-0.0898 0.0857,-0.40632 0.1905,-0.70329 0.26127,-0.74051 0.23565,-1.72973 -0.0618,-2.385 -0.32072,-0.70663 -1.44283,-1.82235 -2.23806,-2.22533 -0.69428,-0.35181 -2.0655,-0.7901 -3.01638,-0.96413 l -0.61721,-0.11296 0.0764,2.11346 c 0.042,1.1624 0.11246,3.92797 0.15659,6.14571 l 0.0802,4.03225 h 4.30237 4.30237 z m -0.29621,-5.33927 c 2.98826,-1.74024 4.34677,-2.62732 6.51051,-4.25123 2.07475,-1.55713 3.98315,-3.351997 4.93139,-4.638037 1.73021,-2.34656 2.70813,-5.52978 2.71184,-8.82731 0.003,-2.776233 -1.61077,-6.492833 -3.69213,-8.502533 -0.69049,-0.66673 -2.28435,-1.84469 -2.37428,-1.75475 -0.0206,0.0206 0.0204,0.28779 0.0909,0.59387 0.22091,0.95824 0.16154,2.53775 -0.13101,3.4849 -0.3148,1.0192 -0.65379,1.58183 -1.38809,2.30382 l -0.5423,0.5332 0.2619,0.6098 c 0.30994,0.721613 0.63761,2.332603 0.78938,3.880933 0.16423,1.67541 0.71963,2.38036 1.87541,2.38036 0.39035,0 0.57455,-0.0879 0.91018,-0.43414 0.23143,-0.23878 0.48553,-0.56288 0.56466,-0.72022 0.0791,-0.15735 0.22419,-0.3126 0.32235,-0.34502 0.42522,-0.14042 -0.2623,2.50164 -1.02178,3.92656 -0.77341,1.45107 -1.7733,2.32139 -3.42772,2.98354 -1.66306,0.66562 -3.83738,0.35119 -5.85329,-0.84644 -1.57747,-0.93716 -2.19907,-1.77085 -2.7353,-3.66859 l -0.23137,-0.8188 -0.6217,1.0728 c -0.79171,1.36617 -2.12083,2.69421 -3.33491,3.33219 -1.36492,0.71725 -2.84341,1.02592 -4.47891,0.93509 -2.18755,-0.12149 -3.37101,-0.64591 -4.6355,-2.0541 -0.98757,-1.09982 -1.36649,-1.75969 -1.71664,-2.98942 -0.28481,-1.00023 -0.28493,-1.00494 -0.045,-1.6725 0.13235,-0.3682 0.29711,-0.66207 0.36612,-0.65306 0.069,0.009 0.2481,0.37249 0.39797,0.8077 0.36695,1.06565 0.51137,1.18514 1.5092,1.24867 l 0.83235,0.053 0.48695,-0.51188 c 0.49962,-0.52522 0.84971,-1.42816 1.21652,-3.13763 0.18493,-0.86184 0.57579,-1.82002 0.96594,-2.36793 l 0.26346,-0.370003 -0.74145,-0.79453 c -1.2262,-1.31398 -1.82154,-2.85698 -1.82025,-4.71772 3.8e-4,-0.56159 0.0617,-1.24074 0.13626,-1.50923 0.0746,-0.26849 0.10539,-0.51832 0.0685,-0.55518 -0.0752,-0.0752 -1.81412,0.91976 -2.5906,1.48224 -0.84635,0.61309 -2.46319,4.00665 -3.13837,6.587083 -0.86982,3.32427 -0.61254,6.59097 0.73194,9.29352 1.38181,2.7776 4.00653,4.27363 9.59494,5.468897 2.52475,0.54 3.77844,0.92782 4.62358,1.43024 0.80436,0.47818 1.70607,1.40655 2.07685,2.13826 0.27462,0.54193 0.31854,0.77167 0.2723,1.42414 -0.0303,0.42788 -0.0987,0.90655 -0.15196,1.06371 -0.0536,0.15818 -0.0451,0.28575 0.019,0.28575 0.0637,0 1.02762,-0.53101 2.14207,-1.18002 z m 6.27953,-9.224957 c 1.06644,-0.43399 1.7608,-0.88933 2.30996,-1.51479 0.40535,-0.46167 1.29881,-2.22056 1.44783,-2.85025 0.0807,-0.34116 0.0694,-0.35142 -0.28045,-0.254 -0.52402,0.14591 -1.5212,0.0704 -1.94179,-0.14715 -0.19858,-0.10269 -0.5052,-0.35802 -0.68138,-0.5674 -0.33026,-0.3925 -0.42501,-0.82226 -0.71034,-3.22224 -0.20658,-1.73754 -0.49262,-2.598223 -1.04809,-3.153703 -0.64441,-0.6444 -1.15462,-0.88761 -2.02825,-0.96683 -0.98871,-0.0897 -1.54952,0.15397 -2.47684,1.07595 -0.61084,0.607313 -0.90744,0.796193 -1.60882,1.024493 -0.47296,0.15395 -1.01017,0.2799 -1.19381,0.2799 h -0.3339 l 0.0698,2.25425 c 0.0593,1.91503 0.12171,2.44536 0.41489,3.52425 0.54663,2.0116 0.95098,2.63808 2.26998,3.51698 2.04315,1.36143 4.0517,1.70844 5.79123,1.00054 z m -14.70109,-0.12733 c 1.43944,-0.36815 2.40241,-0.91267 3.45169,-1.95179 0.93113,-0.92212 1.83929,-2.2987 2.18407,-3.31058 0.13696,-0.40194 0.17428,-1.06361 0.14809,-2.6251 l -0.035,-2.0877 -0.88543,-0.16035 c -1.17537,-0.21286 -1.95107,-0.61591 -2.41642,-1.255553 -0.44109,-0.6063 -0.94815,-0.80959 -2.01935,-0.80959 -0.90736,0 -1.72894,0.39632 -2.45544,1.18448 -0.74074,0.803613 -1.22269,1.833043 -1.60935,3.437543 -0.40286,1.67169 -0.66976,2.30269 -1.19699,2.82993 -0.82475,0.82474 -2.51707,0.77384 -3.25049,-0.0978 -0.37478,-0.44541 -0.38623,-0.41157 -0.15439,0.45633 0.2891,1.08226 0.71029,1.73767 1.84477,2.87059 0.96115,0.95984 1.1944,1.12498 1.91959,1.35913 1.45563,0.46998 3.04196,0.52686 4.47466,0.16044 z M 95.73977,85.79451 c 0.43594,-0.16549 0.94946,-0.48738 1.23825,-0.77617 0.4068,-0.40679 0.49342,-0.58155 0.49342,-0.99544 0,-0.73974 -0.21243,-1.08599 -0.89382,-1.45685 -1.34009,-0.72936 -3.16403,-0.69841 -4.68939,0.0796 -1.24472,0.63486 -1.68141,1.47816 -1.22374,2.36321 0.20167,0.38998 1.05853,0.915683 1.72491,1.058263 0.80897,0.17308 2.54935,0.0315 3.35037,-0.272603 z m -8.87283,-1.36375 c 0.2794,-0.13759 0.68942,-0.2847 0.91115,-0.32691 0.38764,-0.0738 1.53321,0.0593 1.96254,0.22807 0.16621,0.0653 0.22359,-0.0315 0.29298,-0.49417 0.0696,-0.46401 0.18938,-0.66519 0.61881,-1.03917 0.68595,-0.59737 1.62395,-1.01544 2.84345,-1.26734 1.27209,-0.26276 2.40307,-0.0452 3.48415,0.67022 0.5011,0.33162 0.99942,1.1686 0.99942,1.67865 0,0.22518 0.0503,0.27157 0.22225,0.20512 1.07243,-0.41435 2.18544,-0.3078 3.29236,0.31516 l 0.6571,0.36982 0.69575,-0.75149 c 0.96593,-1.04332 1.2965,-2.01137 1.27995,-3.7483 -0.009,-0.91829 -0.0791,-1.44585 -0.254,-1.905 -0.23356,-0.6131 -0.28351,-0.65593 -1.44841,-1.242 -4.34388,-2.18546 -12.20303,-2.10512 -17.7354,0.18129 -0.85027,0.3514 -0.92486,0.41461 -1.17475,0.99551 -0.37642,0.87501 -0.37926,2.97803 -0.006,4.08748 0.30588,0.908 1.08479,2.10661 1.66306,2.55917 l 0.40688,0.31844 0.39011,-0.29219 c 0.21456,-0.1607 0.6187,-0.40476 0.8981,-0.54236 z m -1.5875,-1.40556 c 0,-0.8361 1.96004,-1.55772 3.25359,-1.19787 0.8359,0.23254 1.44899,0.70527 1.21886,0.93982 -0.13404,0.13661 -0.27297,0.1044 -0.78072,-0.18102 -0.93307,-0.52451 -2.02228,-0.42366 -3.02004,0.27963 -0.64604,0.45537 -0.67169,0.46145 -0.67169,0.15944 z m 12.61967,-0.72086 c -0.15688,-0.40882 0.73016,-0.99266 1.73432,-1.14149 1.04722,-0.15522 2.66401,0.46323 2.66401,1.01903 0,0.24079 -0.30667,0.23612 -0.50906,-0.008 -0.0875,-0.10548 -0.45449,-0.27764 -0.81545,-0.38257 -0.81444,-0.23677 -1.80125,-0.084 -2.5169,0.38956 -0.40774,0.26984 -0.49339,0.28878 -0.55692,0.12321 z m -13.8955,-1.43067 c -0.59568,-0.53228 -0.64046,-1.20592 -0.12705,-1.91117 0.51369,-0.70563 1.73172,-1.48785 2.84188,-1.82505 1.70588,-0.51814 3.55151,-0.12106 4.50969,0.97023 0.80256,0.91408 0.42708,2.34584 -0.66868,2.54975 -0.26197,0.0487 -0.59952,-0.0221 -1.02551,-0.21522 -1.26999,-0.57577 -3.50884,-0.3305 -4.2575,0.46641 -0.38419,0.40895 -0.78849,0.39785 -1.27283,-0.035 z m 1.2385,-0.64053 c 1.23417,-0.71918 2.67566,-0.86216 4.12177,-0.40886 0.44279,0.1388 0.93041,0.2531 1.08361,0.254 0.37306,0.002 0.67395,-0.45743 0.67395,-1.02946 0,-0.372 -0.0879,-0.54376 -0.4336,-0.8473 -0.61569,-0.54058 -1.24993,-0.72438 -2.4874,-0.72084 -0.89387,0.003 -1.20317,0.0604 -1.79871,0.33658 -1.47604,0.68445 -2.26529,1.45187 -2.26529,2.20267 0,0.68841 0.21803,0.73045 1.10567,0.21321 z m 16.42033,0.01 c -0.90823,-0.44477 -2.23174,-0.53975 -3.1715,-0.22761 -0.80423,0.26712 -1.2091,0.17657 -1.47048,-0.32889 -0.45342,-0.8768 -0.1956,-1.57293 0.85685,-2.31359 0.66546,-0.46832 0.80401,-0.51373 1.73098,-0.5674 1.45359,-0.0841 2.47725,0.27104 3.24626,1.12635 0.61704,0.6863 0.84297,1.41386 0.58735,1.89148 -0.12528,0.23409 -0.83441,0.76569 -1.01746,0.76274 -0.0349,-5.1e-4 -0.37782,-0.15495 -0.762,-0.34308 z m 1.15624,-0.55718 c 0.56174,-0.56174 -0.0905,-1.62057 -1.32565,-2.1519 -0.53607,-0.23062 -0.81518,-0.26769 -1.66602,-0.22128 -1.07471,0.0586 -1.53767,0.2313 -2.13332,0.79574 -0.26282,0.24905 -0.34925,0.45155 -0.34925,0.81826 0,0.7193 0.24811,0.8702 0.99227,0.60349 0.92471,-0.33142 2.46799,-0.28551 3.26223,0.097 0.79534,0.38307 0.89073,0.38766 1.21974,0.0587 z m -28.33424,0.68321 c 0.29295,-0.33511 0.35465,-0.35361 0.79774,-0.23922 0.67627,0.17459 1.58717,-0.25852 1.69682,-0.8068 0.0414,-0.20695 0.21415,-0.46729 0.38392,-0.57852 0.16976,-0.11123 0.42001,-0.38487 0.55611,-0.60809 0.29917,-0.49064 0.33902,-1.35835 0.0624,-1.35835 -0.34454,0 -0.44735,-0.41878 -0.18296,-0.74529 0.26545,-0.32781 0.32274,-1.02817 0.10214,-1.248758 -0.0871,-0.08713 -0.27221,-0.101886 -0.49099,-0.03914 -0.45856,0.131508 -0.58461,0.03514 -0.6877,-0.525796 -0.099,-0.538883 -0.24247,-0.678193 -0.80876,-0.785476 -0.51266,-0.09712 -1.00563,0.08173 -1.31728,0.477927 -0.2718,0.34554 -0.67662,0.313259 -0.88191,-0.07033 -0.32806,-0.612993 -1.51551,-0.06021 -1.51551,0.705499 0,0.314964 -0.0764,0.425164 -0.39117,0.564514 -0.45176,0.19997 -1.13283,1.07575 -1.13283,1.45671 0,0.14286 0.14852,0.41476 0.33004,0.60423 l 0.33004,0.34448 -0.33004,0.4857 c -0.41477,0.61039 -0.42625,1.18971 -0.0326,1.64732 0.21685,0.2521 0.41464,0.34505 0.73025,0.34317 0.31678,-0.002 0.56497,0.11553 0.92554,0.43785 0.43833,0.39184 0.55042,0.43277 1.016,0.37099 0.36194,-0.048 0.62122,-0.18143 0.84081,-0.43262 z m 32.91814,-1.20973 c 0.83053,-1.47343 0.95175,-3.95982 0.26158,-5.365748 -1.08307,-2.206327 -6.13337,-3.976305 -12.86768,-4.509738 -4.77003,-0.37784 -9.44178,0.722392 -13.08727,3.08215 -1.24809,0.807901 -1.51279,1.099239 -1.91239,2.104878 -0.47441,1.193878 -0.36542,4.339018 0.16165,4.664758 0.0668,0.0413 0.56271,-0.20748 1.10198,-0.55284 2.95696,-1.89369 5.83445,-2.87087 9.99749,-3.39508 2.9676,-0.373684 7.12784,-0.069 9.63593,0.70564 1.7329,0.53524 4.35249,1.94863 5.84379,3.15301 0.58847,0.47525 0.65576,0.48404 0.86492,0.11297 z"
       id="path20776"
       sodipodi:nodetypes="cscsscsscssscssssssssccsssssssscsscssssscsssssssssssssssssssssssssssssssssssssssscsscssssccccsssssscsscssscsccccsssssscccssssssscssssssscssscsscssscscccssccccccccccscscssccsssssccscccccccscsscssssssccsscsscsscccccssccssccccccccsscsscsscsssscssssscssssssssscssscssccssssssssscccscssssscssscssscccssscssssssssssccssssssssscscssssscscscsssscscsccsssssscsscsscccsssccsccsscssccsssssscsscssssssscsscsssssscscsssscsscsscscccsssssssssss" />
  </g>
</svg>
