<?xml version="1.0" encoding="UTF-8" standalone="no"?>
<!-- Created with Inkscape (http://www.inkscape.org/) -->

<svg
   width="210mm"
   height="297mm"
   viewBox="0 0 210 297"
   version="1.1"
   id="svg11565"
   inkscape:version="1.1 (c68e22c387, 2021-05-23)"
   sodipodi:docname="Schneemann.svg"
   xmlns:inkscape="http://www.inkscape.org/namespaces/inkscape"
   xmlns:sodipodi="http://sodipodi.sourceforge.net/DTD/sodipodi-0.dtd"
   xmlns="http://www.w3.org/2000/svg"
   xmlns:svg="http://www.w3.org/2000/svg">
  <sodipodi:namedview
     id="namedview11567"
     pagecolor="#ffffff"
     bordercolor="#666666"
     borderopacity="1.0"
     inkscape:pageshadow="2"
     inkscape:pageopacity="0.0"
     inkscape:pagecheckerboard="0"
     inkscape:document-units="mm"
     showgrid="false"
     inkscape:zoom="0.34698723"
     inkscape:cx="628.26519"
     inkscape:cy="710.40078"
     inkscape:window-width="1920"
     inkscape:window-height="1017"
     inkscape:window-x="-8"
     inkscape:window-y="-8"
     inkscape:window-maximized="1"
     inkscape:current-layer="layer1" />
  <defs
     id="defs11562" />
  <g
     inkscape:label="Ebene 1"
     inkscape:groupmode="layer"
     id="layer1">
    <path
       style="fill:none;stroke-width:0.127;stroke:#000000;stroke-opacity:1"
       d="m 91.378022,168.222 c -3.394152,-0.10646 -6.351701,-0.38972 -7.620001,-0.7298 -0.244475,-0.0656 -0.7874,-0.1912 -1.2065,-0.2792 -3.115414,-0.6542 -6.256834,-1.74374 -8.146578,-2.82549 -2.933182,-1.67904 -5.157051,-4.3574 -6.479341,-7.80354 -0.774038,-2.01729 -1.136852,-4.95681 -0.800961,-6.48939 0.07184,-0.32779 0.190966,-0.88174 0.264723,-1.23099 0.316938,-1.50077 1.16932,-3.50433 2.036673,-4.78728 0.268941,-0.3978 0.488983,-0.85794 0.488983,-1.02252 0,-0.16459 -0.141676,-0.78208 -0.314835,-1.37222 -0.17316,-0.59014 -0.316035,-1.23369 -0.3175,-1.43012 -0.0015,-0.19642 -0.09181,-0.65362 -0.200757,-1.016 -0.218962,-0.72827 -0.349256,-1.23186 -0.564779,-2.18286 -0.07915,-0.34925 -0.199008,-0.8636 -0.266352,-1.143 -0.06734,-0.2794 -0.144973,-0.6223 -0.172508,-0.762 -0.02754,-0.1397 -0.166068,-0.73977 -0.30785,-1.3335 -0.141782,-0.59372 -0.324946,-1.4224 -0.407033,-1.8415 -0.373687,-1.90789 -0.412389,-1.97759 -1.436665,-2.58731 -2.129653,-1.26769 -3.537204,-3.06514 -4.326658,-5.52515 -0.283563,-0.8836 -0.320903,-1.21737 -0.319689,-2.8575 0.0014,-1.93494 0.09103,-2.44257 0.641601,-3.63504 0.269227,-0.58311 1.291018,-2.04269 1.571308,-2.24454 0.07204,-0.0519 0.05348,-0.30176 -0.04717,-0.635 -0.09127,-0.3022 -0.206282,-0.69233 -0.255576,-0.86696 -0.06543,-0.23178 -0.189841,-0.32763 -0.460832,-0.35502 -0.616145,-0.0623 -2.500261,-0.53839 -2.974706,-0.75171 -0.78688,-0.35379 -1.542158,-0.9716 -2.044506,-1.67239 -0.612063,-0.85384 -1.288768,-2.57757 -1.277219,-3.25338 0.0048,-0.2794 -0.06027,-0.70665 -0.144547,-0.94945 -0.224177,-0.64586 -1.502372,-3.0797 -1.842462,-3.50828 -0.160729,-0.20255 -0.518729,-0.76832 -0.795557,-1.25727 -0.684335,-1.20871 -0.723973,-1.26861 -1.485047,-2.244411 -0.98093,-1.257681 -1.215067,-1.708707 -1.232883,-2.374946 -0.02086,-0.780195 0.296367,-1.159143 0.970358,-1.159143 h 0.485862 v -0.889 c 0,-0.719667 0.04838,-0.93738 0.254,-1.143 0.431351,-0.43135 1.340357,-0.234384 1.9685,0.426538 l 0.254,0.267254 0.07109,-0.616682 c 0.104383,-0.905493 0.788276,-1.258621 1.488152,-0.768409 0.277891,0.194643 0.282259,0.189667 0.282259,-0.321578 0,-0.780513 0.28298,-1.351775 0.710055,-1.433416 0.495224,-0.09467 0.944629,0.09841 1.345126,0.57791 0.315452,0.377678 0.346696,0.389073 0.421913,0.153883 0.167116,-0.522544 0.290828,-0.635999 0.734881,-0.673961 0.250662,-0.02143 0.623391,0.04773 0.828286,0.153686 0.43455,0.224713 0.531739,0.165234 0.531739,-0.325425 0,-0.472313 0.463373,-0.9958 0.88145,-0.9958 0.180205,0 0.484619,0.145554 0.676474,0.323453 0.367492,0.340757 0.982076,1.442374 0.982076,1.76033 0,0.102974 0.05294,0.219945 0.117641,0.259932 0.0647,0.03999 0.184752,-0.256675 0.266777,-0.659254 0.08202,-0.402579 0.267648,-0.860548 0.412497,-1.017711 0.320963,-0.348249 0.984244,-0.381552 1.26469,-0.0635 0.21606,0.245032 0.732395,1.336917 0.732395,1.548783 0,0.258443 0.193591,0.130363 0.355365,-0.235109 0.0923,-0.208518 0.361115,-0.462912 0.617929,-0.584779 0.434828,-0.206339 0.46905,-0.204994 0.788383,0.03098 0.604633,0.446802 0.812936,1.090529 0.727664,2.248737 -0.214978,2.919975 -0.273379,5.151871 -0.17965,6.865638 0.137575,2.51546 0.247978,3.23521 0.565622,3.68749 0.51799,0.73754 0.603092,1.25738 0.4345,2.65412 -0.170754,1.41466 -0.399826,2.254 -0.854971,3.13271 -0.375556,0.72504 -0.662508,0.99643 -1.629342,1.54099 -0.82572,0.46507 -0.846761,0.51713 -0.67143,1.66127 0.08697,0.56753 0.02357,0.49915 0.710979,0.76686 0.301153,0.11729 0.677026,0.34089 0.835274,0.4969 0.435078,0.42893 1.220677,1.59249 1.220677,1.80795 0,0.27564 0.268911,0.23498 0.944966,-0.14288 0.463865,-0.25925 0.707783,-0.31808 1.100476,-0.26541 0.650652,0.0873 0.798238,0.22005 1.208503,1.08728 0.310516,0.65638 0.342486,0.87199 0.379397,2.55875 0.02217,1.01308 0.09422,2.1563 0.160122,2.54047 0.313637,1.82846 0.412695,2.27185 0.652584,2.921 0.320981,0.86859 0.469239,2.38987 0.269313,2.76343 -0.237343,0.44348 0.03526,0.42643 0.395245,-0.0247 0.341782,-0.42834 0.356434,-0.70333 0.0693,-1.30068 -0.198601,-0.41317 -0.0586,-1.56181 0.274134,-2.24915 0.161569,-0.33375 0.600707,-0.93837 0.975861,-1.34358 0.672284,-0.72614 0.682101,-0.74808 0.682101,-1.52439 0,-0.62629 0.08078,-0.94996 0.394332,-1.57998 l 0.394332,-0.79233 -0.255495,-0.56205 c -0.585379,-1.28774 -0.729076,-3.91867 -0.278603,-5.10094 0.238127,-0.62496 0.240659,-0.67836 0.03923,-0.82686 -0.118438,-0.0873 -0.291771,-0.15875 -0.385189,-0.15875 -0.320281,0 -1.623067,-0.73796 -1.995478,-1.13033 -0.943783,-0.99438 -0.437206,-2.56437 1.405634,-4.35636 0.820939,-0.79828 1.249762,-1.10863 2.490646,-1.80258 1.176958,-0.65819 1.176477,-0.6573 0.989724,-1.82539 -0.407457,-2.54851 -1.433671,-6.461679 -1.787287,-6.815295 -0.06756,-0.06756 -0.122843,-0.195707 -0.122843,-0.284763 0,-0.165408 -0.448493,-1.185275 -1.218907,-2.771781 -0.440831,-0.907799 -0.586873,-1.172531 -1.261095,-2.286 -0.974744,-1.609777 -0.922815,-2.170889 0.327518,-3.538952 0.637799,-0.697853 2.862098,-2.438719 4.121874,-3.22602 0.763202,-0.476964 2.919842,-1.497458 3.36461,-1.592089 0.174625,-0.03715 0.7747,-0.18642 1.3335,-0.331702 3.128729,-0.813434 6.247018,-0.89919 8.826501,-0.242736 0.523875,0.133321 1.084299,0.270336 1.245389,0.304479 0.592339,0.125544 1.990396,0.705135 2.588293,1.073025 0.338324,0.208172 0.649035,0.378495 0.690468,0.378495 0.125047,0 1.604617,1.215776 2.073148,1.703524 l 0.437797,0.455755 -0.341344,1.746111 c -0.670593,3.430331 -0.760908,4.472827 -0.92922,10.725861 -0.05823,2.163548 -0.05033,2.258958 0.20879,2.518068 0.148125,0.14813 0.351302,0.23786 0.451504,0.19941 0.100202,-0.0384 0.310096,-0.019 0.46643,0.0433 0.15633,0.0623 0.85574,0.29727 1.55424,0.52219 2.12482,0.68422 4.99503,2.3441 5.56956,3.22093 0.1136,0.17339 0.27488,0.57072 0.3584,0.88297 0.18534,0.693 -0.0196,1.44714 -0.56083,2.06355 -0.25877,0.29472 -1.62284,1.27832 -2.09386,1.50983 -0.0311,0.0153 0.40938,1.23607 0.59539,1.64998 0.53126,1.18218 0.63099,3.67204 0.20742,5.17828 l -0.24191,0.86027 0.44983,0.40973 c 0.73045,0.66531 1.01292,1.4769 0.96414,2.77011 l -0.0411,1.0904 0.64515,0.70596 c 0.84298,0.92243 1.13681,1.79638 1.02141,3.03802 -0.0954,1.0269 0.0522,1.189 0.66805,0.73366 0.56045,-0.41436 0.59987,-0.63766 0.17776,-1.00693 -0.86939,-0.76056 -0.86775,-1.72589 0.005,-2.89507 0.29475,-0.39492 0.45646,-1.09794 0.53177,-2.31193 0.0352,-0.56808 0.31132,-2.00751 0.45787,-2.38722 0.0619,-0.16045 0.11258,-0.40334 0.11258,-0.53975 0,-0.13642 0.0572,-0.24803 0.127,-0.24803 0.0699,0 0.127,-0.0945 0.127,-0.21004 0,-0.34528 0.85936,-1.77444 1.27961,-2.12805 0.4813,-0.40499 0.86952,-0.50985 1.4703,-0.39715 0.55264,0.10368 1.02511,0.37606 1.39705,0.80541 l 0.27346,0.31567 0.38816,-0.44209 c 0.50324,-0.57315 1.25142,-1.08459 1.73192,-1.18389 0.20955,-0.0433 0.75875,-0.11062 1.22044,-0.14959 0.86838,-0.0733 1.59543,0.11468 2.75419,0.71206 1.773,0.91405 2.75349,2.79675 2.75038,5.28117 -0.003,2.30142 -0.53951,3.08133 -4.71862,6.858 -0.83137,0.75131 -1.54318,1.51437 -1.74286,1.86833 -0.91928,1.62962 -2.86527,2.1246 -4.29007,1.09122 -0.24568,-0.17819 -0.56448,0.0624 -1.28834,0.97245 l -0.40012,0.50301 0.0439,2.48149 c 0.0358,2.02252 0.004,2.63413 -0.17037,3.30669 -0.11786,0.45385 -0.25738,0.8539 -0.31003,0.889 -0.0527,0.0351 -0.12954,0.27804 -0.17086,0.53988 -0.0633,0.40086 -0.0318,0.49928 0.19936,0.62297 0.30432,0.16287 1.22115,0.98638 1.72998,1.55391 0.18095,0.20182 0.38936,0.43042 0.46312,0.508 0.38395,0.4038 1.98164,2.41873 2.10754,2.65792 0.0802,0.15242 0.18336,0.30571 0.22918,0.34063 0.11682,0.089 0.57448,1.1074 0.77052,1.7145 0.0902,0.2794 0.27509,0.82233 0.41083,1.2065 0.86437,2.44639 1.11187,5.21961 0.68572,7.6835 -0.59662,3.44952 -1.81419,5.84841 -4.10594,8.08967 -0.74465,0.72825 -1.08228,0.99475 -2.28165,1.80095 -0.84613,0.56877 -3.70725,1.98388 -4.01105,1.98388 -0.12905,0 -0.67555,0.14393 -1.21445,0.31983 -0.5389,0.17591 -1.46559,0.428 -2.05932,0.5602 -0.59372,0.1322 -1.39382,0.32846 -1.778,0.43615 -1.0899,0.3055 -4.213487,0.69218 -6.032495,0.74679 -0.90805,0.0273 -2.936875,0.009 -4.5085,-0.0401 z m 6.694062,-1.26324 c 0.544191,-0.0711 1.475213,-0.18736 2.068936,-0.25827 0.59373,-0.0709 1.33668,-0.19319 1.651,-0.27173 0.31433,-0.0785 0.8001,-0.1682 1.0795,-0.19924 0.2794,-0.031 0.56229,-0.10774 0.62865,-0.17044 0.0664,-0.0627 0.27173,-0.11399 0.45637,-0.11399 0.18465,0 0.67328,-0.11964 1.08585,-0.26588 0.41257,-0.14623 0.83586,-0.27589 0.94063,-0.28814 0.10478,-0.0123 0.3048,-0.0851 0.4445,-0.16191 0.1397,-0.0768 0.4826,-0.2129 0.762,-0.30244 0.50607,-0.16218 2.40741,-1.08116 2.66079,-1.28605 0.0733,-0.0592 0.47611,-0.36012 0.89521,-0.66863 2.86565,-2.10944 4.59179,-4.63407 5.34801,-7.82195 0.25895,-1.09158 0.26149,-5.02144 0.004,-6.2865 -0.47322,-2.32558 -1.2391,-4.24534 -2.11492,-5.30134 -0.13076,-0.15766 -0.59381,-0.71528 -1.02899,-1.23916 -0.98762,-1.18892 -2.60735,-2.794 -2.8195,-2.794 -0.0877,0 -0.26224,0.1741 -0.38794,0.38689 -0.18137,0.30704 -0.19692,0.425 -0.0753,0.5715 0.0843,0.10154 0.21765,0.18667 0.29641,0.18918 0.44376,0.0142 1.0957,0.96443 1.0957,1.59711 0,0.5084 -0.49609,1.52712 -0.81426,1.67209 -0.19302,0.0879 -0.34483,0.33057 -0.4566,0.72978 -0.20375,0.72775 -0.64708,1.27938 -1.22084,1.51912 -0.23612,0.0986 -0.4293,0.23505 -0.4293,0.30311 0,0.24091 -0.67367,0.91979 -1.15786,1.1668 -0.34786,0.17746 -0.58374,0.43366 -0.80952,0.87921 -0.17524,0.34582 -0.31862,0.72211 -0.31862,0.83619 0,0.33909 -0.78334,1.00524 -1.397,1.188 -0.31433,0.0936 -0.81377,0.27704 -1.10987,0.40761 -0.2961,0.13058 -0.58957,0.23741 -0.65214,0.23741 -0.0626,0 -0.21506,0.15716 -0.33884,0.34925 -0.12379,0.19209 -0.33868,0.43498 -0.47754,0.53975 -0.13886,0.10478 -0.40134,0.34429 -0.58329,0.53225 -0.18195,0.18797 -0.588,0.41018 -0.90232,0.49382 -0.49498,0.1317 -0.724553,0.11456 -1.714504,-0.12803 -1.383278,-0.33897 -1.930497,-0.64347 -2.902655,-1.61521 -0.409011,-0.40883 -0.680474,-0.6185 -0.60325,-0.46593 0.249655,0.49325 0.168307,1.51908 -0.172208,2.17157 -0.474317,0.90889 -0.831954,1.10703 -1.998143,1.10703 -0.944136,0 -0.992927,-0.0151 -1.439586,-0.4445 -0.650696,-0.6256 -0.862577,-1.09523 -0.863336,-1.91355 -8.89e-4,-0.91139 0.412239,-1.6782 1.130971,-2.0994 0.670436,-0.3929 1.59242,-0.41127 2.19528,-0.0437 0.23489,0.1432 0.453221,0.23422 0.485182,0.20226 0.03196,-0.032 -0.08879,-0.42529 -0.268323,-0.87406 -0.179542,-0.44877 -0.326436,-0.90739 -0.326436,-1.01916 0,-0.11177 -0.08981,-0.29302 -0.199572,-0.40279 -0.164246,-0.16424 -0.547709,-0.19957 -2.166419,-0.19957 -2.533366,0 -4.673407,-0.22048 -7.03201,-0.72447 -0.523875,-0.11195 -1.006792,-0.25191 -1.07315,-0.31103 -0.06636,-0.0591 -0.277297,-0.1075 -0.468754,-0.1075 -0.191458,0 -0.383426,-0.0571 -0.426596,-0.127 -0.04317,-0.0699 -0.187424,-0.127 -0.320564,-0.127 -0.28058,0 -3.287275,-1.48877 -4.314936,-2.13655 -0.693606,-0.43721 -2.035898,-1.47045 -2.957054,-2.27621 l -0.480554,-0.42035 -0.50121,0.4163 c -0.549806,0.45668 -0.563345,0.58719 -0.194691,1.87681 0.08985,0.31433 0.227977,0.87154 0.306939,1.23825 0.307969,1.43023 0.418648,1.90929 0.667534,2.88925 0.14192,0.5588 0.285809,1.15888 0.319755,1.3335 0.03395,0.17463 0.203871,0.91758 0.377613,1.651 0.173744,0.73343 0.422994,1.7907 0.553892,2.3495 0.130897,0.5588 0.36222,1.53035 0.514049,2.159 0.151829,0.62865 0.301608,1.31445 0.332841,1.524 0.03123,0.20955 0.111261,0.54669 0.177837,0.7492 0.06658,0.20251 0.121049,0.58223 0.121049,0.84382 0,1.28551 -2.098812,1.99521 -3.215661,1.08737 -0.358452,-0.29138 -0.597136,-1.06215 -1.223311,-3.95039 -0.156544,-0.72206 -0.63565,-2.833 -0.893557,-3.937 -0.06527,-0.2794 -0.154553,-0.70802 -0.198408,-0.9525 -0.07766,-0.43291 -0.388492,-1.82415 -0.751934,-3.3655 -0.09882,-0.4191 -0.250507,-1.07632 -0.337081,-1.4605 -0.08657,-0.38417 -0.196479,-0.74514 -0.244233,-0.80215 -0.14119,-0.16856 -0.763617,1.01682 -1.521524,2.89765 -0.271327,0.67333 -0.403291,1.24754 -0.56191,2.44501 -0.09486,0.71611 -0.14966,1.40191 -0.121783,1.524 0.02787,0.1221 0.104714,0.78077 0.170751,1.46373 0.06604,0.68295 0.244158,1.6545 0.39582,2.159 0.941266,3.13105 1.904543,4.59296 4.488659,6.81216 0.66418,0.57039 2.563397,1.7886 2.788468,1.7886 0.04701,0 0.327736,0.10971 0.623838,0.24379 1.170912,0.53023 4.638862,1.66161 5.618366,1.83294 0.20955,0.0366 0.638175,0.13082 0.9525,0.20926 0.314325,0.0784 1.285875,0.25623 2.159,0.39509 0.873125,0.13886 1.844675,0.29893 2.159,0.35571 0.842845,0.15225 9.479037,0.15947 10.631063,0.009 z m -5.6065,-5.29677 c -0.480567,-0.12241 -1.174301,-0.68148 -1.44643,-1.16567 -0.329756,-0.58672 -0.376853,-1.82707 -0.09345,-2.46106 0.497714,-1.1134 1.495827,-1.68008 2.633065,-1.49493 0.930299,0.15147 1.257497,0.32516 1.641296,0.87132 0.85813,1.22113 0.823938,2.48831 -0.09666,3.58238 -0.191412,0.22748 -0.534591,0.49155 -0.762622,0.58683 -0.401111,0.1676 -1.370977,0.20955 -1.875197,0.0811 z m 1.534305,-0.93525 c 1.006622,-0.62213 1.162257,-2.01922 0.315329,-2.83063 -0.489893,-0.46935 -1.289308,-0.5845 -1.873542,-0.26987 -0.455552,0.24533 -0.938124,1.06955 -0.934565,1.5962 0.0033,0.48378 0.525306,1.27524 1.01193,1.53418 0.573191,0.30501 0.951339,0.29738 1.480848,-0.0299 z m -18.496868,-3.23063 c 0.347091,-0.0956 0.562842,-0.22551 0.549453,-0.33093 -0.01933,-0.15219 -0.352626,-1.57944 -0.678175,-2.90409 -0.06008,-0.24447 -0.167835,-0.70167 -0.23945,-1.016 -0.07162,-0.31432 -0.252316,-1.05727 -0.401558,-1.651 -0.314126,-1.24968 -0.424771,-1.72574 -0.605387,-2.60473 -0.07191,-0.34993 -0.386469,-1.63581 -0.699033,-2.8575 -0.312565,-1.2217 -0.725433,-2.90707 -0.917487,-3.74527 -0.192053,-0.8382 -0.390851,-1.60972 -0.441773,-1.7145 -0.08938,-0.18391 -0.351295,-1.1927 -0.445131,-1.7145 -0.05793,-0.32212 -0.508023,-2.23222 -0.703268,-2.9845 -0.222755,-0.85829 -0.375144,-1.52379 -0.494373,-2.159 -0.059,-0.31432 -0.197886,-0.92978 -0.308638,-1.36768 -0.110753,-0.4379 -0.228363,-0.98083 -0.261358,-1.2065 -0.03299,-0.22568 -0.170515,-0.86752 -0.305603,-1.42632 -0.275134,-1.13811 -0.547827,-2.4383 -0.532442,-2.53866 0.0056,-0.0363 -0.07625,-0.27278 -0.181826,-0.52546 -0.105574,-0.25267 -0.191952,-0.64907 -0.191952,-0.88089 0,-0.23183 -0.04286,-0.44752 -0.09525,-0.47932 -0.05239,-0.0318 -0.336447,0.15682 -0.631243,0.41917 l -0.535993,0.477 0.119515,0.68458 c 0.06573,0.37652 0.208331,1.08463 0.316882,1.57358 0.108552,0.48895 0.217682,1.03188 0.242512,1.2065 0.02483,0.17463 0.104437,0.57468 0.176904,0.889 0.07247,0.31433 0.200179,0.9144 0.283805,1.3335 0.08362,0.4191 0.198465,0.93345 0.2552,1.143 0.05674,0.20955 0.132928,0.65312 0.169317,0.98571 0.03639,0.33259 0.100565,0.66037 0.142615,0.72841 0.04205,0.068 0.135808,0.45314 0.208353,0.85579 0.215785,1.1977 0.343537,1.82566 0.562329,2.76409 0.243303,1.04356 0.417521,1.88184 0.501492,2.413 0.03313,0.20955 0.14984,0.75248 0.25936,1.2065 0.267144,1.10747 0.503361,2.14157 0.768773,3.3655 0.240625,1.10963 0.855944,3.5849 1.846875,7.4295 0.742345,2.88014 0.815073,3.17192 0.981324,3.937 0.193003,0.8882 0.275911,1.0419 0.507869,0.94149 0.113224,-0.049 0.463037,-0.15992 0.777362,-0.24647 z m 18.172924,-4.19368 c 0.491947,-0.2544 0.876127,-0.89212 0.876127,-1.45434 0,-1.13559 -1.262722,-1.99959 -2.198149,-1.50404 -0.912928,0.48362 -1.16146,1.59161 -0.556809,2.48232 0.458846,0.67593 1.15246,0.85168 1.878831,0.47606 z m 6.813015,-1.23209 c 0.45593,-0.57885 0.19044,-1.77558 -0.5728,-2.58189 -1.783071,-1.88372 -2.442138,-2.96205 -2.442138,-3.99572 0,-0.46202 -0.265443,-0.54273 -0.675632,-0.20543 l -0.333567,0.27429 0.249866,0.91543 c 0.450607,1.65089 1.153785,2.62941 2.293124,3.19104 0.30894,0.15229 0.683608,0.37649 0.832595,0.49822 0.551462,0.45054 0.714032,1.16849 0.368152,1.62579 -0.10255,0.13559 -0.18828,0.28938 -0.1905,0.34177 -0.007,0.15478 0.33529,0.10868 0.4709,-0.0635 z m -1.306413,-0.36963 c 0.177912,-0.0811 0.322695,-0.20965 0.321742,-0.28575 -0.0054,-0.42737 -0.200499,-0.7162 -0.614108,-0.90894 -1.367122,-0.63706 -2.296049,-1.80378 -2.925541,-3.67443 -0.188042,-0.5588 -0.396844,-1.02779 -0.464005,-1.0422 -0.257813,-0.0553 -0.705316,0.12827 -0.815776,0.33466 -0.179331,0.33509 0.304816,2.18628 0.699871,2.67604 0.08451,0.10478 0.244423,0.36981 0.355351,0.58897 0.237175,0.46857 1.62845,1.89033 2.177382,2.22509 0.441734,0.26938 0.808712,0.29449 1.265084,0.0866 z m 2.677523,-2.5907 c -0.0891,-0.71344 -0.48671,-1.19249 -1.55137,-1.86927 -0.698335,-0.44392 -1.504307,-1.63506 -1.608808,-2.37765 -0.02978,-0.21161 -0.125172,-0.3175 -0.286025,-0.3175 -0.208261,0 -0.240905,0.0958 -0.238138,0.6985 0.0046,1.00149 0.367159,1.62986 1.831961,3.175 0.69528,0.73343 1.26689,1.37264 1.27024,1.42048 0.003,0.0478 0.0703,0.24787 0.14871,0.4445 l 0.14263,0.35752 0.18616,-0.43952 c 0.12832,-0.30295 0.16084,-0.64229 0.10464,-1.09206 z m 1.21317,0.88307 c 0.21218,-0.25567 0.18969,-1.63526 -0.0339,-2.08066 -0.30504,-0.60759 -1.0892,-1.51791 -1.86834,-2.16894 -0.43055,-0.35976 -0.95547,-0.90505 -1.16649,-1.21175 -0.589429,-0.85671 -0.847449,-0.72519 -0.582339,0.29683 0.204809,0.78956 0.522345,1.1985 1.460919,1.88146 0.78323,0.56991 1.43931,1.31366 1.61965,1.83607 0.13779,0.39912 0.14581,0.45363 0.16366,1.11125 0.0156,0.57282 0.13103,0.66811 0.40687,0.33574 z m 1.54523,-0.43995 c 0.45952,-0.20937 0.66547,-1.05077 0.42442,-1.73398 -0.27515,-0.77986 -0.67215,-1.25483 -1.59987,-1.91409 -0.45402,-0.32264 -0.88913,-0.64621 -0.9669,-0.71904 -0.0778,-0.0728 -0.37851,-0.32893 -0.66831,-0.56909 -0.28981,-0.24017 -0.63859,-0.62593 -0.77507,-0.85725 -0.24415,-0.4138 -0.54786,-0.54173 -0.70035,-0.29499 -0.13744,0.22237 0.33873,1.02214 0.85643,1.43843 0.98695,0.79363 2.0902,1.93781 2.42688,2.51693 0.23416,0.40276 0.36688,0.85361 0.42058,1.42875 0.0828,0.88722 0.10965,0.91964 0.58219,0.70433 z m 1.23755,-2.5361 c 0,-0.6846 -0.85672,-1.7584 -2.13512,-2.67613 -0.39731,-0.28522 -0.98624,-0.80483 -1.30874,-1.1547 -0.52168,-0.56593 -0.61626,-0.62012 -0.85725,-0.49114 -0.14899,0.0797 -0.27089,0.19755 -0.27089,0.26182 0,0.23887 1.36406,1.50003 2.25937,2.08892 0.82566,0.54308 2.05863,1.80977 2.05863,2.11493 0,0.0634 0.0572,0.11536 0.127,0.11536 0.0698,0 0.127,-0.11658 0.127,-0.25906 z m -12.284969,-0.84777 c -0.03682,-0.35148 -1.177353,-1.87052 -1.297564,-1.72819 -0.04855,0.0575 -0.274691,0.34741 -0.502539,0.64427 -0.227848,0.29686 -0.477833,0.53975 -0.555522,0.53975 -0.07769,0 -0.368821,0.15716 -0.646962,0.34925 l -0.505709,0.34925 0.879883,0.0753 c 0.483936,0.0414 1.279934,0.07 1.768884,0.0635 0.838929,-0.0111 0.88734,-0.0276 0.859529,-0.29311 z m 13.672759,-0.1168 c 0.71855,-0.91349 -0.12843,-2.14272 -2.44193,-3.54399 -0.6426,-0.38922 -1.26776,-0.77521 -1.38925,-0.85776 -0.17533,-0.11915 -0.2925,-0.10665 -0.56815,0.0606 -0.191,0.11589 -0.36479,0.26327 -0.38621,0.32752 -0.0453,0.13584 1.55638,1.74556 1.96242,1.9723 0.86184,0.48127 1.44442,0.96037 1.79814,1.47871 0.21956,0.32174 0.39919,0.65524 0.39919,0.74111 0,0.27023 0.35174,0.16989 0.62579,-0.1785 z m -18.777163,-0.0284 c -0.06947,-0.12981 -0.257462,-0.32195 -0.417759,-0.42698 -0.344264,-0.22557 -1.785883,-0.35741 -2.305617,-0.21085 -0.467329,0.13178 -1.110928,-0.12897 -1.429705,-0.57923 -0.537229,-0.75883 -1.24181,-1.47614 -1.432131,-1.45801 -0.359224,0.0342 -0.477098,-0.005 -0.915441,-0.30142 -0.23676,-0.16033 -0.676871,-0.38987 -0.978022,-0.51009 -0.301153,-0.12023 -0.701203,-0.36321 -0.889,-0.53997 -0.187799,-0.17676 -0.512901,-0.40631 -0.722451,-0.51012 -0.63751,-0.31582 -0.841971,-0.52217 -1.014415,-1.02377 -0.180823,-0.52598 -0.103086,-0.87522 0.312377,-1.4034 0.247267,-0.31434 1.19908,-1.05515 1.355701,-1.05515 0.0464,0 0.275493,-0.14578 0.5091,-0.32396 0.233605,-0.17818 0.424737,-0.29166 0.424737,-0.25217 0,0.0395 0.341489,-0.1006 0.758866,-0.31129 0.466266,-0.23537 0.82758,-0.51764 0.937078,-0.73208 0.43466,-0.85122 1.065335,-3.17215 1.605397,-5.90798 0.11238,-0.56929 0.01059,-0.66068 -0.539831,-0.48469 -1.075264,0.34381 -2.168867,0.5462 -3.295671,0.6099 -1.098937,0.0621 -1.351976,0.0325 -2.332491,-0.27322 -0.883169,-0.27536 -1.220227,-0.45553 -1.711004,-0.91459 -0.603756,-0.56474 -0.615137,-0.56908 -0.937759,-0.35769 -0.179622,0.11769 -0.326585,0.281 -0.326585,0.3629 0,0.0819 0.282532,0.4272 0.627848,0.76733 0.853004,0.84017 0.977274,1.17149 0.767461,2.04609 -0.09113,0.37985 -0.270376,0.86279 -0.398335,1.07321 -0.469651,0.77228 -1.593167,1.17992 -2.291653,0.83147 -0.217441,-0.10848 -0.41514,-0.19723 -0.439334,-0.19723 -0.133917,0 -0.01462,1.69026 0.146513,2.07591 0.104775,0.25076 0.1905,0.61087 0.1905,0.80025 0,0.43572 0.198527,1.06038 0.619689,1.94984 0.595205,1.25703 0.75457,1.41992 3.906242,3.99275 0.219136,0.17889 0.431802,0.32525 0.472592,0.32525 0.04079,0 0.490145,0.24507 0.998569,0.54461 0.508425,0.29953 1.124433,0.62243 1.368908,0.71755 0.244475,0.0951 0.61595,0.24503 0.8255,0.33314 0.620014,0.26068 2.323555,0.75659 4.1275,1.20152 0.611911,0.15092 1.768394,0.34136 2.195218,0.3615 0.307215,0.0145 0.337113,-0.0144 0.227408,-0.21933 z m 1.271521,-1.25246 c 0.04106,-0.4233 0.262342,-1.29016 0.491747,-1.92637 0.368559,-1.02211 0.398926,-1.20061 0.260939,-1.53373 -0.08589,-0.20736 -0.235736,-0.44305 -0.332996,-0.52377 -0.14542,-0.12069 -0.176836,-0.0673 -0.176836,0.30038 0,0.27475 -0.216629,0.88056 -0.561867,1.5713 -0.829746,1.66012 -0.886822,2.15197 -0.315965,2.72283 0.391635,0.39163 0.552799,0.23665 0.634978,-0.61064 z m 19.042002,-0.1073 c 0.25742,-0.67706 0.15439,-1.20294 -0.32409,-1.6542 -0.49167,-0.4637 -0.7044,-0.59247 -2.04848,-1.23995 -0.49991,-0.24082 -1.12754,-0.5864 -1.39473,-0.76796 -0.52521,-0.35689 -0.86589,-0.41745 -1.01264,-0.17999 -0.12949,0.20951 0.59813,0.80402 1.91462,1.56437 1.69456,0.97872 1.90056,1.19425 2.27592,2.38125 0.10422,0.32958 0.44767,0.26926 0.5894,-0.10352 z m -17.481314,-0.60418 c 0.282749,-0.59491 0.293904,-0.68259 0.127724,-1.00394 -0.100144,-0.19366 -0.223475,-0.35189 -0.27407,-0.35163 -0.21816,10e-4 -0.738167,1.65373 -0.618492,1.9656 0.124076,0.32334 0.441589,0.0701 0.764838,-0.61003 z m 4.382994,0.22031 c 0.941844,-0.31482 3.303111,-1.43247 4.214493,-1.99483 0.595597,-0.36751 2.238107,-1.57973 2.721177,-2.00832 0.20955,-0.18591 0.57435,-0.50538 0.81066,-0.70994 l 0.42966,-0.37191 -0.42717,-0.48652 c -0.40687,-0.4634 -1.38406,-2.25382 -1.38518,-2.53795 -2.5e-4,-0.0739 -0.14234,-0.4139 -0.31565,-0.75552 -0.17332,-0.34162 -0.46713,-1.05599 -0.65292,-1.5875 -0.18579,-0.5315 -0.37839,-1.02352 -0.42801,-1.09337 -0.0496,-0.0699 -0.12191,-0.2413 -0.16066,-0.381 -0.0387,-0.1397 -0.24056,-0.7112 -0.44848,-1.27 -0.207908,-0.5588 -0.450178,-1.21602 -0.538374,-1.4605 -0.0882,-0.24447 -0.207385,-0.5588 -0.264863,-0.6985 -0.05748,-0.1397 -0.221697,-0.55949 -0.364932,-0.93287 -1.018193,-2.65419 -3.123212,-4.96109 -5.144079,-5.63743 -0.498085,-0.1667 -2.223032,-0.31519 -2.75716,-0.23734 -0.04959,0.007 0.195304,0.39029 0.544202,0.85125 0.605915,0.80052 1.387458,2.30561 1.387458,2.67196 0,0.39568 -0.501486,0.0383 -0.825162,-0.5881 -0.50085,-0.96923 -1.948803,-2.65049 -2.802808,-3.25443 -1.037114,-0.73343 -1.449522,-0.85811 -2.852396,-0.86237 -0.949993,-0.003 -1.464525,0.0536 -1.778,0.1953 -0.242624,0.10965 -0.694789,0.31426 -1.00481,0.4547 l -0.563676,0.25534 0.483516,0.15958 c 0.396051,0.1307 0.5024,0.12901 0.58792,-0.009 0.143087,-0.23152 0.657415,0.0289 1.968728,0.99686 1.455354,1.07428 2.344602,2.20747 2.892329,3.68577 0.679046,1.83273 0.944471,3.26734 1.027416,5.55314 0.148915,4.10379 0.202428,4.48493 1.070905,7.62757 0.18918,0.68456 0.735917,1.65402 1.669095,2.9596 1.162224,1.62602 1.479042,1.96673 1.736837,1.86781 0.111794,-0.0429 0.638265,-0.22341 1.169934,-0.40112 z m -10.168,-0.26446 c -0.174171,-0.63079 -0.01564,-1.78531 0.3194,-2.3261 0.150849,-0.24349 0.331421,-0.53536 0.401271,-0.6486 0.06985,-0.11323 0.285922,-0.4443 0.480159,-0.73571 0.194237,-0.2914 0.385733,-0.69269 0.425544,-0.89175 0.09838,-0.49192 -0.171584,-0.63459 -0.337061,-0.17813 -0.193981,0.53508 -0.421487,0.97066 -0.611555,1.17088 -1.092463,1.15079 -1.626285,2.44888 -1.36263,3.31351 0.185785,0.60926 0.301501,0.762 0.577301,0.762 0.210818,0 0.222405,-0.0502 0.107571,-0.4661 z m 2.498763,0.18035 c 0.03059,-0.0873 0.07281,-0.30162 0.09382,-0.47625 0.02101,-0.17462 0.262647,-0.71755 0.536964,-1.2065 0.452061,-0.80577 0.503807,-0.99303 0.552721,-2.00025 0.04675,-0.96253 0.02639,-1.11125 -0.152067,-1.11125 -0.149963,0 -0.206034,0.11844 -0.206034,0.43521 0,0.27581 -0.255324,0.93864 -0.697114,1.80975 -0.75374,1.4862 -0.763064,1.52295 -0.566209,2.23179 0.131718,0.4743 0.332082,0.61957 0.437914,0.3175 z m -1.249069,-0.43481 c -0.114794,-0.70738 0.128036,-1.55209 0.669073,-2.32744 0.459135,-0.65797 0.768098,-1.4354 0.769696,-1.93675 0.0013,-0.42046 -0.224168,-0.22082 -0.573852,0.508 -0.192701,0.40164 -0.474181,0.9017 -0.62551,1.11125 -0.68787,0.95252 -0.948759,1.92819 -0.709466,2.65325 0.210991,0.63932 0.574111,0.6329 0.470059,-0.008 z m 23.131076,-0.82884 c 0.0838,-0.0838 0.1524,-0.33103 0.1524,-0.54936 0,-0.58951 -0.43637,-0.92335 -1.47117,-1.1255 -1.14461,-0.22359 -2.44068,-0.66273 -2.87344,-0.97357 -0.3555,-0.25535 -0.8076,-0.33976 -0.67557,-0.12613 0.0411,0.0666 0.88748,0.53029 1.88074,1.03049 1.25926,0.63414 1.9405,1.05872 2.25044,1.40255 0.49277,0.54665 0.51921,0.55891 0.7366,0.34152 z m -25.75012,-0.6897 c 0.0837,-0.2536 0.331583,-0.66794 0.550859,-0.92075 0.832283,-0.95956 1.362546,-1.8879 1.40508,-2.4599 0.01675,-0.22526 -0.2588,-0.10197 -0.435513,0.19486 -0.105822,0.17776 -0.578167,0.8872 -1.049655,1.57654 -0.620896,0.90778 -0.85725,1.36596 -0.85725,1.66184 0,0.5452 0.198089,0.51824 0.386479,-0.0526 z m -1.021479,-0.56862 c 0,-0.13177 0.387825,-0.76838 0.861832,-1.41468 0.880973,-1.2012 1.230959,-1.82684 1.070129,-1.91298 -0.410131,-0.21968 -0.560323,-0.17956 -0.948116,0.25327 -0.22679,0.25312 -0.527149,0.58001 -0.667464,0.72642 -0.61168,0.63823 -1.185775,1.44464 -1.341337,1.88411 -0.16144,0.45608 -0.153293,0.49039 0.205321,0.8647 l 0.373431,0.38978 0.223102,-0.27552 c 0.122706,-0.15153 0.223102,-0.38333 0.223102,-0.5151 z m -1.784792,-0.72306 c 0.08277,-0.30738 0.419062,-0.79034 0.925645,-1.32936 1.157945,-1.23209 1.367147,-1.49087 1.367147,-1.69115 0,-0.41112 -0.110237,-0.32761 -2.224019,1.68473 -0.740068,0.70455 -0.987899,1.13128 -0.829212,1.42779 0.118422,0.22127 0.308122,0.35501 0.540086,0.38074 0.0497,0.006 0.148855,-0.20722 0.220353,-0.47275 z m -7.982047,-1.58826 c -0.411815,-0.82815 -0.896906,-2.53211 -0.899662,-3.16021 -8.89e-4,-0.18797 -0.06222,-0.37929 -0.136445,-0.42516 -0.08527,-0.0527 -0.124363,-0.61296 -0.106197,-1.522 0.02841,-1.42142 0.02433,-1.44389 -0.341305,-1.88158 -0.562191,-0.673 -0.93195,-0.77539 -0.706609,-0.19567 0.117643,0.30265 0.348061,1.24878 0.472721,1.94106 0.03654,0.20289 0.116196,0.46189 0.177023,0.57554 0.06083,0.11366 0.140365,0.51915 0.176752,0.90111 0.03639,0.38195 0.155349,1.02585 0.264359,1.4309 0.109011,0.40504 0.198202,0.84997 0.198202,0.98872 0,0.13875 0.07828,0.37884 0.173965,0.53355 0.09568,0.1547 0.24708,0.65276 0.336441,1.10678 0.208208,1.05787 0.231857,1.09218 0.540229,0.78381 l 0.257813,-0.25781 z m 6.58881,0.99951 c 0.107721,-0.28333 1.051406,-1.24639 2.161942,-2.20633 0.639907,-0.55313 0.39841,-0.62114 -0.398792,-0.1123 -0.374341,0.23893 -0.966371,0.58005 -1.315621,0.75803 -1.15015,0.58614 -1.470917,1.11346 -0.996316,1.63788 0.281088,0.3106 0.408115,0.29271 0.548787,-0.0773 z m 28.541158,-0.42072 c 0.24823,-0.21551 1.15537,-1.89218 1.24671,-2.30431 0.0249,-0.11217 0.10108,-0.37539 0.16938,-0.58494 0.56348,-1.72881 0.53999,-4.41707 -0.0544,-6.223 -0.41587,-1.26355 -0.60455,-1.63971 -1.33394,-2.65943 -0.70002,-0.97864 -1.0069,-1.27884 -1.0069,-0.98497 0,0.0562 -0.38576,0.39514 -0.85725,0.75329 -1.20431,0.91482 -2.29801,1.2514 -4.45381,1.37063 -0.92067,0.0509 -1.67394,0.14528 -1.67394,0.20971 0,0.18178 0.72801,2.04653 1.42898,3.66027 0.86755,1.99721 2.29488,4.52412 2.91899,5.1677 0.52923,0.54574 1.62363,1.20201 2.63703,1.58131 0.73157,0.27382 0.68039,0.2731 0.97913,0.0137 z M 89.398319,138.2772 c 0.03701,-0.0599 0.01046,-0.44564 -0.05897,-0.85725 -0.06944,-0.41161 -0.18416,-1.69135 -0.254931,-2.84388 -0.207349,-3.37672 -0.441974,-6.07991 -0.535857,-6.17379 -0.08743,-0.0874 -1.908668,0.55853 -2.776685,0.98485 l -0.462646,0.22722 -0.08156,1.05211 c -0.154723,1.99581 -0.357714,2.88341 -1.099089,4.80586 -0.397618,1.03106 -0.412179,1.38975 -0.05642,1.38975 0.10731,0 0.491274,0.14288 0.853255,0.3175 0.361979,0.17463 0.758377,0.3175 0.880882,0.3175 0.122504,0 0.258057,0.0572 0.301226,0.127 0.04317,0.0699 0.218768,0.127 0.390219,0.127 0.17145,0 0.410965,0.0513 0.532255,0.11396 0.169601,0.0876 1.51361,0.39555 2.213281,0.50706 0.04827,0.008 0.118035,-0.035 0.155043,-0.0949 z m -14.6587,-5.1609 c 0.486661,-0.25167 0.764418,-0.66899 0.758901,-1.14024 -0.006,-0.50942 -0.156472,-0.74835 -1.161088,-1.84317 l -0.848088,-0.92424 -0.392707,0.55714 c -0.215987,0.30642 -0.562846,0.67113 -0.770796,0.81046 -0.20795,0.13933 -0.378053,0.33905 -0.378008,0.44382 9.7e-5,0.22383 2.050588,2.286 2.273055,2.286 0.08346,0 0.316889,-0.0854 0.518731,-0.18977 z m -2.636354,-3.91813 c 0.832346,-0.89218 0.984999,-1.17203 1.06694,-1.95599 0.09535,-0.91227 -0.01879,-1.5413 -0.239615,-1.32048 -0.401791,0.40179 -0.475569,0.16821 -0.475569,-1.50563 0,-1.59379 -0.0093,-1.651 -0.267341,-1.651 -0.242067,0 -0.259976,-0.051 -0.189453,-0.53975 0.284099,-1.96883 0.185171,-4.12414 -0.212767,-4.6355 -0.179212,-0.23029 -0.986791,-0.19336 -1.403346,0.0642 -0.352513,0.21794 -0.359194,0.24456 -0.406184,1.61858 -0.02628,0.76835 -0.0734,1.53988 -0.104718,1.7145 -0.24786,1.38208 -0.373536,2.02714 -0.465504,2.38931 -0.05877,0.23144 -0.05925,0.57434 -0.001,0.762 0.232687,0.7504 0.764373,3.17606 0.764373,3.48722 0,0.18232 0.05715,0.3668 0.127,0.40997 0.06985,0.0432 0.127,0.31395 0.127,0.60173 0,0.28778 0.06522,0.72732 0.144934,0.97675 0.07971,0.24944 0.165797,0.53056 0.191295,0.62473 0.04873,0.17995 0.612657,-0.25667 1.344015,-1.04061 z m 38.832755,0.5738 c 0,-0.0578 0.54293,-0.65156 1.2065,-1.31946 0.66358,-0.6679 1.2065,-1.31017 1.2065,-1.42725 0,-0.68815 -1.17417,-1.84719 -1.87131,-1.84719 -0.12811,0 -0.33168,0.16719 -0.45239,0.37153 -0.12071,0.20434 -0.56165,0.71907 -0.97988,1.14384 -0.41823,0.42477 -0.76042,0.82622 -0.76042,0.89211 0,0.11026 0.44845,0.84202 1.03148,1.68313 0.13119,0.18926 0.23852,0.40357 0.23852,0.47625 0,0.0727 0.0857,0.13214 0.1905,0.13214 0.10478,0 0.1905,-0.0473 0.1905,-0.1051 z M 81.651774,129.3643 c 0.622739,-0.0713 1.565714,-0.24744 2.095501,-0.39133 0.529785,-0.14389 1.134696,-0.30714 1.344246,-0.36278 0.755997,-0.20072 2.459723,-0.85189 2.782861,-1.06362 l 0.33027,-0.2164 -0.270426,-0.53629 c -0.148735,-0.29496 -0.287886,-0.55601 -0.309226,-0.58012 -0.02134,-0.0241 -0.551458,0.10702 -1.178043,0.29138 -1.875792,0.55191 -4.0742,0.88019 -4.842335,0.72309 -0.695269,-0.14219 -0.424992,-0.3327 0.595679,-0.41986 1.341665,-0.11457 1.630091,-0.18551 3.257468,-0.80125 0.893248,-0.33797 1.426211,-0.6084 1.45112,-0.73629 0.04423,-0.22709 -0.654145,-1.0475 -1.383238,-1.62495 -0.354803,-0.28101 -0.744407,-0.43105 -1.474192,-0.56772 -2.666474,-0.49937 -3.705572,-0.92455 -5.104309,-2.0886 l -0.769221,-0.64015 -0.20347,0.39347 c -0.208397,0.403 -0.205088,1.92203 0.0063,2.87946 0.103057,0.46683 -0.08802,0.55052 -0.516688,0.22629 -0.342228,-0.25885 -0.383668,-0.24795 -0.830029,0.21821 -0.792927,0.82811 -1.058326,1.75578 -0.742473,2.59523 0.07399,0.19664 0.362036,0.70794 0.640111,1.13622 0.428716,0.6603 0.61948,0.82981 1.254593,1.11483 0.652347,0.29276 1.641781,0.51882 2.479275,0.56644 0.1397,0.008 0.763514,-0.0439 1.386253,-0.11526 z m 34.054346,-0.6416 c 0.80303,-0.37672 1.10217,-0.88175 1.17263,-1.97973 0.0328,-0.51143 0.10784,-0.92988 0.16671,-0.92988 0.0589,0 0.1957,0.17145 0.30406,0.381 0.10837,0.20955 0.23842,0.38074 0.28901,0.38041 0.0506,-3.8e-4 0.26344,-0.15784 0.47299,-0.35003 0.20955,-0.1922 0.58103,-0.5136 0.8255,-0.71422 1.86667,-1.53183 3.49634,-3.44859 3.81772,-4.49025 0.38651,-1.25279 0.3195,-3.02231 -0.16528,-4.3644 -0.49074,-1.35857 -1.67716,-2.11563 -3.65244,-2.33063 -1.39753,-0.15211 -2.56968,0.55799 -3.26977,1.98085 -0.5034,1.0231 -0.48079,1.64902 0.10323,2.85776 0.47903,0.99146 0.4975,1.06381 0.32894,1.2887 -0.0954,0.12734 -0.20297,0.0868 -0.48426,-0.18272 -0.32988,-0.31604 -0.37548,-0.32782 -0.52011,-0.13431 -0.40979,0.54828 -0.61958,-0.27234 -0.93481,-3.65666 -0.0984,-1.05642 -0.29226,-1.3335 -0.93299,-1.3335 -0.83535,0 -1.38712,0.8201 -2.15045,3.19623 -0.14176,0.44128 -0.51481,2.5112 -0.51956,2.88283 -0.002,0.12152 0.10249,0.15303 0.34703,0.1051 0.46383,-0.0909 1.55575,0.14684 1.55575,0.33874 0,0.0835 -0.40029,0.25496 -0.88953,0.38099 -0.71066,0.18307 -0.98902,0.33064 -1.38421,0.73379 -0.50306,0.51319 -0.72646,1.13751 -0.56701,1.58452 0.13603,0.38134 0.44736,0.6838 0.70386,0.6838 0.18662,0 0.2205,-0.0647 0.16005,-0.30553 -0.0577,-0.22971 -0.0168,-0.32453 0.16472,-0.38214 0.30583,-0.0971 1.44863,0.11596 1.90729,0.35553 1.23821,0.64675 1.96234,2.57955 1.30978,3.49598 -0.2935,0.41219 -0.19608,0.57515 0.46018,0.76977 0.41187,0.12214 0.66416,0.0743 1.38097,-0.262 z m -13.54387,-0.30469 c 1.75319,-0.23123 2.28013,-0.36856 3.18257,-0.82945 1.12918,-0.57669 2.02762,-1.81731 2.03329,-2.80771 0.005,-0.87097 -0.9376,-2.19867 -1.46666,-2.06589 -0.38985,0.0978 -0.4323,-0.0415 -0.23626,-0.77537 0.35658,-1.3349 0.094,-2.60874 -0.64931,-3.1497 -0.30803,-0.22418 -0.31646,-0.22292 -0.42665,0.0635 -0.34729,0.9027 -2.44385,2.6146 -3.87243,3.16194 -0.3571,0.13682 -0.763578,0.30056 -0.903278,0.36387 -0.349374,0.15832 -1.002738,0.34876 -1.898134,0.55324 -0.415325,0.0949 -0.772474,0.22459 -0.793665,0.28831 -0.02119,0.0637 0.210416,0.43295 0.514684,0.82054 0.635368,0.80934 0.987396,0.9583 2.801573,1.18549 1.88801,0.23643 1.37556,0.68694 -0.634655,0.55793 -0.92646,-0.0594 -1.141046,0.0325 -0.82185,0.35223 0.06625,0.0664 0.379612,0.64929 0.69636,1.2954 0.413785,0.84406 0.641345,1.17475 0.808375,1.17475 0.12785,0 0.87757,-0.0851 1.66604,-0.18908 z m -35.59681,-0.28717 c -0.04246,-0.19209 -0.135694,-0.63299 -0.207193,-0.97979 -0.0715,-0.34679 -0.186303,-0.68683 -0.255114,-0.75565 -0.262071,-0.26207 -0.105143,-0.58367 0.478137,-0.97989 0.529218,-0.35949 1.475961,-1.30617 1.501313,-1.5012 0.005,-0.0383 0.07047,-0.21259 0.145524,-0.38722 0.350509,-0.81551 0.723698,-3.06287 0.695201,-4.18652 -0.05,-1.97158 -0.591818,-3.24959 -1.601019,-3.77643 -0.559133,-0.29188 -2.062582,-0.25739 -2.686918,0.0616 -1.297253,0.6629 -2.016714,2.14393 -2.20342,4.53581 -0.170595,2.18552 0.187755,3.93577 1.150251,5.61803 0.470648,0.82261 1.661328,2.04508 2.36076,2.4238 0.639917,0.34649 0.713212,0.33794 0.622478,-0.0726 z m 31.21874,-6.0837 c 1.824611,-0.56566 2.97348,-1.08312 4.22365,-1.90237 1.695,-1.11075 2.70519,-3.31769 2.70519,-5.90998 0,-1.44427 -0.24537,-2.40075 -0.98822,-3.8522 -1.53815,-3.00538 -4.519374,-4.38599 -9.45616,-4.37917 -2.623611,0.004 -3.432706,0.14991 -9.050119,1.6363 -0.670993,0.17755 -2.842093,1.25592 -3.73589,1.85559 -0.82239,0.55177 -1.703801,1.33291 -2.210301,1.95885 -0.838036,1.03568 -1.483309,2.88993 -1.483309,4.26243 0,0.74061 0.326015,2.33883 0.51683,2.53365 0.06499,0.0664 0.11817,0.22838 0.11817,0.36006 0,0.36435 1.929914,2.18116 2.73574,2.57542 l 0.697747,0.34137 0.601006,-0.33242 c 1.4539,-0.80417 2.429166,-1.23025 3.098667,-1.35377 1.248447,-0.23032 2.738283,0.15157 3.914085,1.00332 0.52672,0.38155 0.542139,0.38427 1.758817,0.31036 1.649433,-0.10021 2.760692,0.10504 3.957939,0.73102 1.041634,0.54462 1.30721,0.56114 2.596158,0.16154 z m -5.190587,-2.40262 c -0.406128,-0.40613 -0.171979,-0.98635 0.372009,-0.92185 0.483917,0.0574 0.638767,0.49324 0.303202,0.85342 -0.298564,0.32048 -0.4117,0.33194 -0.675211,0.0684 z m 1.641929,-0.17327 c -0.318242,-0.0608 -0.387544,-0.14052 -0.420728,-0.48405 -0.03216,-0.33295 0.01921,-0.43814 0.269684,-0.55226 0.228073,-0.10392 0.380411,-0.10298 0.57948,0.004 0.214785,0.11495 0.270064,0.10866 0.270064,-0.0307 0,-0.27967 0.433575,-0.59565 0.817338,-0.59565 0.269345,0 0.334623,-0.0475 0.275863,-0.20059 -0.129232,-0.33677 0.0522,-0.77573 0.382904,-0.92641 0.269904,-0.12298 0.356966,-0.0995 0.625231,0.16879 0.171415,0.17142 0.311664,0.41971 0.311664,0.55176 0,0.31235 -0.390159,0.66045 -0.74025,0.66045 -0.20072,0 -0.27628,0.0777 -0.277694,0.28575 -10e-4,0.15716 -0.04393,0.34839 -0.09525,0.42495 -0.14705,0.21937 -0.772022,0.32483 -1.048412,0.17691 -0.209798,-0.11228 -0.251394,-0.0943 -0.251394,0.10837 0,0.34402 -0.255623,0.49376 -0.6985,0.40918 z m -3.2131,-0.16056 c -0.412136,-0.41213 0.09241,-1.26739 0.590434,-1.00086 0.373751,0.20003 0.465997,0.61602 0.20143,0.90836 -0.252314,0.2788 -0.568614,0.31575 -0.791864,0.0925 z m -1.559458,-0.55822 c -0.14019,-0.16892 -0.136686,-0.25869 0.02107,-0.53975 0.147485,-0.26276 0.285531,-0.33713 0.625799,-0.33713 0.359468,0 0.457793,0.0603 0.556728,0.34166 0.08592,0.24431 0.07331,0.39811 -0.04424,0.53975 -0.213998,0.25785 -0.943966,0.255 -1.159356,-0.005 z m -1.387268,-0.87727 c -0.08713,-0.10499 -0.158425,-0.33341 -0.158425,-0.50761 0,-0.43798 0.251099,-0.6985 0.67323,-0.6985 0.680965,0 1.010018,0.74632 0.523271,1.18682 -0.289665,0.26214 -0.828221,0.27215 -1.038076,0.0193 z m 6.032826,-1.84203 c -1.834922,-0.22892 -2.430246,-0.41034 -2.996296,-0.9131 -0.476088,-0.42286 -0.623267,-0.76766 -0.622729,-1.45888 6.35e-4,-0.83029 0.356813,-1.38471 1.101038,-1.71392 0.863518,-0.38198 1.638483,-0.27831 2.964634,0.39658 1.294038,0.65855 1.860346,1.04814 2.816784,1.93781 1.097244,1.02065 1.186624,1.55054 0.316051,1.87371 -0.477869,0.1774 -1.441803,0.14449 -3.579482,-0.1222 z m 3.467396,-0.72646 c 0.02744,-0.18242 -0.150105,-0.39589 -0.622271,-0.74818 -1.086005,-0.81029 -1.682899,-1.17867 -2.038206,-1.2579 -0.184845,-0.0412 -0.441884,-0.19185 -0.571201,-0.33474 -0.75916,-0.83886 -2.291711,-0.81359 -2.895009,0.0477 -0.109015,0.15564 -0.198209,0.51965 -0.198209,0.80891 0,0.71789 0.466106,1.19556 1.166624,1.19556 0.273345,0 0.651314,0.0781 0.839933,0.17353 0.535856,0.27114 1.288242,0.37155 1.495455,0.19958 0.139205,-0.11553 0.267164,-0.11423 0.556621,0.006 0.504099,0.20881 1.658755,0.35494 1.973867,0.24982 0.1397,-0.0466 0.271278,-0.1996 0.292396,-0.33998 z m -11.59158,-1.95825 c -0.314334,-0.37356 -0.34283,-0.48921 -0.297183,-1.20608 0.06305,-0.99011 0.330882,-1.34521 0.972759,-1.2897 0.631324,0.0546 0.971607,0.55714 0.971607,1.43491 0,1.30605 -0.93446,1.9079 -1.647183,1.06087 z m 0.797506,-1.60062 c -0.05155,-0.26769 -0.276946,-0.25082 -0.334384,0.025 -0.02396,0.11506 0.04605,0.19721 0.168061,0.19721 0.130805,0 0.193095,-0.0832 0.166323,-0.22225 z m 9.809877,0.60995 c -0.136015,-0.13602 -0.312907,-0.49095 -0.393094,-0.78873 -0.405242,-1.50496 0.951593,-2.56667 1.759724,-1.37697 0.25535,0.37592 0.291435,0.54977 0.23388,1.12675 -0.112321,1.12599 -0.961944,1.67752 -1.60051,1.03895 z m 0.731124,-1.75295 c -0.05155,-0.26769 -0.276946,-0.25082 -0.334385,0.025 -0.02396,0.11506 0.04605,0.19721 0.168062,0.19721 0.130805,0 0.193095,-0.0832 0.166323,-0.22225 z m -32.001514,3.77472 c 0.232547,-0.0557 0.451841,-0.13029 0.487319,-0.16577 0.09216,-0.0922 -0.435215,-2.71716 -0.625758,-3.11471 -0.208541,-0.43511 -0.512244,-0.48011 -0.982138,-0.14551 -0.465756,0.33165 -0.486147,0.67807 -0.119639,2.03252 0.340822,1.25953 0.351888,1.30541 0.363188,1.50584 0.0064,0.11341 0.08571,0.14097 0.231967,0.0806 0.122238,-0.0504 0.412515,-0.13729 0.645061,-0.19298 z m -2.517836,-2.83702 c 0.0015,-1.2798 1.942201,-2.25066 2.838481,-1.42001 0.184824,0.17129 0.336044,0.38717 0.336044,0.47974 0,0.0926 0.08728,0.29292 0.193963,0.44523 l 0.193964,0.27692 0.663287,-0.38905 c 0.364807,-0.21398 0.750564,-0.48304 0.857238,-0.59792 0.669501,-0.72097 1.097123,-1.80403 1.083395,-2.74397 -0.0071,-0.48891 -0.02527,-0.50911 -0.642347,-0.7153 -3.15783,-1.05521 -7.692748,-0.27546 -9.764278,1.67891 l -0.723423,0.6825 0.477647,0.762 c 0.262706,0.4191 0.593613,0.86539 0.73535,0.99176 0.452105,0.40307 1.622431,0.86841 2.412896,0.9594 1.132868,0.13041 1.337213,0.0678 1.337783,-0.41021 z m 15.192375,-0.0512 c 0.641841,-0.84424 2.174866,-2.27513 3.058513,-2.85474 1.156461,-0.75856 1.65435,-1.01409 3.656138,-1.87641 0.1397,-0.0602 0.76835,-0.25564 1.397,-0.43435 0.62865,-0.17872 1.31445,-0.37571 1.524,-0.43776 0.20955,-0.062 0.723901,-0.17605 1.143001,-0.25334 0.4191,-0.0773 1.216571,-0.22941 1.772158,-0.33804 1.459974,-0.28546 5.702591,-0.2382 7.181342,0.08 1.819114,0.39144 2.052695,0.4632 3.174998,0.97539 0.92865,0.4238 1.5623,0.87424 2.4539,1.74437 0.63082,0.61563 0.7882,0.70934 1.07175,0.63817 0.8048,-0.20199 1.80877,-1.32511 1.80781,-2.02233 -0.001,-1.04696 -1.50907,-2.39089 -3.61896,-3.22604 -2.29447,-0.90821 -4.893996,-1.29516 -8.700921,-1.29516 -2.980116,0 -4.268907,0.13874 -6.475578,0.69709 -5.501861,1.39213 -10.238622,3.99693 -11.986258,6.59138 -0.586535,0.87074 -0.431658,1.57032 0.429258,1.93893 0.174625,0.0748 0.509458,0.21751 0.744074,0.31721 0.739758,0.31437 0.974932,0.27235 1.367775,-0.24437 z m -17.919434,-4.70219 c 0.421254,-0.21043 1.307079,-0.53094 1.968501,-0.71224 1.000102,-0.27413 1.473338,-0.32964 2.810661,-0.32972 0.978746,-5e-5 1.997644,0.0797 2.6035,0.20381 1.707243,0.34972 1.693922,0.34854 1.693922,0.15015 0,-0.27108 -0.502973,-0.68024 -1.0795,-0.87816 -0.693232,-0.23798 -4.808573,-0.24068 -5.7785,-0.004 -2.252156,0.55005 -4.837016,1.99671 -5.014915,2.80668 -0.151028,0.68763 0.04964,0.66776 1.054623,-0.1044 0.536685,-0.41235 1.320455,-0.9219 1.741708,-1.13233 z M 57.59602,106.4456 c 0.08695,-0.10477 0.238621,-0.1905 0.337036,-0.1905 0.09842,0 0.209879,-0.0806 0.247697,-0.17919 0.124652,-0.32484 2.113506,-1.21327 3.415767,-1.52585 2.422937,-0.58156 4.525444,-0.71104 6.139551,-0.37807 l 0.424551,0.0876 -0.06692,-1.00248 c -0.230095,-3.44681 -0.23182,-4.053125 -0.01992,-7.003318 0.22873,-3.18453 0.207337,-3.460672 -0.268106,-3.460672 -0.352423,0 -0.808636,1.613479 -1.054359,3.728927 -0.145866,1.255768 -0.333709,1.649697 -0.607864,1.274768 -0.11372,-0.155522 -0.165432,-0.69341 -0.165432,-1.72078 0,-2.294357 -0.381198,-4.343763 -0.763957,-4.107204 -0.364293,0.225144 -0.54005,2.274633 -0.380338,4.435092 0.09798,1.325461 0.07299,1.725552 -0.107543,1.721253 -0.222857,-0.0053 -0.410376,-0.244987 -0.453025,-0.579037 -0.05408,-0.423589 -0.45322,-1.927208 -0.907721,-3.419519 -0.170189,-0.5588 -0.309206,-1.112639 -0.308925,-1.230754 2.54e-4,-0.118115 -0.04926,-0.245514 -0.110088,-0.283107 -0.06083,-0.03759 -0.145393,-0.242342 -0.187924,-0.454993 -0.0863,-0.431489 -0.428419,-0.640512 -0.601352,-0.367402 -0.147053,0.232241 -0.142806,2.337733 0.0059,2.907756 0.06376,0.244475 0.289979,1.07315 0.502701,1.8415 0.466158,1.683754 0.470176,1.743684 0.113408,1.691583 -0.239859,-0.03503 -0.388672,-0.370617 -1.087139,-2.45161 -0.729294,-2.172829 -1.240824,-3.240473 -1.552579,-3.240473 -0.06088,0 -0.175354,0.195941 -0.25439,0.435424 -0.148044,0.448575 -0.105245,0.821067 0.336659,2.930076 0.10245,0.48895 0.245825,1.17475 0.318611,1.524 0.07278,0.34925 0.183052,0.766277 0.245035,0.926726 0.137978,0.357164 0.137968,0.424259 -9.5e-5,0.642137 -0.190698,0.300942 -0.649206,-0.05071 -0.649206,-0.49791 0,-0.209336 -0.08878,-0.593087 -0.197286,-0.852782 -0.108507,-0.259693 -0.190594,-0.487606 -0.182415,-0.506472 0.03548,-0.08184 -0.565958,-1.941331 -0.868102,-2.683956 -0.181986,-0.44729 -0.500009,-1.068591 -0.70672,-1.380666 -0.347035,-0.523927 -0.388738,-0.549771 -0.544158,-0.337221 -0.09257,0.126605 -0.168319,0.384462 -0.168319,0.573014 0,0.436175 0.55994,2.630946 0.904579,3.54563 0.284047,0.753874 0.329237,0.868809 0.733313,1.865044 0.14691,0.362199 0.267108,0.798997 0.267108,0.970662 0,0.475794 -0.307794,0.499374 -0.535902,0.04106 -0.331559,-0.666174 -0.734065,-1.597955 -0.73463,-1.700628 -2.54e-4,-0.05315 -0.143168,-0.377783 -0.3175,-0.721409 -0.174332,-0.343625 -0.316968,-0.668517 -0.316968,-0.721982 0,-0.05346 -0.06665,-0.258092 -0.148109,-0.454726 -0.08146,-0.196635 -0.158063,-0.386093 -0.17023,-0.421018 -0.310045,-0.88997 -1.025033,-1.712342 -1.372741,-1.578913 -0.158866,0.06096 -0.194063,0.194394 -0.147995,0.561049 0.08169,0.650185 0.498344,2.016378 0.974888,3.196624 0.378597,0.937669 0.405414,1.452125 0.07037,1.34999 -0.08727,-0.02661 -0.358707,-0.454269 -0.603182,-0.950364 -0.244475,-0.496095 -0.781767,-1.416825 -1.193981,-2.046065 -0.973962,-1.486743 -1.60002,-1.813146 -1.60002,-0.834188 0,0.479011 0.646711,1.964578 1.016,2.333867 0.09244,0.09244 1.016,1.980748 1.016,2.077309 0,0.293958 -0.473793,-0.06551 -1.338883,-1.015837 -1.142683,-1.255268 -1.943467,-1.893921 -2.134807,-1.702582 -0.193707,0.193707 0.0546,0.632887 1.583162,2.80011 2.384552,3.380867 3.161428,4.679197 3.533633,5.905497 0.0848,0.2794 0.176629,0.57944 0.204056,0.66675 0.06698,0.21324 0.246285,0.20027 0.43884,-0.0318 z m 23.812501,-2.40671 c 0.2794,-0.12481 0.67945,-0.30286 0.889,-0.39567 1.651497,-0.73145 5.572754,-1.85285 7.071038,-2.02218 0.30193,-0.0341 1.006163,-0.12547 1.564963,-0.203 0.917463,-0.12729 6.050764,-0.10836 6.731,0.0248 0.236897,0.0464 0.251745,-0.01 0.220498,-0.83467 -0.01843,-0.48642 -0.07725,-0.92815 -0.130715,-0.981617 -0.172849,-0.172848 -2.087271,-0.596782 -3.386223,-0.749854 -1.177289,-0.138733 -3.528219,-0.104789 -5.065929,0.07315 -0.940197,0.108795 -3.662964,0.774013 -4.464632,1.090781 -0.1397,0.0552 -0.5969,0.22317 -1.016,0.37325 -0.992632,0.35549 -2.725204,1.21579 -3.152758,1.5655 -0.331435,0.27108 -0.334563,0.28846 -0.209653,1.16419 0.145683,1.02136 0.210831,1.24259 0.345264,1.17241 0.05288,-0.0276 0.324747,-0.15231 0.604147,-0.27712 z m -0.225905,-3.4401 c 1.802928,-1.094584 4.309668,-2.053745 6.434173,-2.461928 3.337783,-0.641291 6.545116,-0.616392 9.273037,0.07198 0.548585,0.138432 0.773087,0.150603 0.838084,0.04543 0.04883,-0.07901 0.12641,-0.954332 0.172399,-1.945165 0.111773,-2.40807 0.285279,-4.041643 0.868901,-8.180789 0.180346,-1.279052 0.126525,-1.403802 -0.952751,-2.208348 -1.418651,-1.057533 -2.519861,-1.611543 -3.85354,-1.938687 -2.915481,-0.71515 -4.650169,-0.909239 -6.394898,-0.715505 -2.039683,0.226486 -3.861855,0.657003 -5.14375,1.215293 -0.209687,0.09132 -0.644525,0.278895 -0.966306,0.416826 -1.794543,0.769231 -4.6347,2.880938 -5.409009,4.021694 -0.512307,0.754759 -0.500526,0.816079 0.580576,3.022077 1.064923,2.172984 1.492637,3.180051 2.33036,5.486923 0.444324,1.223548 1.1003,3.378829 1.111287,3.651249 0.0067,0.16631 0.140519,0.1084 1.111437,-0.48106 z"
       id="path11692"
       sodipodi:nodetypes="cccssssssscsssssssscssssssscsssssscssscssssssssssssssssssssssssssssssscssssssssssscssssssssssssssssssssscssscsssssssscsscscssccssssssscsssscscsscscscssssssssssssssscccsccssscsscsscssssscscscssssssssssssssssscsssssssssssssscssssssssssssssssssssssssssccssccssssssssssssssssssssssssssssssscsssscsssssssssssssssssssssssssscsssscsscssssssssscssssscccsccsssssscccssscssssscsssscsssssssssscscssssssssssssssssscssssssssssssssssssssssssssssssssssssssssssssssssssscsscssscscssccssssscsssscsscscssssssccsssssssssssssssssssscscsssccsssscsssssssssssssssssscssssssscsscsssssssssssscssssssssccssssssssssccssssscssssscsscssscscssssscsssssssssscsssssccssssssssssscssscsssssssssscssssssscccsssscssssssscssssscssssssccssssssscssssscssscsssscssssssscsssccsssscsssscsscsssssscsscccsscssssssscsssccsssscssssccsssssssssssssscsssssssscsccssssscssccssssscssccsssssscsscssscssccscssscsssscsssssscsssscsscssssscsscccscsscssssssssssscsssssssssssssssssssssssscsssssssssssssssssscccssssssssscsssccsssssssssssssssss" />
  </g>
</svg>
