<?xml version="1.0" encoding="UTF-8" standalone="no"?>
<!-- Created with Inkscape (http://www.inkscape.org/) -->

<svg
   width="210mm"
   height="297mm"
   viewBox="0 0 210 297"
   version="1.1"
   id="svg1233"
   inkscape:version="1.1 (c68e22c387, 2021-05-23)"
   sodipodi:docname="Fledermaus.svg"
   xmlns:inkscape="http://www.inkscape.org/namespaces/inkscape"
   xmlns:sodipodi="http://sodipodi.sourceforge.net/DTD/sodipodi-0.dtd"
   xmlns="http://www.w3.org/2000/svg"
   xmlns:svg="http://www.w3.org/2000/svg">
  <sodipodi:namedview
     id="namedview1235"
     pagecolor="#ffffff"
     bordercolor="#666666"
     borderopacity="1.0"
     inkscape:pageshadow="2"
     inkscape:pageopacity="0.0"
     inkscape:pagecheckerboard="0"
     inkscape:document-units="mm"
     showgrid="false"
     inkscape:zoom="0.69397447"
     inkscape:cx="334.30625"
     inkscape:cy="561.25984"
     inkscape:window-width="1920"
     inkscape:window-height="1017"
     inkscape:window-x="-8"
     inkscape:window-y="-8"
     inkscape:window-maximized="1"
     inkscape:current-layer="layer1" />
  <defs
     id="defs1230" />
  <g
     inkscape:label="Ebene 1"
     inkscape:groupmode="layer"
     id="layer1">
    <path
       style="fill:none;stroke-width:0.6;stroke:#000000;stroke-opacity:1;stroke-miterlimit:4;stroke-dasharray:none"
       d="m 36.689639,206.56443 c -0.14127,-0.22379 -0.31517,-0.60533 -0.38644,-0.84787 -0.13827,-0.47055 -1.269,-2.53647 -1.90467,-3.47997 -0.21105,-0.31325 -0.69827,-1.06731 -1.08271,-1.67569 -1.38724,-2.1953 -3.55021,-4.63732 -5.42582,-6.12581 -1.57462,-1.24963 -4.19844,-3.00603 -4.4906,-3.00603 -0.0902,0 -0.42447,-0.19219 -0.74286,-0.42708 -0.31838,-0.2349 -0.98865,-0.52365 -1.48947,-0.64166 -0.500833,-0.11802 -1.228102,-0.35599 -1.616157,-0.52883 -0.975009,-0.43426 -1.083931,-0.45858 -3.96875,-0.88597 -2.025236,-0.30004 -2.97983,-0.35569 -4.585817,-0.26732 -2.5201368,0.13865 -6.9415078,0.76468 -7.7449978,1.09662 -0.330525,0.13655 -1.106056,0.36541 -1.723403,0.50858 -0.61734498,0.14317 -1.30366198,0.37905 -1.52514598,0.52417 -0.221486,0.14513 -0.858219,0.42058 -1.41496402,0.61213 -0.556743,0.19155 -1.212301,0.50562 -1.456794,0.69794 -0.244492,0.19232 -0.737229,0.44365 -1.094969,0.5585 -0.357742,0.11486 -0.967938,0.40387 -1.355993,0.64225 -0.388056,0.23838 -1.142118,0.69898 -1.675695,1.02356 -2.815093,1.71246 -7.6729682,6.02994 -8.0219922,7.12961 -0.08709,0.27438 -0.264174,0.36445 -0.716615,0.36445 -0.727892,0 -1.0315,-0.47937 -1.228883,-1.94028 -0.07209,-0.53358 -0.309395,-1.52577 -0.527343,-2.20486 -0.217948,-0.6791 -0.496036,-2.02848 -0.617973,-2.99861 -0.121938,-0.97014 -0.370401,-2.37326 -0.552142,-3.11804 -0.18174,-0.74478 -0.49065,-3.08634 -0.686467,-5.20347 -0.195817,-2.11713 -0.430881,-4.32558 -0.522365,-4.90766 -0.09148,-0.58208 -0.260262,-4.26821 -0.375064,-8.19139 -0.229715,-7.85021 -0.02031,-17.63197 0.462805,-21.61833 0.141087,-1.16417 0.374295,-3.38667 0.518239,-4.93889 0.143945,-1.55222 0.380683,-3.45722 0.526084,-4.23333 0.145402,-0.77611 0.424961,-2.52393 0.621244,-3.88404 0.196282,-1.36011 0.509125,-3.06668 0.695206,-3.79236 0.186081,-0.72569 0.430159,-1.91475 0.542394,-2.64235 0.112236,-0.72761 0.387947,-1.95792 0.61269,-2.73403 0.224744,-0.77611 0.582199,-2.00642 0.794345,-2.73403 0.212146,-0.7276 0.535105,-1.91823 0.717687,-2.64583 0.182582,-0.72761 0.450275,-1.56104 0.594873,-1.85208 0.144599,-0.29105 0.428213,-1.15172 0.630254,-1.91262 0.202043,-0.7609 0.490314,-1.62124 0.640604,-1.91186 0.15029,-0.29063 0.457089,-1.05714 0.681775,-1.70336 0.643359,-1.85037 1.218641,-3.25348 1.530366,-3.73258 0.157806,-0.24254 0.340032,-0.6791 0.404946,-0.97014 0.06492,-0.29104 0.5849752,-1.48167 1.1556902,-2.64583 0.570713,-1.16417 1.164463,-2.39448 1.31944,-2.73403 0.154979,-0.33955 0.592973,-1.1333 0.973323,-1.76389 0.380349,-0.63059 0.895092,-1.5434 1.143871,-2.02847 0.40855,-0.79659 0.921983,-1.64789 1.946203,-3.226915 0.194028,-0.29913 0.491379,-0.76701 0.660781,-1.03973 2.63663302,-4.24474 7.516835,-10.24794 11.620206,-14.29414 3.5250658,-3.475966 9.5458518,-8.592535 11.2650548,-9.573245 0.255102,-0.14552 0.617851,-0.409312 0.806111,-0.586203 0.18826,-0.176892 1.215418,-0.88298 2.282568,-1.569085 1.06715,-0.686105 2.37684,-1.528652 2.91042,-1.872326 1.75156,-1.128176 2.18421,-1.385189 4.05694,-2.41001 1.99808,-1.093413 6.90752,-3.585362 8.58166,-4.3559 2.66045,-1.224499 3.35609,-1.529128 3.76557,-1.648974 0.24253,-0.07099 0.86886,-0.356402 1.39184,-0.634255 0.52298,-0.277855 1.06192,-0.50519 1.19765,-0.50519 0.13573,0 0.58096,-0.172366 0.98941,-0.383034 0.40844,-0.210668 1.33794,-0.563654 2.06554,-0.784414 1.69058,-0.51293 4.56599,-1.533546 5.03801,-1.788227 0.20004,-0.107929 0.87473,-0.317854 1.49931,-0.466501 1.25416,-0.298482 2.98533,-0.972396 3.41593,-1.329762 0.33597,-0.278832 0.34257,-0.752016 0.0346,-2.480007 -0.40228,-2.256959 -1.20183,-4.52094 -2.17462,-6.157571 l -0.46226,-0.777711 0.41198,-0.333599 c 0.34222,-0.277114 0.57855,-0.313577 1.39571,-0.215343 0.54105,0.06504 1.30123,0.236818 1.68928,0.381727 0.38806,0.144907 1.25674,0.454506 1.9304,0.687999 0.67366,0.233493 1.34835,0.535304 1.49931,0.670691 0.15095,0.135389 0.63165,0.384445 1.06821,0.55346 0.43656,0.169015 0.89018,0.38151 1.00803,0.472213 0.11785,0.0907 1.03066,0.578254 2.02847,1.083451 l 1.81419,0.918538 -0.0154,0.742876 c -0.0103,0.495136 -0.13864,0.87451 -0.38499,1.137587 -0.20329,0.21709 -0.52714,0.762998 -0.71967,1.213125 -0.19253,0.450128 -0.43751,0.872465 -0.5444,0.938524 -0.10689,0.06606 -0.39366,0.491524 -0.63728,0.945475 -0.63131,1.176385 -1.45983,2.495458 -1.74911,2.784737 -0.13617,0.136167 -0.30168,0.425701 -0.3678,0.643407 -0.0661,0.217706 -0.29816,0.633956 -0.51564,0.924997 -0.21747,0.291042 -0.55621,0.846667 -0.75275,1.234723 -0.30323,0.598697 -1.26386,2.341897 -1.79826,3.263194 -0.72875,1.256342 -3.16297,6.965595 -3.7979,8.907639 -0.22202,0.679097 -0.52343,1.512534 -0.6698,1.852083 -0.14636,0.339548 -0.36376,1.205357 -0.4831,1.92402 -0.11934,0.718663 -0.33798,1.591788 -0.48586,1.940277 -0.62818,1.480291 -1.17937,8.035974 -1.00985,12.010694 0.15761,3.69562 0.55055,6.70485 1.14915,8.800555 0.28799,1.00826 0.52435,2.00045 0.52523,2.20486 8.9e-4,0.20443 0.19685,0.76855 0.43546,1.25362 0.23861,0.48507 0.43633,1.03071 0.43936,1.21252 0.006,0.34494 0.83022,2.30785 1.86827,4.44803 0.33368,0.68796 0.60669,1.31546 0.60669,1.39446 0,0.079 0.18346,0.38925 0.40769,0.68945 0.22423,0.3002 0.51059,0.80116 0.63634,1.11323 0.12576,0.31208 0.34536,0.66428 0.48801,0.78267 0.14265,0.1184 0.45433,0.57743 0.69262,1.02009 1.09208,2.02873 4.89904,6.51466 7.74336,9.1244 2.10981,1.9358 4.46917,3.87187 5.54942,4.5538 0.37653,0.23769 0.94835,0.66079 1.27073,0.94023 0.32237,0.27944 0.84364,0.55783 1.15836,0.61866 0.90959,0.17579 1.05418,-0.1604 1.61742,-3.76073 0.0986,-0.63059 0.34048,-1.85509 0.53739,-2.72111 0.32587,-1.43314 0.33318,-1.60203 0.0813,-1.88031 -0.15218,-0.16816 -0.45215,-0.34978 -0.6666,-0.40361 -0.6751,-0.16944 -3.34356,-1.50808 -4.14141,-2.07756 -0.97919,-0.6989 -3.74623,-3.43884 -4.28786,-4.24585 -1.52081,-2.26599 -1.85426,-2.79762 -2.29857,-3.66462 -0.27344,-0.53358 -0.56702,-1.0892 -0.65241,-1.23472 -0.40578,-0.69151 -1.43305,-2.86049 -1.43305,-3.02572 0,-0.10243 -0.2072,-0.59465 -0.46046,-1.0938 -0.25325,-0.49916 -0.61339,-1.453 -0.80031,-2.11964 -0.18692,-0.66664 -0.45753,-1.43964 -0.60136,-1.71777 -0.14382,-0.27813 -0.38815,-1.12176 -0.54293,-1.874735 -0.15479,-0.75297 -0.39592,-1.59221 -0.53584,-1.86498 -0.13993,-0.27278 -0.36593,-1.13024 -0.50223,-1.90548 -0.1363,-0.77524 -0.40894,-1.98374 -0.60587,-2.68556 -0.19694,-0.70182 -0.47248,-2.03825 -0.61233,-2.96985 -0.13984,-0.93159 -0.30625,-1.97093 -0.3698,-2.30964 -0.097,-0.51685 -0.05,-0.66175 0.29219,-0.90142 0.47509,-0.33277 2.20594,-0.37704 4.09023,-0.10461 2.3572,0.34081 6.35707,1.94896 8.56261,3.44261 0.42359,0.28686 1.03356,0.6831 1.35551,0.88053 2.95185,1.81021 9.35041,8.640035 11.17874,11.932195 0.19839,0.35722 0.44176,0.69958 0.54082,0.76081 0.0991,0.0612 0.6256,0.80083 1.17008,1.64356 1.03975,1.60932 1.77831,2.50239 2.06944,2.50239 0.0955,0 0.29891,-0.10729 0.45207,-0.23842 0.70331,-0.60214 4.56298,-2.42153 5.85539,-2.76013 0.42519,-0.1114 1.44777,-0.42797 2.27239,-0.70348 0.82462,-0.27551 2.015241,-0.55439 2.645831,-0.61972 0.63059,-0.0653 1.58309,-0.24977 2.11667,-0.40984 0.79481,-0.23844 1.81491,-0.29145 5.64445,-0.29327 3.27519,-0.002 4.85909,0.0632 5.29165,0.21651 0.33956,0.12031 1.47718,0.37343 2.52805,0.56249 1.05088,0.18906 2.08392,0.45725 2.29564,0.59597 0.21174,0.13873 0.64906,0.31024 0.97183,0.38113 0.67226,0.14766 3.70895,1.67714 4.38381,2.20799 0.24837,0.19537 0.58952,0.35521 0.75811,0.35521 0.35132,0 1.76256,-1.45787 1.76256,-1.8208 0,-0.13265 0.16733,-0.3924 0.37185,-0.57721 0.20451,-0.18481 0.56308,-0.6932 0.79681,-1.12977 1.16484,-2.17562 5.42839,-7.584525 7.36903,-9.348615 0.48025,-0.43656 1.17354,-1.0914 1.54063,-1.4552 0.36709,-0.36381 0.74428,-0.66146 0.83821,-0.66146 0.0939,0 0.27566,-0.103 0.40386,-0.22888 0.94344,-0.92639 3.99086,-2.53917 6.1081,-3.23258 1.98253,-0.64929 2.67741,-0.7657 4.76741,-0.79864 3.00849,-0.0474 3.43374,0.29233 3.03898,2.42786 -0.10321,0.5583 -0.1887,1.33785 -0.18995,1.73234 -0.005,1.51114 -2.46756,12.480425 -3.06423,13.648365 -0.13331,0.26095 -0.3,0.7418 -0.37041,1.06856 -0.12185,0.56547 -1.02525,2.68252 -1.62821,3.81562 -0.15486,0.29104 -0.46467,0.89968 -0.68846,1.35255 -0.22379,0.45285 -0.49035,0.87496 -0.59236,0.938 -0.102,0.0631 -0.33833,0.4069 -0.52514,0.76412 -0.47281,0.90405 -3.39304,3.7363 -3.85237,3.7363 -0.10206,0 -0.40994,0.18863 -0.68417,0.41918 -0.46016,0.38686 -2.8296,1.13483 -4.50638,1.42255 -0.362,0.0621 -0.76932,0.27386 -0.90819,0.47212 -0.22424,0.32015 -0.19427,0.52442 0.2737,1.86631 0.55521,1.592 1.15079,5.98376 0.94952,7.00169 -0.0555,0.28067 -0.0115,0.61802 0.0977,0.74965 0.28265,0.34058 1.46958,0.30443 1.76543,-0.0538 0.13315,-0.16121 0.64214,-0.47034 1.13109,-0.68695 0.48894,-0.21662 0.99476,-0.52129 1.12403,-0.67704 0.12926,-0.15575 0.3129,-0.28319 0.40807,-0.28319 0.47938,0 5.07354,-3.71228 7.30777,-5.90499 1.51833,-1.49012 3.89708,-4.22479 4.8366,-5.56028 0.37537,-0.53358 0.92313,-1.3108 1.21726,-1.72715 0.29411,-0.41636 0.7527,-1.15595 1.01907,-1.64355 0.26636,-0.48759 0.77611,-1.41693 1.13276,-2.06521 0.35666,-0.64827 0.81358,-1.53587 1.01537,-1.97243 0.20181,-0.43656 0.47741,-0.99219 0.61248,-1.23472 0.36665,-0.65839 1.52417,-3.80696 1.88053,-5.11528 0.17177,-0.63059 0.43182,-1.58309 0.5779,-2.11666 0.14609,-0.53358 0.51882,-2.293345 0.82831,-3.910575 l 0.56268,-2.94043 -0.0789,-4.90888 c -0.0715,-4.44826 -0.12384,-5.1323 -0.55734,-7.290119 -0.91123,-4.536052 -2.27144,-9.108579 -3.34063,-11.230091 -0.23631,-0.468902 -0.48329,-1.10073 -0.54884,-1.404065 -0.0655,-0.303335 -0.31344,-0.814849 -0.55089,-1.136699 -0.23746,-0.32185 -0.43173,-0.67204 -0.43173,-0.778201 0,-0.10616 -0.16782,-0.507459 -0.37294,-0.891773 -1.09116,-2.044499 -1.45586,-2.712827 -1.88713,-3.458189 -0.26067,-0.450536 -0.72546,-1.288722 -1.03283,-1.862636 -0.30738,-0.573915 -0.68441,-1.147669 -0.83785,-1.275011 -0.15344,-0.127341 -0.27897,-0.31408 -0.27897,-0.414976 0,-0.100895 -0.25676,-0.583592 -0.5706,-1.072658 -0.31383,-0.489067 -0.69086,-1.091327 -0.83784,-1.338358 -0.14699,-0.247031 -0.426,-0.715872 -0.62004,-1.041869 -0.19402,-0.325999 -0.52355,-0.841936 -0.73228,-1.146528 -0.20872,-0.304593 -0.7443,-1.157684 -1.19018,-1.895755 -1.09038,-1.804921 -1.06549,-1.885509 1.3576,-4.395897 0.46543,-0.482207 0.91432,-0.876737 0.99754,-0.876737 0.0832,0 0.48382,-0.277813 0.89024,-0.617361 0.40642,-0.339549 0.83506,-0.617362 0.95255,-0.617362 0.1175,0 0.47747,-0.194653 0.79994,-0.432565 0.75444,-0.556599 3.3956,-1.399364 4.42112,-1.410725 0.79225,-0.0088 0.79386,-0.0075 0.84864,0.655212 0.0383,0.463083 -0.0537,0.802081 -0.30404,1.120324 -0.19741,0.250977 -0.41275,0.745924 -0.47852,1.099885 -0.0658,0.35396 -0.30844,1.199189 -0.53926,1.878286 -0.23082,0.679097 -0.5368,1.737984 -0.67996,2.353082 -0.14316,0.6151 -0.37883,1.287604 -0.52372,1.494457 -0.65765,0.938936 -0.15093,1.720197 1.45629,2.245309 0.65489,0.213967 1.43471,0.535795 1.73295,0.715172 0.29822,0.179379 0.97291,0.417327 1.4993,0.528777 0.52638,0.111448 1.1952,0.325638 1.48624,0.47598 0.29104,0.15034 1.12448,0.490326 1.85208,0.755523 3.13463,1.142508 4.31652,1.59941 4.48968,1.735629 0.10155,0.07988 0.50213,0.243812 0.89018,0.364295 0.38806,0.120482 1.05163,0.407931 1.47461,0.638773 0.42298,0.230841 1.08848,0.505728 1.4789,0.610857 0.39042,0.10513 0.99685,0.377733 1.34763,0.605788 0.35077,0.228054 0.97174,0.502091 1.37996,0.608974 0.40822,0.106883 0.79183,0.274639 0.85251,0.372795 0.0607,0.09815 0.99012,0.611676 2.06547,1.141156 1.07536,0.529483 2.08474,1.079927 2.24307,1.223211 0.15833,0.143285 0.63031,0.381335 1.04885,0.529003 0.74723,0.263643 1.46718,0.672195 3.19549,1.813371 0.4775,0.315295 0.92964,0.576637 1.00475,0.580759 0.0751,0.0041 0.69217,0.363662 1.37126,0.798978 0.6791,0.435315 1.45925,0.928036 1.73368,1.094936 0.27442,0.166899 1.05461,0.700327 1.73376,1.185396 0.67915,0.48507 1.4865,1.037959 1.7941,1.228644 1.82706,1.132577 4.8728,3.470349 8.46284,6.495678 3.08968,2.603667 8.16974,7.719255 11.07184,11.149285 0.16417,0.19403 0.76894,0.9084 1.34391,1.5875 0.57499,0.6791 1.19659,1.49269 1.3813,1.80799 0.18473,0.31529 0.39714,0.57326 0.47204,0.57326 0.13294,0 0.73415,0.83583 1.48436,2.06366 0.20551,0.33636 0.54474,0.82323 0.75382,1.08194 0.44185,0.5467 2.68598,4.001305 3.45863,5.324185 0.29104,0.4983 0.70674,1.15786 0.92377,1.46568 0.21701,0.30782 0.47722,0.7621 0.57822,1.0095 0.101,0.2474 0.33441,0.72365 0.51869,1.05833 1.14862,2.08615 2.30085,4.3422 2.30085,4.50507 0,0.0583 0.14773,0.31662 0.32829,0.57413 0.18057,0.25751 0.42872,0.7857 0.55147,1.17376 0.12275,0.38805 0.33843,0.83776 0.47932,0.99934 0.14088,0.16159 0.40901,0.78493 0.59582,1.3852 0.18683,0.60027 0.45448,1.3015 0.59478,1.55829 0.30006,0.54919 1.3346,3.1823 1.9261,4.90227 0.22867,0.66499 0.50126,1.44719 0.60572,1.73823 0.23738,0.66138 1.25104,3.99092 1.96003,6.4382 0.29512,1.01864 0.58473,2.20927 0.64357,2.64583 0.0588,0.43656 0.28997,1.38906 0.51365,2.11667 0.22366,0.7276 0.5392,2.19604 0.70122,3.26319 0.16199,1.06715 0.40363,2.37684 0.53696,2.91042 0.13333,0.53357 0.40777,2.27982 0.6099,3.88055 0.20211,1.60073 0.44192,3.22792 0.53292,3.61597 0.63336,2.70063 1.21806,17.95694 0.90923,23.72431 -0.11169,2.0858 -0.28412,5.37986 -0.3832,7.32014 -0.0991,1.94028 -0.29686,4.36121 -0.43954,5.37986 -0.14269,1.01864 -0.37931,3.00302 -0.52585,4.40972 -0.14655,1.4067 -0.46987,3.74826 -0.71852,5.20347 -0.24866,1.45521 -0.52219,3.24115 -0.60786,3.96875 -0.29132,2.47419 -0.55275,3.5352 -1.00284,4.0701 -0.23881,0.28381 -0.53359,0.51601 -0.65507,0.51601 -0.12148,0 -0.43567,-0.37703 -0.6982,-0.83784 -0.26254,-0.46082 -0.85062,-1.37463 -1.30685,-2.03069 -0.45625,-0.65606 -1.06765,-1.59631 -1.35869,-2.08944 -0.29104,-0.49313 -0.82682,-1.35543 -1.19062,-1.91621 -0.36381,-0.56078 -0.66146,-1.07751 -0.66146,-1.14829 0,-0.0708 -0.1786,-0.34922 -0.39688,-0.61877 -0.21828,-0.26954 -0.71437,-1.02415 -1.10243,-1.67691 -0.38805,-0.65276 -0.91313,-1.43586 -1.16683,-1.74024 -0.2537,-0.30438 -0.51645,-0.73022 -0.58388,-0.94632 -0.0674,-0.2161 -0.37582,-0.70685 -0.68525,-1.09057 -0.30946,-0.38371 -0.80077,-1.03585 -1.09182,-1.44918 -1.53287,-2.17696 -5.98766,-6.50415 -6.69593,-6.50415 -0.13441,0 -0.48149,-0.19952 -0.7713,-0.44338 -0.2898,-0.24386 -0.82403,-0.56752 -1.18715,-0.71925 -0.36313,-0.15172 -0.86224,-0.4086 -1.10913,-0.57085 -0.66306,-0.43571 -3.17627,-0.89653 -5.58232,-1.02355 -1.7502,-0.0924 -2.49266,-0.045 -4.28844,0.27406 -1.19447,0.2122 -2.30572,0.43217 -2.46944,0.48882 -0.8363,0.28937 -3.20654,1.51874 -3.82545,1.98415 -0.38806,0.29181 -0.98337,0.72099 -1.32292,0.95375 -1.21474,0.83269 -4.37714,4.50635 -5.1853,6.02361 -0.25838,0.48507 -0.72018,1.27882 -1.02624,1.76389 -0.80583,1.27718 -1.48757,2.50874 -2.00169,3.61597 -0.24776,0.53358 -0.68397,1.44639 -0.96938,2.02848 -0.2854,0.58208 -0.51889,1.16802 -0.51885,1.30209 4e-5,0.13407 -0.1602,0.50308 -0.35608,0.82002 -0.19588,0.31694 -0.51295,1.03204 -0.70462,1.58912 -0.19166,0.55708 -0.42548,1.10566 -0.5196,1.21908 -0.16244,0.19572 -0.85704,1.78207 -1.62569,3.71274 -0.19311,0.48507 -0.45949,1.00277 -0.59196,1.15043 -0.13247,0.14767 -0.42365,0.78267 -0.64707,1.41111 -0.37948,1.06743 -0.44469,1.14632 -0.9907,1.19876 -0.80301,0.0771 -1.00655,-0.15039 -1.27487,-1.42509 -0.12741,-0.60526 -0.36786,-1.41799 -0.53434,-1.80604 -0.16647,-0.38806 -0.43017,-1.46999 -0.586,-2.40429 -0.1558,-0.93431 -0.39763,-1.97239 -0.53738,-2.30684 -0.13974,-0.33445 -0.38229,-1.53519 -0.53898,-2.66831 -0.1567,-1.13311 -0.40488,-2.51598 -0.55149,-3.07302 -0.14662,-0.55705 -0.4575,-1.92563 -0.69085,-3.04129 -1.32198,-6.3206 -3.20934,-10.44613 -5.80781,-12.69509 -0.45149,-0.39076 -0.92329,-0.71047 -1.04848,-0.71047 -0.12516,0 -0.61642,-0.21169 -1.0917,-0.47044 -0.77331,-0.421 -1.05874,-0.47197 -2.7162,-0.48506 -1.44482,-0.0114 -2.00723,0.0565 -2.55764,0.30876 -0.38805,0.17787 -0.98337,0.44228 -1.32291,0.58759 -0.60818,0.26026 -0.83374,0.44367 -2.1777,1.77061 -0.68531,0.67663 -1.93384,2.34765 -2.39355,3.2035 -0.37775,0.70326 -1.28539,2.03798 -2.70434,3.97678 -1.1736,1.60359 -2.01365,2.3948 -2.54441,2.39649 -0.28469,8.8e-4 -0.545,-0.91115 -0.67948,-2.38059 -0.0621,-0.67909 -0.26018,-1.79034 -0.44004,-2.46944 -0.17988,-0.6791 -0.4148,-1.86972 -0.52204,-2.64583 -0.10725,-0.77612 -0.38846,-2.0858 -0.62496,-2.91042 -0.23649,-0.82462 -0.54646,-1.93587 -0.68886,-2.46945 -0.39329,-1.47386 -1.21385,-3.75971 -1.52324,-4.24334 -0.15164,-0.23703 -0.38169,-0.70877 -0.51124,-1.04832 -0.3529,-0.92498 -1.21802,-2.26998 -2.1166,-3.2907 -1.84018,-2.0903 -4.29313,-3.32999 -6.97424,-3.52467 -4.5184,-0.32809 -7.85931,1.51392 -12.52124,6.90356 -1.74699,2.0197 -5.13739,5.33658 -5.79376,5.66813 -0.30724,0.15519 -0.71736,0.42528 -0.91139,0.60021 -0.19403,0.17492 -0.69856,0.45544 -1.12118,0.62338 -0.73678,0.29277 -0.76435,0.33036 -0.66981,0.91293 0.0612,0.3769 0.38638,0.92318 0.8566,1.43886 0.4169,0.45721 0.89516,1.06477 1.06279,1.35014 0.16764,0.28537 0.59931,0.91573 0.95928,1.4008 1.03944,1.40067 1.99671,3.20147 2.57132,4.83709 0.43618,1.2416 0.53533,1.81341 0.55291,3.1886 0.02,1.56017 -0.0171,1.74939 -0.53745,2.74458 -0.68352,1.3073 -0.87475,1.47096 -1.59086,1.3615 -0.65761,-0.10052 -2.9533,-2.05434 -6.06807,-5.16441 -4.19917,-4.19285 -4.33743,-4.30925 -5.06083,-4.26053 -0.35809,0.0241 -0.81096,0.1842 -1.00636,0.35573 -0.19541,0.17154 -0.59341,0.45782 -0.88445,0.63618 -1.3402,0.8213 -6.512141,5.65523 -7.725971,7.22105 -0.27171,0.35051 -0.7001,0.77231 -0.95196,0.93734 -0.45601,0.29878 -0.46114,0.29652 -1.21414,-0.53519 -0.58278,-0.6437 -0.80411,-1.06609 -0.96517,-1.84186 -0.26125,-1.25844 -0.0919,-3.58157 0.35339,-4.84874 0.43697,-1.24342 1.22652,-2.92437 1.43373,-3.05244 0.0921,-0.0569 0.33595,-0.43549 0.54181,-0.84122 0.44141,-0.86998 0.92246,-1.49273 2.3547,-3.04825 0.582091,-0.63219 1.084411,-1.22306 1.116281,-1.31304 0.11086,-0.31307 -0.70961,-1.23742 -1.420091,-1.59988 -0.69136,-0.3527 -2.37915,-1.99591 -8.33924,-8.11892 -3.12414,-3.20953 -4.40768,-4.12123 -7.04743,-5.00577 -1.29094,-0.43257 -1.58677,-0.4651 -3.70417,-0.40722 -2.27344,0.0621 -2.31925,0.0716 -3.80048,0.78184 -2.07427,0.99465 -4.39404,3.12041 -5.23473,4.79694 -0.22874,0.45617 -0.53183,1.02783 -0.67353,1.27037 -0.46165,0.79016 -1.30291,2.91255 -1.49604,3.77433 -0.10379,0.46314 -0.33804,1.13477 -0.52055,1.49252 -0.18251,0.35775 -0.38471,1.04547 -0.44933,1.52826 -0.0646,0.48279 -0.30648,1.59218 -0.53746,2.4653 -0.23098,0.87313 -0.58963,2.69875 -0.79701,4.05695 -0.46084,3.01825 -0.77536,4.17696 -1.25053,4.60698 -0.35917,0.32504 -0.37353,0.31753 -1.22291,-0.63973 -0.4727,-0.53275 -0.86199,-1.0384 -0.86508,-1.12365 -0.003,-0.0853 -0.28343,-0.46252 -0.62297,-0.83836 -0.33955,-0.37584 -0.61737,-0.79126 -0.61737,-0.92316 0,-0.1319 -0.21828,-0.52479 -0.48506,-0.87309 -0.26679,-0.3483 -0.80257,-1.15794 -1.19063,-1.7992 -0.87728,-1.4497 -2.46108,-3.34711 -3.51425,-4.2101 -1.03589,-0.84883 -3.08487,-1.6892 -4.42325,-1.81415 -0.88995,-0.0831 -1.33369,-0.007 -2.78904,0.47643 -1.57598,0.52381 -1.84073,0.67935 -2.96148,1.73996 -0.67693,0.64061 -1.41928,1.48223 -1.64966,1.87029 -1.278,2.15267 -2.04849,3.68771 -2.22952,4.44189 -0.11218,0.46738 -0.31127,1.02275 -0.4424,1.23416 -0.13113,0.21142 -0.36485,1.00517 -0.51937,1.76389 -0.15452,0.75873 -0.4735,2.0145 -0.70884,2.79061 -0.23534,0.77612 -0.53942,2.12549 -0.67573,2.99862 -0.27183,1.74114 -0.68812,3.89682 -1.63503,8.46666 -1.00569,4.85354 -0.95885,4.70428 -1.59184,5.07256 -0.56014,0.32591 -0.56376,0.32556 -0.81948,-0.0795 z M 98.341149,155.188 c -0.0306,-0.37742 -0.16859,-0.90471 -0.30668,-1.17176 -0.1381,-0.26704 -0.2986,-1.18575 -0.35668,-2.04157 -0.15182,-2.23714 -0.49684,-3.37412 -1.09599,-3.6118 -0.99619,-0.39518 -2.85936,0.0207 -2.85936,0.63825 0,0.72976 0.62571,2.77513 1.10814,3.62239 0.62746,1.10196 1.99835,2.64583 2.34938,2.64583 0.12883,0 0.32176,0.16354 0.42873,0.36342 0.10769,0.20122 0.32696,0.3362 0.49128,0.30244 0.22911,-0.0471 0.2841,-0.21745 0.24118,-0.7472 z m 20.203281,-0.62421 c 0.0229,0 0.21253,-0.33491 0.42136,-0.74425 0.20882,-0.40933 0.52638,-0.94511 0.70569,-1.19062 0.49596,-0.67911 1.39124,-3.90999 1.39124,-5.0207 0,-1.1648 -0.21185,-1.33471 -1.6641,-1.33471 -0.74655,0 -1.06624,0.0845 -1.33451,0.35278 -0.38791,0.3879 -0.37784,0.29887 -0.35891,3.175 0.007,1.11565 -0.093,2.62707 -0.22301,3.3587 -0.29539,1.66251 -0.26334,1.77201 0.45813,1.5651 0.30934,-0.0887 0.58119,-0.1613 0.60411,-0.1613 z M 97.955779,139.07693 c 1.83245,-0.90168 2.480641,-1.35651 3.686291,-2.58665 1.05802,-1.0795 1.35804,-1.52297 1.79093,-2.64716 0.286,-0.74273 0.52,-1.5106 0.52,-1.70638 0,-0.50081 -1.05273,-2.23297 -1.82327,-3 -0.75361,-0.75018 -1.56483,-1.10041 -1.86154,-0.8037 -0.10766,0.10766 -0.19749,0.59659 -0.19962,1.08651 -0.004,0.90346 -0.403851,1.97709 -0.998661,2.68104 -0.55104,0.65215 -2.06969,1.30753 -2.73529,1.18042 -0.86329,-0.16487 -2.09715,-0.87509 -2.71547,-1.56306 -1.3013,-1.44788 -1.14254,-4.8241 0.28327,-6.02384 0.46586,-0.39199 0.536,-0.55846 0.49049,-1.16422 -0.0526,-0.69996 -0.0642,-0.71066 -1.19963,-1.10302 -6.6042,-2.28218 -7.35901,-2.41379 -8.43345,-1.47043 -0.83414,0.73239 -1.34736,1.44396 -1.89057,2.62124 -0.2462,0.53357 -0.54417,1.1616 -0.66216,1.39562 -0.12781,0.2535 -0.20838,1.10908 -0.19933,2.11667 0.0251,2.79009 1.08857,5.29205 3.25885,7.66669 0.92478,1.01186 1.86909,1.70122 3.74507,2.73399 1.59512,0.87814 2.67551,1.07578 5.5927,1.02307 2.22618,-0.0402 2.6605,-0.0968 3.35139,-0.43679 z m 23.413961,-0.90552 c 0.95681,-0.19745 1.82257,-0.48787 2.09636,-0.70324 0.25653,-0.20179 0.55707,-0.36688 0.66786,-0.36688 0.22266,0 1.81279,-1.10984 2.70073,-1.88498 0.83006,-0.72461 2.10408,-2.40079 2.77031,-3.6448 0.76705,-1.43225 1.05636,-3.06069 0.93501,-5.26295 -0.11223,-2.03659 -0.48236,-2.93942 -1.92954,-4.7065 -1.29069,-1.57602 -2.29654,-1.72819 -4.85971,-0.73525 -0.51037,0.19771 -1.0821,0.35948 -1.27052,0.35948 -0.18842,0 -0.54476,0.0921 -0.79186,0.2047 -0.60934,0.27763 -0.61708,1.21768 -0.0165,2.00506 0.58718,0.76984 0.85579,1.95186 0.7737,3.40467 -0.0599,1.05983 -0.15348,1.33488 -0.74791,2.19797 -1.12671,1.63594 -2.75299,2.01923 -4.61688,1.08815 -0.86816,-0.43367 -1.15532,-0.7013 -1.69578,-1.58042 -0.49017,-0.79731 -0.65331,-1.25665 -0.66146,-1.86246 -0.006,-0.44228 -0.12436,-0.95821 -0.26313,-1.14653 -0.24783,-0.33631 -0.26718,-0.33455 -1.08854,0.0986 -1.1371,0.59964 -3.86021,3.26987 -4.23207,4.14989 -0.43733,1.03498 -0.34027,2.11036 0.30205,3.34664 0.84211,1.62078 2.38702,3.19848 4.28475,4.37568 1.5731,0.97582 4.77982,1.25407 7.64315,0.66319 z"
       id="path1324" />
  </g>
</svg>
