<?xml version="1.0" encoding="UTF-8" standalone="no"?>
<!-- Created with Inkscape (http://www.inkscape.org/) -->

<svg
   width="210mm"
   height="297mm"
   viewBox="0 0 210 297"
   version="1.1"
   id="svg5"
   inkscape:version="1.1 (c68e22c387, 2021-05-23)"
   sodipodi:docname="Hexe1.svg"
   xmlns:inkscape="http://www.inkscape.org/namespaces/inkscape"
   xmlns:sodipodi="http://sodipodi.sourceforge.net/DTD/sodipodi-0.dtd"
   xmlns="http://www.w3.org/2000/svg"
   xmlns:svg="http://www.w3.org/2000/svg">
  <sodipodi:namedview
     id="namedview7"
     pagecolor="#ffffff"
     bordercolor="#666666"
     borderopacity="1.0"
     inkscape:pageshadow="2"
     inkscape:pageopacity="0.0"
     inkscape:pagecheckerboard="0"
     inkscape:document-units="mm"
     showgrid="false"
     inkscape:zoom="0.69397447"
     inkscape:cx="334.30625"
     inkscape:cy="561.25984"
     inkscape:window-width="1920"
     inkscape:window-height="1017"
     inkscape:window-x="-8"
     inkscape:window-y="-8"
     inkscape:window-maximized="1"
     inkscape:current-layer="layer1" />
  <defs
     id="defs2" />
  <g
     inkscape:label="Ebene 1"
     inkscape:groupmode="layer"
     id="layer1">
    <path
       style="fill:none;stroke-width:0.6;stroke:#000000;stroke-opacity:1;stroke-miterlimit:4;stroke-dasharray:none"
       d="m 75.353721,209.00801 c -0.85475,-0.3384 -1.01636,-0.49254 -1.47964,-1.41126 -0.55079,-1.09224 -1.23846,-3.15275 -1.40648,-4.21429 -0.0554,-0.35012 -0.13822,-0.69767 -0.18402,-0.77232 -0.0927,-0.15113 -0.23352,-0.69884 -0.37483,-1.45796 -0.16523,-0.88769 -0.41512,-0.73125 -0.42221,0.26431 -0.008,1.17991 -0.14034,2.23637 -0.3724,2.98162 -0.20342,0.65328 -1.18988,1.22109 -2.67455,1.5395 -0.81823,0.17548 -1.04027,0.15774 -1.6295,-0.13017 -0.66016,-0.32258 -0.71142,-0.4198 -1.58739,-3.01121 -0.49787,-1.47283 -0.95973,-2.61868 -1.02637,-2.54634 -0.0666,0.0723 -0.37854,1.40014 -0.69311,2.95069 -0.72744,3.58559 -1.19384,5.02406 -1.74636,5.38608 -0.38972,0.25536 -0.49852,0.24729 -1.27045,-0.0942 -1.11926,-0.4951 -2.21181,-1.37785 -2.57823,-2.08313 -0.32803,-0.6314 -0.374,-3.56339 -0.0838,-5.3459 0.0855,-0.52518 0.10629,-0.95346 0.0462,-0.95173 -0.0601,0.002 -0.30714,0.21168 -0.549,0.46657 -0.52404,0.55227 -1.67441,1.16722 -2.18347,1.16722 -1.04591,0 -3.46982,-1.32569 -3.46982,-1.89773 0,-0.12565 0.32738,-0.73499 0.72752,-1.35408 0.40014,-0.61909 0.72753,-1.16936 0.72753,-1.22282 0,-0.0534 -0.22508,0.0605 -0.50017,0.25311 -1.62525,1.13822 -6.256928,3.31211 -7.056771,3.31211 -0.242903,0 -0.619448,-0.24389 -0.912617,-0.59111 -0.56048,-0.66382 -1.347576,-2.2484 -1.350282,-2.71838 -0.0026,-0.44551 3.01285,-2.39159 6.49284,-4.19034 l 2.94792,-1.52374 -1.1291,-0.55833 c -4.754765,-2.35118 -8.718046,-8.05991 -10.021373,-14.43484 -0.754644,-3.69117 -0.847774,-9.22193 -0.205057,-12.17774 1.131802,-5.20506 3.574853,-9.61446 6.83423,-12.33493 l 1.2381,-1.03338 -1.15408,-0.37795 c -1.319742,-0.43219 -2.095148,-0.88796 -2.095148,-1.23148 0,-0.90493 3.928018,-2.73578 9.064218,-4.22482 5.32689,-1.54433 10.68493,-2.3771 16.51142,-2.56629 l 3.47699,-0.1129 0.12952,-5.47396 c 0.11599,-4.90238 -0.0785,-10.57128 -0.37951,-11.06188 -0.0444,-0.0723 -0.40482,-0.21875 -0.80101,-0.32544 -0.39618,-0.10668 -0.83872,-0.3749 -0.98341,-0.59605 -0.4525,-0.69159 -0.8848,-2.52798 -0.92957,-3.94879 -0.0567,-1.8008 -0.16481,-2.20209 -0.71204,-2.64412 -0.72809,-0.58812 -0.57482,-0.88749 0.83315,-1.62736 1.18461,-0.6225 1.28398,-0.71881 1.19595,-1.15929 -0.0528,-0.26422 -0.28167,-1.61218 -0.50861,-2.99547 l -0.41262,-2.51508 0.40109,-2.48667 c 0.49042,-3.04055 0.49444,-3.93656 0.0364,-8.11331 -0.19818,-1.807065 -0.43868,-4.717889 -0.53445,-6.468501 -0.16526,-3.021126 -0.19526,-3.196801 -0.59025,-3.455755 -0.91151,-0.597596 -1.56026,-1.293221 -2.06622,-2.21553 -0.48063,-0.876122 -0.531,-1.131064 -0.53392,-2.70193 -0.003,-1.69195 0.0173,-1.776986 0.83289,-3.463956 1.09992,-2.275118 2.0391,-3.25902 3.11087,-3.25902 0.27784,0 0.50601,-0.06139 0.50703,-0.136411 0.0109,-0.797567 0.9814,-6.030414 1.27341,-6.866039 0.60504,-1.731429 1.08654,-3.920059 1.08792,-4.945132 0.001,-1.022043 -0.57328,-4.546825 -1.44741,-8.877886 -0.63505,-3.146563 -0.71712,-5.408683 -0.2576,-7.100648 0.16192,-0.59622 0.39078,-1.718031 0.50857,-2.492917 0.23522,-1.547522 0.48024,-1.971518 0.96321,-1.666864 0.37481,0.236423 0.41302,0.313044 1.24049,2.487798 0.76432,2.008799 1.73337,3.347777 2.93068,4.049448 1.02769,0.602268 1.33791,1.08704 1.33791,2.090758 0,0.619141 -0.14468,1.061463 -0.56289,1.720904 -0.75445,1.189647 -0.89976,1.600251 -1.09164,3.084656 -0.13722,1.061471 -0.0907,1.636576 0.29088,3.593355 0.79664,4.085695 0.59577,5.984663 -1.29557,12.24788 -0.72312,2.394639 -0.86805,3.108375 -0.82892,4.08217 0.0401,0.997352 0.12322,1.259239 0.53678,1.690902 0.8385,0.875212 0.64231,1.848987 -0.72318,3.589331 -0.5986,0.762932 -0.93096,2.250423 -0.69031,3.089522 0.29951,1.044337 4.74243,6.054084 5.20998,5.874669 0.15831,-0.06075 0.8359,0.289444 1.62191,0.838231 1.49694,1.045167 2.38488,1.470691 3.06888,1.470691 0.25021,0 1.07017,0.401633 1.82213,0.892519 1.86836,1.219675 6.43565,2.907125 8.01083,2.959705 1.60289,0.0535 5.931899,-0.76003 7.033489,-1.32179 0.36712,-0.18721 1.19925,-0.742876 1.84919,-1.234812 0.64993,-0.491934 1.64532,-1.067888 2.21196,-1.279897 2.13083,-0.797244 2.81945,-1.335927 2.81945,-2.205553 0,-1.198714 -1.66199,-3.430368 -2.84563,-3.821004 -0.82492,-0.27225 -1.62164,-0.110035 -3.28541,0.668916 -1.39767,0.654361 -2.14749,0.702669 -2.59206,0.166991 -0.27243,-0.328257 0.0683,-1.822842 0.5935,-2.603222 0.45431,-0.67508 1.62122,-1.3138 2.41228,-1.320391 0.46918,-0.0039 1.01427,-0.100004 2.57479,-0.453922 0.39168,-0.08883 1.32371,-1.244081 1.32371,-1.640729 0,-0.707698 -1.44993,-1.294584 -2.64462,-1.070458 -0.48298,0.09061 -0.63216,0.222403 -0.72375,0.639409 -0.16949,0.771694 -0.39406,0.798827 -0.63248,0.07642 -0.16374,-0.496139 -0.30875,-0.638262 -0.65124,-0.638262 -0.53528,0 -0.54747,-0.16568 -0.0768,-1.043787 0.47319,-0.882874 0.45967,-1.067282 -0.1175,-1.602184 -0.43119,-0.399614 -0.63973,-0.44602 -2.00431,-0.44602 -1.20488,0 -1.7568,0.09498 -2.641949,0.454647 -1.02878,0.418031 -1.14468,0.431301 -1.43917,0.164792 -0.39011,-0.353045 -0.2567,-0.80132 0.23848,-0.80132 0.19937,0 0.63748,-0.274995 0.97359,-0.6111 0.52955,-0.529556 0.59714,-0.697095 0.50652,-1.255566 -0.0837,-0.515448 -0.0347,-0.681862 0.24445,-0.831264 0.196889,-0.105371 0.456589,-0.120322 0.595779,-0.0343 0.13571,0.08388 0.37684,0.08484 0.53584,0.0021 0.15901,-0.08269 1.12886,-0.405796 2.15524,-0.718013 1.27684,-0.388407 2.06553,-0.742736 2.49756,-1.122063 0.60415,-0.530453 0.62969,-0.60281 0.59137,-1.67523 -0.022,-0.616456 0.0264,-1.256789 0.10751,-1.42296 0.13062,-0.267421 0.0677,-0.28359 -0.54775,-0.140749 -0.94826,0.220086 -1.15355,0.208897 -1.05108,-0.0573 0.065,-0.168857 -0.18214,-0.215129 -0.96059,-0.17985 l -1.0481,0.0475 1.3433,-0.445025 c 0.73882,-0.244763 1.4208,-0.522519 1.51552,-0.617234 0.10836,-0.108358 -0.20974,-0.433029 -0.85791,-0.87565 -2.48612,-1.697721 -5.326699,-3.878206 -5.930989,-4.552743 -0.36091,-0.402871 -0.98339,-1.215753 -1.38329,-1.806409 -1.2605,-1.861738 -1.6255,-2.801789 -1.08789,-2.801789 0.41177,0 2.64284,1.967725 3.06731,2.705252 0.385,0.668965 0.46479,0.712436 1.506479,0.820736 0.60496,0.0629 2.43992,0.570303 4.07768,1.127571 1.63776,0.557268 3.04235,0.945431 3.12131,0.862583 0.079,-0.08284 0.44157,-0.928173 0.80579,-1.878506 1.60081,-4.176916 3.81363,-7.0473 7.95488,-10.318788 1.83524,-1.449791 2.25099,-1.944342 3.96682,-4.718673 4.00534,-6.476247 4.47703,-7.109317 5.79338,-7.775363 1.19455,-0.604421 3.45089,-1.38 8.57352,-2.947005 4.30798,-1.317807 4.49993,-1.359203 5.77474,-1.24538 0.72526,0.06475 1.31865,0.18073 1.31865,0.257721 0,0.205298 -3.0736,1.583997 -3.83087,1.718379 -0.76847,0.13637 -2.67609,1.283059 -4.65516,2.798249 -2.02538,1.550653 -2.3389,1.942017 -2.8015,3.497033 -0.58627,1.970761 -1.49484,3.675528 -2.85207,5.35139 -1.71051,2.112081 -1.69127,2.035778 -1.37958,5.470578 0.14525,1.60056 0.21746,3.483037 0.16049,4.183282 -0.0884,1.086989 0.003,1.712033 0.62517,4.274223 0.40083,1.650577 0.82422,3.655824 0.94086,4.456104 l 0.21209,1.455055 h 3.01623 c 2.80968,0 3.0612,-0.02796 3.67278,-0.408301 0.85581,-0.532218 2.0714,-0.955813 2.7429,-0.955813 0.29399,0 0.93685,-0.173073 1.42857,-0.384609 1.46935,-0.632096 1.65733,-0.308672 0.41667,0.716876 -2.94872,2.43746 -3.75391,2.777908 -8.43473,3.566335 -2.14684,0.361608 -4.12544,0.702211 -4.39689,0.756894 -0.3691,0.07435 -0.63282,0.356545 -1.04582,1.119077 -0.92643,1.710471 -0.66602,2.362561 0.86253,2.159794 0.47671,-0.06324 2.64663,-0.606238 4.82204,-1.206664 5.67565,-1.56651 6.02847,-1.613343 8.40211,-1.115289 1.06585,0.223644 3.09846,0.739874 4.51691,1.147176 2.57353,0.738977 2.58369,0.740285 4.7771,0.615872 l 2.19808,-0.124676 0.89391,0.676733 c 1.10588,0.837209 3.11896,2.578082 4.42241,3.824414 0.75627,0.72313 0.98635,1.069444 1.00035,1.505738 0.0147,0.457266 0.14084,0.627918 0.65373,0.884273 0.511,0.25541 0.65693,0.451715 0.7447,1.001725 0.13174,0.825642 0.0992,0.790104 0.9916,1.081495 0.60565,0.197755 0.87017,0.466489 1.66366,1.690195 1.48268,2.286551 1.89793,2.779958 2.96695,3.525435 1.45117,1.01196 2.41127,1.459918 3.67891,1.716486 l 1.12103,0.226892 -1.8642,1.055522 c -3.43686,1.945967 -5.94389,4.12262 -7.12982,6.19027 -0.62494,1.08957 -0.6544,1.31878 -0.1885,1.46665 0.64901,0.20599 2.37323,2.04683 2.75806,2.9446 0.74817,1.74542 0.90922,1.98428 1.63786,2.42928 0.81487,0.49767 2.79793,3.28695 5.43268,7.64139 2.08021,3.43794 2.79405,5.93854 3.04058,10.65115 0.10214,1.95247 0.0697,2.34987 -0.28943,3.5467 -1.37502,4.58226 -6.95513,12.40541 -17.63205,24.71967 -1.99288,2.29849 -2.21586,2.83963 -1.72938,4.19713 0.37894,1.05743 0.86587,1.45791 2.29635,1.88864 0.47452,0.14288 1.14348,0.47389 1.48657,0.73558 0.51037,0.38929 2.49575,3.09033 3.74371,5.0932 0.15005,0.24082 2.1828,3.27167 4.51722,6.73522 2.33442,3.46355 4.20483,6.33694 4.15646,6.38531 -0.0484,0.0484 -1.09896,-0.13166 -2.33464,-0.40005 -1.59481,-0.34641 -2.31911,-0.58728 -2.49624,-0.83014 -0.25647,-0.35165 -0.93269,-0.4761 -0.93269,-0.17164 0,0.31924 3.24975,9.98631 3.55645,10.57939 0.16794,0.32477 0.69468,1.12863 1.17053,1.78634 1.77798,2.45754 1.8908,2.9945 1.26963,6.04266 -0.54161,2.65771 -0.77787,3.14762 -1.73486,3.59746 -0.44112,0.20735 -0.88399,0.377 -0.98417,0.377 -0.11756,0 -0.14029,-0.6838 -0.0641,-1.92864 0.11181,-1.82726 0.0999,-1.92516 -0.22633,-1.86233 -0.21713,0.0418 -0.6692,0.67033 -1.2237,1.70129 -1.41678,2.63421 -2.26515,3.97645 -2.90574,4.59733 -0.76282,0.73936 -2.96782,1.4989 -6.46483,2.22689 -2.97738,0.61982 -4.17007,0.68722 -5.24583,0.29648 -0.41681,-0.15139 -1.15343,-0.33307 -1.63693,-0.40373 -0.48351,-0.0707 -1.25891,-0.31907 -1.7231,-0.55202 -0.4642,-0.23295 -1.39827,-0.56278 -2.0757,-0.73295 -1.29183,-0.32449 -1.90018,-0.74689 -1.90018,-1.31935 0,-0.77391 0.84117,-0.93565 4.8994,-0.94202 2.37834,-0.004 2.93052,-0.0542 3.12224,-0.28519 0.12811,-0.15435 0.87831,-0.65291 1.66712,-1.10789 2.80124,-1.61576 3.55363,-2.42605 5.95297,-6.4111 1.4333,-2.38057 2.00081,-3.65308 2.00081,-4.48633 0,-0.77483 -0.75447,-3.08753 -1.93114,-5.91962 -0.47059,-1.13265 -0.87542,-2.0855 -0.89961,-2.11746 -0.0242,-0.0319 -0.52328,0.0362 -1.10908,0.15144 l -1.06508,0.20955 -2.54477,-1.26124 c -5.32789,-2.64062 -6.53853,-3.01556 -8.28864,-2.56702 -0.68424,0.17536 -1.35323,0.17605 -3.13573,0.003 -2.05428,-0.19919 -2.32759,-0.1903 -2.92617,0.0951 -0.6555,0.31258 -0.66238,0.31165 -0.9572,-0.12977 -0.42583,-0.63758 -2.09655,-2.21809 -2.66378,-2.51995 -0.464,-0.24693 -0.51832,-0.22219 -1.45269,0.66149 l -0.97066,0.91801 -1.44221,-0.26018 c -1.3886,-0.25051 -3.9764,-0.19481 -4.15173,0.0893 -0.0411,0.0666 0.1108,0.96505 0.33747,1.99666 0.36655,1.66825 0.52852,2.047 1.46477,3.42532 1.51979,2.23736 1.98031,3.47348 1.85129,4.96914 -0.0564,0.65365 -0.32216,1.84322 -0.5906,2.6435 -0.6028,1.79704 -2.03231,4.59898 -2.46428,4.83016 -0.39519,0.2115 -1.98538,0.22121 -2.31198,0.0141 -0.18691,-0.11852 -0.097,-0.41601 0.40924,-1.35354 0.35684,-0.66089 0.6488,-1.3279 0.6488,-1.48224 0,-0.36434 -0.57437,-0.36042 -1.83128,0.0125 -1.71708,0.50946 -2.71431,1.14479 -4.48831,2.85947 l -1.72496,1.66729 -2.48,-0.0436 c -4.56375,-0.0802 -6.48177,-0.33926 -9.16312,-1.23759 -2.5875,-0.86689 -2.9955,-1.0952 -3.85511,-2.15728 l -0.55577,-0.68667 0.42898,-0.34738 c 0.60966,-0.49367 1.04216,-0.4347 2.03308,0.27721 1.1747,0.84394 2.25068,1.37612 2.78226,1.37612 0.24186,0 0.74341,-0.12688 1.11456,-0.28196 0.94713,-0.39573 4.34589,-1.14247 5.84391,-1.28395 l 1.25567,-0.1186 2.17298,-3.3865 c 1.19514,-1.86257 2.64271,-4.00035 3.21683,-4.75061 l 1.04384,-1.36412 -0.85676,-3.12671 c -0.47122,-1.71969 -0.91367,-3.18361 -0.98322,-3.25315 -0.11251,-0.11251 -2.01137,0.17975 -2.57628,0.39653 -0.16169,0.062 -0.27491,-0.7894 -0.43097,-3.24118 -0.26916,-4.2285 -0.58576,-6.02321 -1.58128,-8.96367 -0.44028,-1.30045 -0.97865,-3.01924 -1.19639,-3.81952 -0.21773,-0.80028 -0.72416,-2.22536 -1.12538,-3.16684 -0.65827,-1.54464 -0.72017,-1.81993 -0.63389,-2.81917 0.0526,-0.60906 0.27072,-1.49512 0.48475,-1.96904 0.66356,-1.46931 6.03954,-7.09975 21.65179,-22.67661 l 7.91437,-7.89643 v -0.87572 c 0,-0.81215 -0.0627,-0.93331 -0.86394,-1.66891 -0.47516,-0.43625 -0.86393,-0.84393 -0.86393,-0.90596 0,-0.062 0.17765,-0.27829 0.39477,-0.48057 l 0.39477,-0.36779 -0.47438,-0.96883 c -0.64755,-1.32247 -0.90817,-2.45824 -0.83306,-3.63041 l 0.0632,-0.9862 -1.51636,-0.21889 c -1.4324,-0.20677 -7.28305,-1.63407 -8.33023,-2.03221 -0.39329,-0.14952 -0.55655,-0.11836 -0.8664,0.16539 -0.72533,0.66423 -2.40384,1.61965 -8.02084,4.56552 -9.06968,4.75665 -11.22516,6.17045 -14.15384,9.28365 -1.48237,1.57577 -3.39568,4.28514 -3.78354,5.35776 -0.15138,0.41862 -0.32438,0.61997 -0.48105,0.55985 -0.15441,-0.0593 -0.31986,0.12185 -0.44854,0.49096 l -0.20387,0.58484 -0.23745,-1.04552 c -0.1306,-0.57503 -0.41417,-1.4563 -0.63016,-1.95838 l -0.3927,-0.91287 -0.42904,0.40306 -0.42904,0.40307 -0.003,-1.25941 c -0.003,-1.27218 -0.42048,-3.68033 -0.67651,-3.9041 -0.0763,-0.0667 -2.389589,0.15072 -5.140549,0.4832 -4.2459,0.51316 -5.52398,0.59936 -8.45751,0.57042 -3.4454,-0.034 -3.45847,-0.0326 -4.36371,0.46019 -0.5366,0.29212 -1.19103,0.4943 -1.60004,0.4943 -0.95305,0 -3.47623,1.36961 -3.30824,1.79575 0.0641,0.16273 0.19108,2.05559 0.28205,4.20635 0.44734,10.57596 0.54547,12.6235 0.60799,12.68602 0.0372,0.0372 1.16085,0.14756 2.49694,0.2452 6.8223,0.49852 14.96187,2.41853 19.837179,4.67931 1.60466,0.74412 2.69002,1.53517 2.69002,1.9606 0,0.34912 -0.97102,0.92682 -2.13587,1.27071 l -0.95363,0.28153 1.7922,1.76081 c 3.00542,2.95278 4.73918,6.01757 5.93485,10.49113 0.68734,2.57166 0.86743,8.37659 0.35831,11.54949 -0.70675,4.40457 -2.17547,8.10753 -4.40055,11.0948 -1.57558,2.11527 -4.6819,4.76088 -6.219179,5.29678 -0.72912,0.25417 -0.58594,0.44552 0.43841,0.58592 1.542499,0.21143 2.279339,0.88686 2.272559,2.08318 -0.006,1.02952 -0.57942,1.22232 -2.634499,0.88555 -0.86406,-0.1416 -0.80964,-0.0989 1.09129,0.8566 1.100389,0.5531 2.149189,1.12472 2.330679,1.27026 0.65059,0.52174 0.30303,1.94814 -0.74853,3.07208 -0.35641,0.38093 -0.63788,0.50017 -1.18069,0.50017 -1.437609,0 -5.393589,-1.20725 -7.535099,-2.29949 l -1.49531,-0.76266 0.63137,0.93753 c 0.34725,0.51564 0.63137,1.13061 0.63137,1.36659 0,0.61178 -0.67914,1.4839 -1.38531,1.77896 -1.17675,0.49168 -2.00465,0.24939 -3.55813,-1.04132 -0.4681,-0.38893 -0.88997,-0.70714 -0.93749,-0.70714 -0.0475,0 0.24616,0.8209 0.65261,1.82421 l 0.73901,1.82421 -0.52169,0.54453 c -0.5752,0.60038 -1.92903,1.08163 -3.04279,1.08163 -0.99388,0 -1.79939,-0.43166 -2.7128,-1.45374 -1.02255,-1.1442 -1.04407,-1.17312 -1.86419,-2.50495 -0.38593,-0.62674 -0.72556,-1.11566 -0.75473,-1.08649 -0.0292,0.0292 0.0219,0.82842 0.11357,1.77611 0.39492,4.08445 0.12936,6.85835 -0.68658,7.17146 -0.82757,0.31757 -2.34771,0.27323 -3.27945,-0.0957 z m 8.24667,-89.65045 c 0.80908,0.30761 1.71236,0.20209 6.64182,-0.77588 4.06079,-0.80563 5.09205,-0.94948 6.65909,-0.92888 1.74549,0.0229 1.85745,0.002 1.90976,-0.3523 0.0512,-0.34678 3.181099,-2.2775 6.968759,-4.29871 0.53651,-0.28629 1.28761,-0.84473 1.66913,-1.24096 0.52911,-0.54953 1.1251,-0.88358 2.51247,-1.40822 1.00035,-0.37828 2.14621,-0.82792 2.54635,-0.9992 0.9847,-0.42151 4.0644,-2.73982 4.20203,-3.16317 0.14083,-0.43321 -0.38532,-1.15058 -1.30481,-1.77901 -1.29036,-0.8819 -1.68409,-0.9143 -4.04675,-0.33306 -3.89224,0.95753 -4.87385,1.4053 -7.43304,3.39063 -1.51012,1.1715 -2.18265,1.89785 -3.42545,3.69958 -0.37951,0.55019 -0.772109,1.05421 -0.872439,1.12004 -0.10033,0.0658 -0.49175,-0.085 -0.86983,-0.33521 -0.51616,-0.34158 -0.95854,-0.46346 -1.7757,-0.48921 -0.92191,-0.029 -1.36736,-0.17968 -2.91394,-0.9854 -2.22112,-1.15712 -5.24962,-2.9246 -7.19336,-4.19814 -0.79365,-0.52 -2.06227,-1.23574 -2.81916,-1.59054 -0.7569,-0.35479 -1.72069,-0.81159 -2.14176,-1.01511 -0.90128,-0.43562 -3.00874,-2.28876 -2.86583,-2.51999 0.0544,-0.088 0.34944,-0.10979 0.65574,-0.0485 l 0.55692,0.11139 -0.31687,-0.61752 c -0.17427,-0.33963 -0.46441,-0.80689 -0.64474,-1.03836 -0.18034,-0.23146 -0.28912,-0.52185 -0.24175,-0.64531 0.0474,-0.12346 -0.12089,-0.41897 -0.37393,-0.65669 -0.25303,-0.237712 -0.46006,-0.525976 -0.46006,-0.640586 0,-0.114607 0.29297,-0.550647 0.65104,-0.968973 l 0.65104,-0.760594 -1.3129,-1.454012 c -1.07286,-1.188177 -2.30827,-2.17868 -2.44014,-1.956404 -0.0151,0.02544 0.11471,1.928736 0.28846,4.229541 0.17374,2.300808 0.32214,5.127818 0.32979,6.282248 0.009,1.41486 0.16858,2.95612 0.48849,4.72892 0.41265,2.28669 0.46014,2.9307 0.36381,4.93397 -0.0609,1.2672 -0.15336,2.41492 -0.20537,2.55048 -0.0551,0.14357 0.13073,0.37957 0.44508,0.56526 0.29682,0.17534 1.48965,1.09054 2.65073,2.0338 1.87728,1.52509 2.16032,1.69627 2.55592,1.54587 0.27882,-0.10601 0.61899,-0.10293 0.9114,0.008 z"
       id="path854" />
  </g>
</svg>
