<?xml version="1.0" encoding="UTF-8" standalone="no"?>
<!-- Created with Inkscape (http://www.inkscape.org/) -->

<svg
   width="210mm"
   height="297mm"
   viewBox="0 0 210 297"
   version="1.1"
   id="svg998"
   inkscape:version="1.1 (c68e22c387, 2021-05-23)"
   sodipodi:docname="Katzen.svg"
   xmlns:inkscape="http://www.inkscape.org/namespaces/inkscape"
   xmlns:sodipodi="http://sodipodi.sourceforge.net/DTD/sodipodi-0.dtd"
   xmlns="http://www.w3.org/2000/svg"
   xmlns:svg="http://www.w3.org/2000/svg">
  <sodipodi:namedview
     id="namedview1000"
     pagecolor="#ffffff"
     bordercolor="#666666"
     borderopacity="1.0"
     inkscape:pageshadow="2"
     inkscape:pageopacity="0.0"
     inkscape:pagecheckerboard="0"
     inkscape:document-units="mm"
     showgrid="false"
     inkscape:zoom="0.69397447"
     inkscape:cx="334.30625"
     inkscape:cy="561.25984"
     inkscape:window-width="1920"
     inkscape:window-height="1017"
     inkscape:window-x="-8"
     inkscape:window-y="-8"
     inkscape:window-maximized="1"
     inkscape:current-layer="layer1" />
  <defs
     id="defs995" />
  <g
     inkscape:label="Ebene 1"
     inkscape:groupmode="layer"
     id="layer1">
    <path
       style="fill:none;stroke:#000000;stroke-width:0.5;stroke-miterlimit:4;stroke-dasharray:none;stroke-opacity:1"
       d="m 94.729018,200.71948 c -0.58527,-0.27688 -1.52057,-0.87519 -2.07843,-1.32958 -0.97939,-0.79772 -1.03081,-0.81723 -1.49351,-0.56694 -2.97874,1.61137 -6.27612,2.239 -9.82781,1.87061 -2.90484,-0.30127 -5.24548,-1.14764 -7.10903,-2.57057 -0.90498,-0.691 -0.78846,-0.678 -3.12152,-0.34805 -1.58958,0.22481 -1.98178,0.21885 -3.96875,-0.0602 -1.21268,-0.17034 -2.37824,-0.40312 -2.59014,-0.51728 -0.21191,-0.11416 -0.52941,-0.21026 -0.70556,-0.21354 -0.17615,-0.003 -0.63778,-0.15935 -1.02583,-0.3468 -0.38806,-0.18745 -0.76084,-0.3435 -0.8284,-0.34679 -0.31282,-0.0152 -2.50787,-1.42251 -4.02747,-2.58206 -2.96973,-2.26608 -6.90783,-6.70205 -9.69233,-10.91767 -0.51264,-0.77612 -1.06593,-1.60955 -1.22954,-1.85209 -0.16361,-0.24253 -0.35267,-0.56003 -0.42014,-0.70555 -0.0675,-0.14552 -0.32743,-0.62177 -0.5777,-1.05834 -0.93707,-1.63457 -1.83272,-3.44874 -1.83308,-3.71298 -1.7e-4,-0.15037 -0.0742,-0.34881 -0.16441,-0.44097 -0.18777,-0.19181 -0.53956,-1.1434 -1.17051,-3.16618 -0.24209,-0.77612 -0.52342,-1.64924 -0.6252,-1.94028 -0.21866,-0.6253 -0.60603,-2.19354 -0.93675,-3.79236 -0.13044,-0.63059 -0.32154,-1.54341 -0.42466,-2.02848 -0.56592,-2.66193 -1.02795,-6.33551 -1.27151,-10.10985 -0.2135,-3.30837 0.18504,-9.92531 0.79874,-13.26167 0.13384,-0.72761 0.32902,-1.83886 0.43374,-2.46945 0.25491,-1.5351 0.64127,-3.43789 0.89538,-4.40972 0.45115,-1.72533 0.69872,-2.60573 1.0451,-3.7166 0.51624,-1.65561 0.4749,-2.27874 -0.21189,-3.19376 -0.65643,-0.87457 -1.5095,-2.08791 -1.89618,-2.69697 -0.14552,-0.22921 -0.56026,-0.8507 -0.92164,-1.38109 -0.72663,-1.06646 -2.07379,-3.67952 -2.08258,-4.03955 -0.003,-0.12632 -0.12215,-0.38374 -0.26458,-0.57206 -0.14244,-0.18832 -0.25898,-0.45413 -0.25898,-0.5907 0,-0.13658 -0.11551,-0.49844 -0.2567,-0.80414 -0.32325,-0.69993 -0.7842,-1.98127 -0.96186,-2.67377 -0.0748,-0.29175 -0.21795,-0.68863 -0.31801,-0.88195 -0.10006,-0.19332 -0.36174,-0.9468 -0.58151,-1.67441 -0.21977,-0.7276 -0.49778,-1.60073 -0.6178,-1.94028 -0.21436,-0.60645 -0.39102,-1.24375 -0.88009,-3.175 -0.47114,-1.86046 -0.64196,-2.56298 -0.8149,-3.35138 -0.28402,-1.29482 -0.40656,-1.34426 -2.2473,-0.90678 -0.87385,0.20768 -1.73032,0.37761 -1.90325,0.37761 -0.17293,0 -0.65098,0.12853 -1.06232,0.28562 -0.4921,0.18794 -0.91643,0.23926 -1.24062,0.15004 l -0.49272,-0.13558 0.65413,-0.19563 c 0.35977,-0.10759 0.75268,-0.29417 0.87312,-0.41462 0.12045,-0.12045 0.28499,-0.219 0.36564,-0.219 0.28586,0 3.31058,-1.47595 3.31058,-1.61544 0,-0.078 -0.21828,-0.18744 -0.48507,-0.24331 -0.26679,-0.0559 -1.001,-0.21117 -1.63159,-0.345125 -0.63059,-0.13395 -1.66247,-0.32448 -2.29306,-0.42339 -1.92311,-0.30165 -3.59277,-0.57913 -4.05694,-0.67421 -1.08912,-0.22309 0.44693,-0.37865 3.88055,-0.39299 1.98879,-0.008 3.71188,-0.076 3.8291,-0.15055 0.14728,-0.0936 0.0276,-0.28349 -0.38745,-0.61466 -0.33032,-0.26356 -0.64053,-0.47921 -0.68935,-0.47921 -0.0488,0 -0.4301,-0.22459 -0.84728,-0.49909 -0.41717,-0.27451 -1.27443,-0.82598 -1.90502,-1.22549 -0.63059,-0.39951 -1.26134,-0.82976 -1.40167,-0.95611 -0.14033,-0.12635 -0.40298,-0.26941 -0.58367,-0.31792 -0.1807,-0.0485 -0.30401,-0.16757 -0.27403,-0.26458 0.0674,-0.21806 0.73817,-0.14155 0.81886,0.0934 0.0323,0.0941 0.21884,0.17119 0.41444,0.17119 0.1956,0 0.99671,0.27781 1.78024,0.61736 0.78354,0.33955 1.51103,0.61736 1.61665,0.61736 0.10563,0 0.48824,0.15875 0.85025,0.35278 0.36201,0.19403 0.93332,0.35278 1.26957,0.35278 h 0.61137 l -0.12566,-1.19068 c -0.21234,-2.01197 -0.14719,-10.59275 0.0907,-11.95034 0.11902,-0.6791 0.29764,-1.79035 0.39694,-2.469447 0.31497,-2.153888 0.63695,-3.591258 1.3237,-5.909028 0.12935,-0.436562 0.2897,-1.057065 0.35633,-1.378895 0.0666,-0.32183 0.23224,-0.79808 0.36802,-1.058333 0.13578,-0.260253 0.24736,-0.636611 0.24796,-0.83635 6e-4,-0.199739 0.11762,-0.517239 0.26006,-0.705555 0.14243,-0.188317 0.26198,-0.461457 0.26567,-0.606977 0.004,-0.145521 0.11779,-0.477519 0.25356,-0.737772 0.13578,-0.260253 0.30152,-0.721982 0.36831,-1.026066 0.17451,-0.794535 0.7589,-0.968012 1.30001,-0.385904 1.00797,1.084349 1.79943,2.466788 3.29078,5.747935 l 0.47295,1.040555 2.40703,-0.112802 c 1.32386,-0.06204 2.72452,-0.195887 3.11257,-0.297432 0.38806,-0.101547 2.55751,-0.233253 4.821,-0.292682 l 4.11544,-0.108051 0.1594,-0.419259 c 0.0877,-0.230591 0.24271,-0.516373 0.34453,-0.63507 0.10183,-0.118697 0.7225,-1.009564 1.37928,-1.979702 2.21481,-3.27151 2.53614,-3.701394 3.52699,-4.718403 0.54349,-0.55783 1.08408,-1.014236 1.20132,-1.014236 0.35536,0 1.26745,1.245616 1.93737,2.645833 0.34812,0.727604 0.74336,1.547631 0.87832,1.822281 0.13496,0.274649 0.24538,0.617123 0.24538,0.761051 0,0.143928 0.14968,0.633589 0.33261,1.088136 0.44977,1.117538 0.85086,2.698386 1.52993,6.029921 0.5248,2.574679 1.29689,4.456512 2.4144,5.884672 0.54851,0.70098 3.25542,3.78464 3.82596,4.35846 0.15156,0.15244 0.79151,0.86193 1.4221,1.57664 1.5891,1.80108 2.24311,2.45888 2.3442,2.35779 0.0822,-0.0823 -0.2237,-1.30857 -0.61067,-2.4477 -0.0989,-0.29104 -0.28459,-0.96573 -0.41271,-1.49931 -0.12812,-0.53357 -0.30893,-1.24795 -0.40179,-1.5875 -0.0929,-0.33955 -0.293,-1.21267 -0.44476,-1.94028 -0.15175,-0.7276 -0.4005,-1.91822 -0.55276,-2.645828 -0.33509,-1.601204 -0.60414,-3.478184 -1.25155,-8.73125 -0.16334,-1.325255 -0.33314,-4.600885 -0.40233,-7.761111 l -0.11971,-5.468055 -1.14653,0.04513 c -0.63059,0.02482 -1.50371,0.160458 -1.94028,0.301407 -1.0531,0.340007 -2.49819,0.422659 -2.59461,0.148399 -0.0435,-0.123791 0.21845,-0.289375 0.63548,-0.401667 0.39023,-0.10508 0.75724,-0.268272 0.81557,-0.362649 0.0583,-0.09438 0.24145,-0.171596 0.40693,-0.171596 0.16549,0 0.59708,-0.15875 0.95909,-0.352778 0.36202,-0.194028 0.80341,-0.352778 0.98088,-0.352778 0.17747,0 0.50715,-0.196366 0.73262,-0.436368 0.47997,-0.510905 0.4489,-0.530597 -1.2304,-0.780032 -2.48498,-0.369105 -4.3691,-0.711336 -5.37282,-0.975919 -0.57822,-0.15242 -1.31243,-0.277125 -1.6316,-0.277125 -0.31917,0 -0.5803,-0.07937 -0.5803,-0.176389 0,-0.112548 1.48806,-0.176389 4.11142,-0.176389 5.08841,0 5.22666,-0.05096 3.59589,-1.325391 -2.90311,-2.268765 -4.15199,-3.358824 -4.0104,-3.500415 0.15409,-0.154086 1.1559,0.273594 2.65309,1.132622 2.83919,1.629014 3.47562,1.918178 3.74804,1.702913 0.1989,-0.157179 0.3273,-0.851668 0.47992,-2.59584 0.1146,-1.309687 0.29211,-2.936875 0.39446,-3.615972 0.10236,-0.679097 0.28589,-1.949097 0.40784,-2.822222 0.45533,-3.259878 1.59658,-8.978045 2.12986,-10.671527 0.13748,-0.436563 0.24917,-0.9525 0.24821,-1.146528 -8.8e-4,-0.194028 0.11545,-0.709965 0.25868,-1.146528 0.14324,-0.436562 0.42389,-1.389062 0.62367,-2.116666 0.94077,-3.426326 1.61801,-5.484343 1.99315,-6.056889 0.16473,-0.251398 0.2995,-0.539256 0.2995,-0.639683 0,-0.100427 0.33734,-0.178135 0.74965,-0.172683 0.6912,0.0091 0.81519,0.08823 1.5901,1.014236 0.84957,1.015235 2.07437,2.722716 2.30198,3.209185 0.0681,0.145521 0.29293,0.542396 0.49965,0.881945 0.20671,0.339548 0.57326,0.974548 0.81456,1.411111 0.51523,0.932191 1.58243,2.795997 1.81797,3.175 0.0904,0.14552 0.24121,0.442016 0.33506,0.658878 0.29208,0.675001 1.47582,2.158546 1.80591,2.263314 0.17295,0.05489 2.27926,0.116264 4.68069,0.136382 2.73539,0.02292 4.8173,0.123515 5.57386,0.269332 1.706062,0.328822 2.284742,0.173901 3.319812,-0.88877 0.84328,-0.865764 3.8022,-4.531212 5.13423,-6.360184 0.36621,-0.502831 0.7234,-0.957393 0.79375,-1.010137 0.0704,-0.05274 0.49739,-0.536269 0.94896,-1.0745 1.09466,-1.304721 2.11542,-2.007794 2.70147,-1.860703 1.46056,0.366576 2.78691,5.344116 3.27118,12.27611 0.0983,1.406701 0.25347,3.391076 0.34487,4.409722 0.0914,1.018646 0.17871,3.122083 0.194,4.674305 0.0153,1.552222 0.0783,3.854097 0.13998,5.115278 l 0.11218,2.293055 0.61736,-0.01646 c 0.33955,-0.009 1.35105,-0.306703 2.24778,-0.661458 0.89673,-0.354748 1.75281,-0.645001 1.90239,-0.645001 0.14958,0 0.47169,-0.130862 0.71579,-0.290804 0.33417,-0.21896 0.49388,-0.240748 0.64643,-0.08819 0.15256,0.152553 0.14571,0.202609 -0.0277,0.202609 -0.12666,0 -0.449,0.178593 -0.71629,0.396875 -0.57687,0.471083 -0.66812,0.531625 -2.82813,1.876405 -1.57182,0.978583 -2.01067,1.433936 -1.61666,1.677446 0.0917,0.05669 1.69592,0.186094 3.5649,0.287576 3.64408,0.197864 4.67274,0.411928 2.89399,0.602232 -0.57743,0.06178 -1.80393,0.222568 -2.72556,0.357311 -0.92164,0.134745 -2.1077,0.295114 -2.6357,0.356376 -1.13092,0.131214 -1.26197,0.193172 -1.13092,0.534672 0.0929,0.242157 1.07542,0.765762 3.19335,1.701837 0.50933,0.225109 0.92604,0.469284 0.92604,0.542613 0,0.222428 -1.32148,0.149295 -2.06919,-0.114512 -0.38635,-0.13631 -1.22175,-0.303449 -1.85646,-0.37142 -1.0954,-0.117308 -1.16045,-0.103303 -1.28076,0.275743 -0.15464,0.487228 0.0297,3.334145 0.37063,5.723373 0.47335,3.317385 1.18245,4.79086 3.68926,7.666168 1.32568,1.52056 1.58593,1.680619 1.80488,1.110043 0.065,-0.169298 0.51888,-0.839288 1.0087,-1.488865 4.14381,-5.495332 4.74825,-6.819233 5.21961,-11.432485 0.36324,-3.555058 0.48882,-4.4715 0.77351,-5.644444 0.87688,-3.612945 1.68378,-5.635835 2.5668,-6.434954 0.33691,-0.3049 0.39625,-0.262433 2.24738,1.608374 1.04574,1.05685 2.76659,2.938168 3.82411,4.180706 l 1.92278,2.259162 0.89945,-0.109165 c 0.49469,-0.06004 1.25663,-0.180554 1.69319,-0.267806 0.69836,-0.139575 6.56453,-0.341546 10.19509,-0.351014 l 1.28744,-0.0034 0.34028,-0.749653 c 0.18715,-0.412309 0.34251,-0.94809 0.34524,-1.190625 0.003,-0.242535 0.12353,-0.668327 0.26846,-0.946205 0.14492,-0.277878 0.26349,-0.580448 0.26349,-0.67238 0,-0.297263 0.92003,-2.148524 1.53086,-3.080352 0.99487,-1.517697 1.07716,-1.466592 2.60218,1.616015 0.73426,1.484205 1.33502,2.778605 1.33502,2.876443 0,0.09784 0.1153,0.402604 0.25622,0.677254 0.14092,0.27465 0.42805,0.975614 0.63808,1.557697 0.21002,0.582083 0.45091,1.194557 0.5353,1.361054 0.0844,0.166495 0.22682,0.603057 0.3165,0.970138 0.0897,0.36708 0.24637,0.905544 0.34821,1.196586 0.35998,1.028834 0.7642,2.474503 0.91174,3.260792 0.0822,0.437883 0.22865,1.153339 0.32553,1.589902 0.54148,2.440134 0.73268,3.98747 0.91541,7.408333 0.15818,2.961248 0.25994,3.838012 0.4643,4.000667 0.26226,0.208744 0.87149,-0.04754 4.50761,-1.896201 1.0131,-0.515077 2.38429,-0.752565 1.65189,-0.286107 -0.18144,0.115562 -1.09426,0.7931 -2.02847,1.505638 -0.93421,0.712539 -2.12019,1.576792 -2.63551,1.920563 -0.68841,0.459246 -0.88474,0.677056 -0.74017,0.821141 0.12558,0.125162 1.19835,0.204104 2.96541,0.218215 5.04557,0.04029 5.67906,0.06481 5.67906,0.219748 0,0.08451 -0.41672,0.205924 -0.92604,0.269794 -0.98325,0.123305 -3.17705,0.513976 -5.07118,0.903074 -0.63059,0.129537 -1.60293,0.286646 -2.16076,0.349132 -0.55783,0.06248 -1.01424,0.172346 -1.01424,0.244135 0,0.145718 0.97618,0.902423 1.16416,0.902423 0.0661,0 0.486,0.167304 0.93319,0.371794 1.44868,0.66245 1.8644,0.83673 2.26827,0.9509 0.21829,0.0617 0.39688,0.18871 0.39688,0.28223 0,0.34732 -0.58244,0.37248 -1.73006,0.0747 -0.6492,-0.16844 -1.53754,-0.36992 -1.97411,-0.44774 -0.43656,-0.0778 -1.00705,-0.19576 -1.26776,-0.26208 -0.44193,-0.11242 -0.4814,-0.0747 -0.58333,0.55722 -0.0601,0.37279 -0.21896,1.35249 -0.35294,2.17711 -0.13399,0.82462 -0.32905,2.09462 -0.43346,2.82222 -0.47425,3.3048 -0.56926,3.83814 -0.8102,4.54818 -0.14106,0.4157 -0.25647,0.94631 -0.25647,1.17914 0,0.23283 -0.0805,0.635 -0.17885,0.89372 -0.0984,0.25871 -0.28921,0.95841 -0.42412,1.55488 -0.1349,0.59648 -0.36731,1.52107 -0.51646,2.05464 -0.14915,0.53358 -0.38845,1.4067 -0.53178,1.940275 -0.14332,0.53358 -0.34316,1.20826 -0.44408,1.49931 -0.25304,0.72971 -0.71605,2.18522 -0.89777,2.82222 -0.19782,0.6934 -0.52445,1.63402 -0.79629,2.29305 -0.12004,0.29105 -0.39289,1.00542 -0.60633,1.5875 -0.41791,1.1397 -0.5218,1.37964 -1.52744,3.52778 -0.57792,1.23449 -1.5181,2.91332 -2.36716,4.22696 -0.14552,0.22514 -0.5424,0.86381 -0.88195,1.41927 -1.46088,2.38983 -1.59362,2.75167 -1.24579,3.39609 0.69613,1.2897 2.29275,5.46959 2.67729,7.00907 0.0969,0.38805 0.25106,0.78096 0.34251,0.87312 0.0915,0.0922 0.16627,0.30878 0.16627,0.48137 0,0.17259 0.15001,0.81156 0.33335,1.41993 0.60773,2.01657 1.15117,4.28111 1.51417,6.30961 0.1302,0.7276 0.32189,1.75948 0.42598,2.29305 0.6528,3.34655 0.92342,6.74512 0.927,11.64167 0.004,5.71543 -0.24335,8.20891 -1.36584,13.75833 -0.58749,2.90448 -0.78363,3.74101 -0.95007,4.052 -0.0985,0.18399 -0.17952,0.51834 -0.18012,0.743 -5.3e-4,0.22466 -0.10849,0.6143 -0.23976,0.86586 -0.13127,0.25156 -0.2925,0.7443 -0.35828,1.09497 -0.0658,0.35068 -0.23522,0.85924 -0.37652,1.13012 -0.1413,0.27089 -0.25739,0.58165 -0.25799,0.69059 -8.8e-4,0.17175 -0.3512,1.06917 -0.88652,2.27138 -0.35608,0.79968 -0.70207,1.7294 -0.70207,1.88658 0,0.32691 5.80468,-0.16762 7.80255,-0.66474 0.55637,-0.13844 1.17205,-0.2517 1.36819,-0.2517 0.19614,0 1.09031,-0.28442 1.98704,-0.63205 3.6996,-1.43417 5.35804,-2.55483 8.85343,-5.98254 3.21552,-3.15324 4.82529,-6.1543 5.81884,-10.84791 0.37528,-1.77287 0.37365,-5.78968 -0.003,-7.37939 -0.32808,-1.38472 -0.98343,-3.57 -1.14599,-3.82131 -0.3211,-0.4964 -0.86712,-2.81794 -0.8569,-3.64335 0.0129,-1.04497 0.41483,-2.3773 1.00513,-3.33212 0.84642,-1.36908 2.39093,-1.98827 3.96,-1.58757 2.34418,0.59864 4.32253,2.82456 6.04296,6.79915 0.8801,2.03324 1.3983,5.44892 1.26827,8.35975 -0.35907,8.03809 -3.24502,14.42845 -9.20697,20.38693 -1.78985,1.78881 -5.25493,4.55103 -6.87342,5.47921 -0.48507,0.27818 -0.92163,0.55648 -0.97014,0.61843 -0.0723,0.0923 -2.13335,1.24324 -3.175,1.77295 -0.79143,0.40246 -1.91672,0.85968 -2.38125,0.96754 -0.29104,0.0676 -0.60854,0.18426 -0.70556,0.25931 -0.097,0.075 -0.57326,0.21877 -1.05833,0.31938 -0.48507,0.10062 -1.27882,0.27046 -1.76389,0.37743 -4.00009,0.88209 -6.65053,1.14126 -11.70243,1.1443 l -3.76494,0.002 -1.31561,1.5875 c -2.46294,2.97193 -5.24173,5.63933 -7.51951,7.21807 -1.28239,0.88882 -3.94103,2.21872 -4.43555,2.21872 -0.16562,0 -0.46142,0.0858 -0.65733,0.19064 -0.19591,0.10485 -1.40116,0.33869 -2.67833,0.51964 -2.18094,0.309 -2.44191,0.31205 -4.29195,0.0502 l -1.96981,-0.2788 -0.76422,0.62232 c -0.83599,0.68077 -2.43153,1.54538 -3.67463,1.99126 -1.4545,0.52168 -5.05065,0.95327 -6.52639,0.78325 -3.16137,-0.36426 -4.5891,-0.75944 -6.17361,-1.70884 -0.53358,-0.31968 -1.02163,-0.58146 -1.08456,-0.58171 -0.0629,0 -0.50873,0.38564 -0.99065,0.85751 -0.48193,0.4719 -1.31849,1.06721 -1.85903,1.32292 -0.9589,0.45364 -1.06781,0.46494 -4.477402,0.4648 -3.4769,-1.4e-4 -3.5,-0.003 -4.55875,-0.50357 z m 7.249232,-20.08969 c 1.69994,-1.72199 3.32484,-3.31503 3.61089,-3.54009 0.60219,-0.47377 1.1473,-0.39278 1.33082,0.19773 0.11251,0.36204 1.23391,2.28877 2.6349,4.52716 0.62435,0.99755 1.27987,1.44184 1.51484,1.02672 0.0707,-0.12493 0.38963,-0.58433 0.7087,-1.02089 0.31907,-0.43657 0.98403,-1.38907 1.47768,-2.11667 0.49365,-0.7276 1.1916,-1.73882 1.55099,-2.24715 0.3594,-0.50833 0.65345,-0.98678 0.65345,-1.06323 0,-0.0765 0.13965,-0.25857 0.31034,-0.40472 0.17068,-0.14614 0.47444,-0.49099 0.67501,-0.76633 0.27666,-0.37979 0.45432,-0.47217 0.7361,-0.38273 0.20429,0.0648 1.15069,0.88733 2.10311,1.82778 0.95243,0.94044 2.002,1.93011 2.33238,2.19927 0.5656,0.46079 0.61972,0.47215 0.92644,0.19457 0.36375,-0.32919 1.20361,-1.76229 1.21288,-2.06961 0.003,-0.10905 0.15935,-0.51577 0.3468,-0.90382 0.18744,-0.38806 0.3435,-0.84968 0.34679,-1.02583 0.003,-0.17616 0.0978,-0.49179 0.20996,-0.70141 0.11218,-0.20962 0.2655,-0.62112 0.3407,-0.91444 0.17812,-0.69473 0.63861,-1.97531 0.96251,-2.67665 0.14119,-0.3057 0.2567,-0.64025 0.2567,-0.74344 0,-0.27886 0.6727,-0.58701 1.0323,-0.47289 0.40197,0.12759 2.20122,2.60299 2.54708,3.50428 0.0625,0.16299 0.19558,0.29635 0.29564,0.29635 0.28227,0 0.88748,-0.6731 0.88748,-0.98702 0,-0.15481 0.11324,-0.49215 0.25165,-0.74965 0.24388,-0.45375 0.92275,-2.17105 2.20721,-5.58347 0.10955,-0.29104 0.34676,-0.72244 0.52714,-0.95868 l 0.32795,-0.42951 1.13613,1.09097 c 0.62488,0.60004 1.28814,1.0907 1.47393,1.09035 0.22983,-3.5e-4 0.48815,-0.29641 0.80819,-0.92604 0.87075,-1.71309 1.79421,-3.77062 2.51327,-5.59973 0.17162,-0.43656 0.41677,-1.03187 0.54479,-1.32291 0.12801,-0.29104 0.31338,-0.76729 0.41193,-1.05834 0.0985,-0.29104 0.34997,-0.96573 0.55873,-1.4993 0.20875,-0.53358 0.45637,-1.24795 0.55027,-1.5875 0.0939,-0.33955 0.23832,-0.77611 0.32094,-0.97014 0.0826,-0.19403 0.31792,-0.9084 0.52289,-1.5875 1.22783,-4.06795 1.67589,-6.26181 1.27885,-6.26181 -0.0814,0 -0.23961,0.1786 -0.3515,0.39688 -0.11188,0.21828 -0.27341,0.51594 -0.35895,0.66146 -0.14498,0.24661 -0.61644,1.24075 -1.92398,4.05694 -0.29277,0.63059 -0.85805,1.84568 -1.25616,2.70019 -0.3981,0.85451 -0.72383,1.61458 -0.72383,1.68904 0,0.0745 -0.20272,0.32583 -0.45048,0.55859 -0.52051,0.489 -0.59338,0.46086 -2.19232,-0.84678 -1.14126,-0.93333 -1.7003,-0.97704 -2.24052,-0.17518 -0.42029,0.62382 -0.98994,1.74731 -1.72105,3.39428 -0.2584,0.58208 -0.57704,1.29646 -0.7081,1.5875 -0.13106,0.29104 -0.40966,0.92604 -0.61911,1.41111 -0.68684,1.59071 -1.14768,2.40859 -1.44953,2.5726 -0.38817,0.21092 -0.38309,0.21185 -0.8076,-0.14725 -0.94091,-0.79591 -1.26635,-1.05846 -2.34873,-1.89479 -0.63819,-0.49312 -1.60097,-1.12728 -2.13951,-1.40924 -0.92776,-0.48574 -1.00191,-0.49775 -1.41254,-0.2287 -0.3719,0.24368 -1.82246,2.93726 -2.68611,4.98794 -0.8153,1.93585 -1.7588,3.61597 -2.03061,3.61597 -0.16536,0 -0.56632,-0.37703 -0.89103,-0.83785 -1.13036,-1.6042 -3.76225,-4.45382 -4.11351,-4.45382 -0.1881,0 -0.6428,0.79232 -1.26533,2.20486 -1.091,2.4755 -1.30237,2.97014 -1.77128,4.14514 -0.17422,0.43656 -0.62454,1.4486 -1.0007,2.24896 -0.86601,1.84258 -1.1693,1.90798 -2.17978,0.47006 -0.38077,-0.54183 -0.82015,-1.1173 -0.97641,-1.27882 -0.15626,-0.16152 -0.63251,-0.77077 -1.05833,-1.35388 -1.76696,-2.41964 -3.74813,-4.70841 -4.30583,-4.97436 -0.57273,-0.27311 -0.60003,-0.26752 -1.26093,0.25847 -0.694982,0.55311 -5.107692,5.03101 -6.262962,6.35548 -0.35671,0.40894 -0.72602,0.74354 -0.8207,0.74354 -0.25216,0 -1.28954,-1.64795 -2.03066,-3.22583 -0.35488,-0.75556 -0.64523,-1.42155 -0.64523,-1.47999 0,-0.0584 -0.16731,-0.47212 -0.3718,-0.91931 -0.66926,-1.46359 -0.83698,-1.86539 -0.9638,-2.30896 -0.0688,-0.24066 -0.28554,-0.65456 -0.48163,-0.91978 l -0.35652,-0.48223 -1.60306,1.55267 c -0.88168,0.85396 -2.24775,2.16473 -3.03573,2.91281 l -1.43267,1.36016 -0.34297,-0.58192 c -0.34464,-0.58479 -0.63866,-1.49054 -0.96189,-2.96318 -0.0958,-0.43656 -0.28129,-1.15094 -0.41217,-1.5875 -0.13088,-0.43656 -0.28421,-1.07156 -0.34073,-1.41111 -0.1876,-1.1269 -0.70921,-2.6861 -0.92649,-2.76947 -0.24831,-0.0953 -1.9223,0.70766 -2.44068,1.1707 -0.38708,0.34575 -2.3361,1.61336 -3.67116,2.38765 -1.44495,0.83803 -1.49187,0.77357 -2.75637,-3.78749 -0.20173,-0.72761 -0.48508,-1.69076 -0.62969,-2.14034 -0.14461,-0.44958 -0.26292,-0.95353 -0.26292,-1.11987 0,-0.52839 -1.34914,-3.44257 -1.59376,-3.44257 -0.0945,0 -0.95715,0.39688 -1.91707,0.88195 -0.95991,0.48507 -1.80083,0.88194 -1.8687,0.88194 -0.0679,0 -0.38755,0.12535 -0.7104,0.27855 -0.67753,0.32151 -1.30927,0.27877 -1.50997,-0.10216 -0.15193,-0.28836 -0.77595,-1.69176 -0.94118,-2.11667 -0.0566,-0.14552 -0.38286,-0.74083 -0.72506,-1.32291 -0.34219,-0.58209 -0.74149,-1.29646 -0.88733,-1.5875 -0.14584,-0.29105 -0.69441,-1.20386 -1.21905,-2.02848 -0.52464,-0.82461 -1.32656,-2.1343 -1.78203,-2.91041 -1.0004,-1.70463 -0.91827,-1.60815 -1.16174,-1.36468 -0.14757,0.14756 -0.14834,0.465 -0.003,1.22296 0.3566,1.85925 0.95245,4.59479 1.35638,6.22713 0.13204,0.53358 0.40681,1.68452 0.61061,2.55764 0.20379,0.87313 0.48674,1.95534 0.62876,2.40493 0.14202,0.44958 0.25783,0.96552 0.25735,1.14652 -5.3e-4,0.18101 0.11579,0.6863 0.25838,1.12286 0.14259,0.43656 0.42193,1.38906 0.62076,2.11666 0.88034,3.22155 1.12953,3.88056 1.46732,3.88056 0.17988,0 0.79039,-0.35654 1.35671,-0.79231 0.56632,-0.43577 1.25429,-0.87771 1.52883,-0.98209 0.43505,-0.16541 0.54463,-0.13634 0.85312,0.22634 0.80835,0.95033 1.59334,4.64739 1.7706,8.33903 0.0559,1.16417 0.16106,2.17639 0.23369,2.24939 0.18622,0.18717 0.94546,-0.41023 3.00264,-2.36256 1.69318,-1.6069 2.7457,-2.34937 3.05736,-2.15675 0.23875,0.14755 0.84452,1.6115 0.84452,2.04092 0,0.22425 0.0825,0.68501 0.18343,1.02392 0.10089,0.3389 0.29336,1.58259 0.4277,2.76375 0.23454,2.06204 0.45904,2.87953 0.79079,2.87953 0.0851,0 0.57844,-0.28309 1.09623,-0.62909 1.23677,-0.82644 4.88491,-2.61037 6.27163,-3.06682 1.49098,-0.49076 1.78528,-0.47156 1.90142,0.12403 0.052,0.26679 0.21228,0.85291 0.35614,1.30249 0.14385,0.44959 0.26155,0.972 0.26155,1.16092 0,0.48501 1.28878,4.81588 1.78167,5.9872 0.56379,1.33983 0.68724,1.27528 4.06712,-2.12645 2.73531,-2.75299 3.8062,-3.62116 4.17608,-3.38551 0.0646,0.0412 0.26513,0.37908 0.44559,0.75091 0.18045,0.37184 0.40033,0.79513 0.48861,0.94065 0.0883,0.14552 0.28052,0.50271 0.42718,0.79375 0.14666,0.29104 0.40303,0.74303 0.56972,1.00442 0.16668,0.26139 0.61788,1.00195 1.00266,1.64569 0.61017,1.0208 1.41382,2.02419 1.62125,2.02419 0.0373,0 1.458752,-1.4089 3.158682,-3.1309 z m 3.55114,-24.40296 c 0.14053,-0.14053 0.12839,-0.32183 -0.0443,-0.66146 -0.21315,-0.41924 -0.745,-1.62811 -1.13708,-2.58454 -0.17375,-0.42383 -0.81302,-1.9109 -1.13741,-2.64583 -0.12846,-0.29104 -0.52796,-1.24354 -0.88777,-2.11667 -0.3598,-0.87312 -0.75874,-1.82562 -0.88651,-2.11666 -0.12778,-0.29104 -0.40661,-0.92604 -0.61962,-1.41111 -0.42757,-0.97368 -0.72988,-1.6868 -1.030982,-2.43197 -0.16728,-0.41399 -0.25231,-0.46298 -0.53809,-0.31003 -0.18668,0.0999 -0.43384,0.46774 -0.54924,0.81742 -0.1154,0.34967 -0.31971,0.84637 -0.45402,1.10378 -0.1343,0.25741 -0.2472,0.58708 -0.25088,0.7326 -0.004,0.14552 -0.12324,0.41866 -0.26567,0.60698 -0.14244,0.18832 -0.25897,0.45064 -0.25897,0.58294 0,0.1323 -0.14471,0.57354 -0.32158,0.98052 -0.17686,0.40699 -0.46199,1.09717 -0.63361,1.53373 -0.17162,0.43656 -0.41906,1.03187 -0.54986,1.32292 -0.1308,0.29104 -0.40631,0.96573 -0.61225,1.4993 -0.20593,0.53358 -0.48848,1.19485 -0.62787,1.4695 -0.1394,0.27465 -0.25345,0.63402 -0.25345,0.7986 0,0.16458 -0.11634,0.46535 -0.25855,0.66837 -0.1422,0.20303 -0.33811,0.71678 -0.43536,1.14168 -0.14879,0.65006 -0.13041,0.8075 0.11587,0.99303 0.39117,0.29467 11.344102,0.31998 11.637192,0.0269 z m 18.7888,-22.16147 c 7.64512,-3.80943 9.82911,-4.96972 9.83368,-5.22434 0.003,-0.18002 -0.20274,-0.5769 -0.45771,-0.88194 -0.38287,-0.45806 -4.08129,-4.39982 -6.151,-6.55571 -0.29104,-0.30316 -0.8795,-0.94225 -1.30769,-1.4202 -0.42819,-0.47795 -1.93631,-2.08926 -3.35139,-3.5807 -1.41507,-1.49143 -2.62322,-2.79095 -2.68476,-2.88781 -0.35245,-0.55479 -0.82364,0.47162 -1.19398,2.6009 -0.14255,0.81959 -0.45897,2.23084 -0.9294,4.14514 -0.10728,0.43656 -0.25573,1.15093 -0.32988,1.5875 -0.0742,0.43656 -0.29435,1.50812 -0.48933,2.38125 -0.19497,0.87312 -0.44733,2.06375 -0.56079,2.64583 -0.11347,0.58208 -0.31918,1.41552 -0.45715,1.85208 -0.13797,0.43657 -0.25046,0.97445 -0.24998,1.1953 5.3e-4,0.22085 -0.14882,1.0146 -0.33178,1.76389 -0.18296,0.74929 -0.46754,1.99734 -0.6324,2.77345 -0.16487,0.77611 -0.41205,1.86632 -0.5493,2.42269 -0.27179,1.10179 -0.32665,2.07393 -0.11724,2.07746 0.0728,0.001 4.5548,-2.20143 9.9601,-4.89479 z m -38.753122,3.79013 c -0.0654,-0.50932 -0.22543,-1.32292 -0.35572,-1.80799 -0.2267,-0.84402 -0.31856,-1.26549 -0.88417,-4.05694 -0.46658,-2.30265 -0.65669,-3.17299 -0.88617,-4.05695 -0.12593,-0.48507 -0.30886,-1.3185 -0.40652,-1.85208 -0.0977,-0.53358 -0.26409,-1.36701 -0.36986,-1.85208 -0.10577,-0.48507 -0.31747,-1.47726 -0.47044,-2.20486 -0.15297,-0.72761 -0.38935,-1.75948 -0.52529,-2.29306 -0.27796,-1.09102 -0.54417,-2.40383 -0.80479,-3.96875 -0.19115,-1.1478 -0.66278,-2.29305 -0.94429,-2.29305 -0.0968,0 -1.20792,1.10847 -2.4691,2.46327 -1.26118,1.3548 -2.53118,2.71583 -2.82223,3.02452 -3.00727,3.18955 -5.14767,5.46786 -6.02994,6.41845 -0.58526,0.63059 -1.46988,1.58309 -1.96582,2.11667 -0.49594,0.53358 -0.90212,1.12889 -0.90262,1.32292 -7.1e-4,0.29023 1.71047,1.20401 9.6522,5.15419 5.30922,2.64078 9.79948,4.80375 9.97836,4.8066 0.29021,0.005 0.31244,-0.0945 0.2064,-0.92086 z M 42.623508,93.972555 c 0.43743,-0.23411 0.43255,-0.80073 -0.0156,-1.81393 -0.33797,-0.76401 -1.27294,-1.88403 -1.57276,-1.88403 -0.0762,0 -0.1894,0.43284 -0.25158,0.96187 -0.0622,0.52903 -0.31002,1.33233 -0.55076,1.78509 -0.24074,0.45277 -0.39455,0.89305 -0.3418,0.97841 0.13388,0.21662 2.31747,0.19471 2.73252,-0.0274 z m 10.77268,-0.52056 c 0.15902,-10e-4 0.46979,-0.14869 0.6906,-0.32749 l 0.40146,-0.32508 -0.38783,-0.80114 c -0.2133,-0.44063 -0.43591,-1.20715 -0.49468,-1.70339 -0.0916,-0.77363 -0.16111,-0.90225 -0.48746,-0.90225 -0.63762,0 -1.64418,1.19903 -1.88599,2.24661 -0.19319,0.83692 -0.18148,0.95834 0.12527,1.29938 0.42812,0.47598 0.94438,0.69577 1.39671,0.59464 0.19403,-0.0434 0.48289,-0.08 0.64192,-0.0813 z m -15.14324,-1.74737 c 0.0566,-0.67495 0.23281,-1.47842 0.3916,-1.7855 0.1588,-0.30708 0.24578,-0.67022 0.1933,-0.80698 -0.13926,-0.36291 -1.15687,-0.30598 -1.82629,0.10218 -0.49478,0.30167 -0.57326,0.44728 -0.57326,1.06354 0,1.13089 1.11376,3.02354 1.60177,2.72193 0.0605,-0.0374 0.15629,-0.62021 0.21288,-1.29517 z m 18.65945,0.15051 c 0.18842,-0.10083 0.65945,-0.58421 1.04674,-1.07417 1.18516,-1.49934 0.85836,-2.38341 -0.95003,-2.57005 -1.38961,-0.14342 -1.60298,0.0692 -1.13383,1.12977 0.24976,0.56462 0.33268,1.03945 0.27338,1.56549 -0.0473,0.42002 -10e-4,0.83876 0.10352,0.94368 0.23147,0.23147 0.23749,0.23152 0.66022,0.005 z M 144.59184,76.234897 c 0.11267,-0.06964 0.15808,-0.491547 0.11231,-1.043478 -0.059,-0.712078 -0.21173,-1.096894 -0.65955,-1.662307 -0.85075,-1.074157 -1.23761,-0.949323 -1.53094,0.494011 -0.12551,0.61756 -0.35568,1.317405 -0.5115,1.555207 -0.23368,0.356655 -0.24339,0.480455 -0.0554,0.70695 0.18088,0.21794 0.45769,0.25312 1.34191,0.170549 0.61272,-0.05722 1.19915,-0.156635 1.30319,-0.220932 z m 10.80817,-0.348599 c 0.35205,-0.352057 0.34877,-0.396985 -0.0806,-1.101147 -0.19602,-0.321518 -0.43857,-0.967697 -0.53899,-1.435952 -0.15393,-0.71777 -0.23649,-0.837277 -0.52609,-0.761546 -0.18892,0.0494 -0.54139,0.483824 -0.78326,0.965376 -0.52362,1.042501 -0.58394,2.156167 -0.13108,2.419934 0.482,0.28074 1.74573,0.227573 2.05997,-0.08666 z m -15.54439,-2.134154 c 0.0586,-1.035195 0.0659,-1.948007 0.0162,-2.028472 -0.16647,-0.269341 -1.20808,-0.135714 -2.00988,0.257843 -0.92139,0.452254 -1.10452,1.0267 -0.58489,1.834637 0.44153,0.686493 1.81442,1.774437 2.2781,1.805268 0.1235,0.0082 0.23262,-0.670596 0.3005,-1.869276 z m 18.77194,-0.08289 c 0.38053,-0.63129 0.65844,-2.23036 0.44252,-2.546142 -0.0713,-0.104319 -0.38957,-0.340839 -0.70719,-0.525598 -0.45316,-0.263601 -0.64304,-0.292758 -0.88194,-0.135421 -0.16745,0.110277 -0.2735,0.307107 -0.23567,0.437402 0.0378,0.130295 0.0913,1.110026 0.11884,2.177179 0.0275,1.067153 0.0561,1.971712 0.0635,2.010131 0.0263,0.136716 0.84862,-0.83472 1.19993,-1.417551 z m -54.6895,-18.142545 c 1.52999,-0.764547 2.76142,-2.197227 3.28874,-3.826233 0.38368,-1.185265 0.37367,-1.588687 -0.045,-1.812735 -0.47436,-0.253866 -1.72592,-0.228799 -1.89185,0.03789 -0.0755,0.121267 -0.13967,0.855486 -0.1427,1.631597 -0.004,1.103221 -0.0851,1.545814 -0.37039,2.028472 -0.42031,0.711148 -0.98249,0.754696 -1.50181,0.116334 -0.26901,-0.330669 -0.27685,-0.41765 -0.0595,-0.659389 0.51979,-0.577975 0.0928,-1.75 -0.6376,-1.75 -0.33792,0 -1.58141,1.418482 -1.58141,1.803959 0,0.134904 -0.11654,0.399359 -0.25897,0.587675 -0.26082,0.344835 -0.37501,2.030869 -0.1526,2.253273 0.0647,0.06468 0.60762,0.117593 1.20655,0.117593 0.8567,0 1.3145,-0.112706 2.14645,-0.528438 z m -13.513162,0.169455 c 0.21167,-0.113286 0.33899,-0.364365 0.33542,-0.661459 -0.0107,-0.893281 -1.04904,-3.38928 -1.40988,-3.38928 -0.25081,0 -0.87742,0.667258 -0.87742,0.93434 0,0.356463 -1.38671,1.63245 -1.56316,1.438353 -0.0839,-0.09231 -0.24122,-0.433151 -0.34956,-0.75743 -0.17678,-0.529133 -0.14857,-0.653067 0.27508,-1.2085 l 0.47206,-0.618903 -0.50567,-0.908166 c -0.61688,-1.107888 -0.69833,-1.166657 -1.62161,-1.170049 -0.97768,-0.0036 -1.29325,0.137181 -1.29325,0.576911 0,0.843023 0.86296,2.815208 1.7431,3.983623 1.06635,1.415622 3.67012,2.382517 4.79489,1.78056 z m 79.892572,28.052041 c 0,-0.097 0.15406,-0.17639 0.34236,-0.17639 0.18831,0 0.39143,0.0794 0.45139,0.17639 0.0618,0.10004 -0.0864,0.17639 -0.34237,0.17639 -0.24826,0 -0.45138,-0.0794 -0.45138,-0.17639 z M 65.189688,60.46487 c 0,-0.09701 0.24281,-0.176389 0.53958,-0.176389 0.3148,0 0.49416,0.07348 0.43056,0.176389 -0.06,0.09701 -0.30277,0.176389 -0.53958,0.176389 -0.23681,0 -0.43056,-0.07937 -0.43056,-0.176389 z m 0.0882,-10.054166 c -0.06,-0.09701 0.0194,-0.176389 0.17639,-0.176389 0.15697,0 0.23635,0.07937 0.17639,0.176389 -0.06,0.09701 -0.13933,0.176388 -0.17639,0.176388 -0.0371,0 -0.11643,-0.07937 -0.17639,-0.176388 z"
       id="path1089"
       sodipodi:nodetypes="cscssssscssssssssssssssssssssscssscssssssssscsssscsssccssssssssssssscsccscssscsssscsssccssssssscssssccscsssscsscscssssssssssssssscscsssscssssccssssscsscsscccsssssssssssssssssssscsscssscssccscssssssssssssssssssssssssssssssssssssscssssssssssssssssccsscssscssssssssssssssssssssssccsssssscsssscsssccssssssssssssssscscssssssssssscscssscsssssssssssssssssssssssssssssssssssssssscsscssssssssssssssssssssscssscssssssssssssssssssssssssssssssssssssssssscsssssssssssssscssssssscssscssscscssscssssssssscsccccsssscccscscssssccssssssscsssccccscsssssssssssssssccsssccssssscssscsscccscsssssccscssssscssssssscsssscsscscsc" />
  </g>
</svg>
