<?xml version="1.0" encoding="UTF-8" standalone="no"?>
<!-- Created with Inkscape (http://www.inkscape.org/) -->

<svg
   width="210mm"
   height="297mm"
   viewBox="0 0 210 297"
   version="1.1"
   id="svg1468"
   inkscape:version="1.1 (c68e22c387, 2021-05-23)"
   sodipodi:docname="Kürbis.svg"
   xmlns:inkscape="http://www.inkscape.org/namespaces/inkscape"
   xmlns:sodipodi="http://sodipodi.sourceforge.net/DTD/sodipodi-0.dtd"
   xmlns="http://www.w3.org/2000/svg"
   xmlns:svg="http://www.w3.org/2000/svg">
  <sodipodi:namedview
     id="namedview1470"
     pagecolor="#ffffff"
     bordercolor="#666666"
     borderopacity="1.0"
     inkscape:pageshadow="2"
     inkscape:pageopacity="0.0"
     inkscape:pagecheckerboard="0"
     inkscape:document-units="mm"
     showgrid="false"
     inkscape:snap-global="false"
     inkscape:zoom="1.0746025"
     inkscape:cx="611.38886"
     inkscape:cy="585.79801"
     inkscape:window-width="1920"
     inkscape:window-height="1017"
     inkscape:window-x="-8"
     inkscape:window-y="-8"
     inkscape:window-maximized="1"
     inkscape:current-layer="layer1" />
  <defs
     id="defs1465" />
  <g
     inkscape:label="Ebene 1"
     inkscape:groupmode="layer"
     id="layer1">
    <path
       style="fill:none;stroke:#000000;stroke-width:0.1;stroke-miterlimit:4;stroke-dasharray:none;stroke-opacity:1"
       d="m 169.34847,158.10318 c 3.41552,-1.85896 6.95603,-6.92552 7.60132,-10.87769 0.14048,-0.86046 0.019,-1.12428 -0.64985,-1.41111 -0.66987,-0.28726 -0.84262,-0.66398 -0.93018,-2.02847 -0.0591,-0.92163 -0.1833,-1.67569 -0.27591,-1.67569 -0.0926,0 -0.71892,0.23002 -1.39178,0.51116 -1.16546,0.48696 -1.2234,0.59496 -1.2234,2.28065 0,2.36713 -0.0306,2.38184 -6.27958,3.0164 -1.6861,0.17122 -1.6024,0.27516 -2.19126,-2.72141 l -0.39862,-2.02847 h -1.74818 -1.74819 l 0.0844,2.13762 c 0.10022,2.53769 -0.15058,2.78814 -2.79984,2.79587 -2.37441,0.007 -3.0165,-0.61838 -3.58093,-3.48734 -0.52058,-2.64605 -1.37233,-3.64975 -2.96626,-3.49542 -1.075,0.10408 -1.13589,0.19231 -1.35141,1.95806 -0.27974,2.29199 -0.54804,3.02196 -1.00654,2.73859 -0.77536,-0.4792 -0.29242,0.45508 0.7401,1.43176 0.60246,0.56988 1.69496,1.91263 2.42778,2.98389 2.73297,3.99516 4.90669,6.27262 6.93329,7.26414 4.28495,2.09643 7.66819,2.28752 10.75502,0.60746 z M 149.61759,95.788138 c -15.70883,7.443762 -28.17865,26.616192 -19.80954,42.896542 1.40558,4.19537 3.35572,8.6117 4.42302,10.01649 0.46926,0.61765 0.85321,1.279 0.85321,1.46966 0,0.44151 2.27384,2.23553 3.86747,3.05137 2.71539,1.3901 5.34001,1.89962 9.42212,1.82911 2.16755,-0.0374 4.04973,-0.1768 4.18263,-0.3097 l -5e-5,9e-5 c 0.1329,-0.1329 -0.39014,-1.16404 -1.1623,-2.29142 -2.52461,-3.68601 -3.9627,-5.99675 -3.9627,-6.36735 -4.25925,-3.37815 -9.11621,-7.36257 -11.41296,-11.1352 -2.25934,-3.81636 -4.02948,-8.35974 -3.25703,-8.35974 0.25158,0 1.18632,0.55656 2.0772,1.2368 0.89087,0.68023 2.90764,1.71164 4.48171,2.29202 1.57406,0.58037 3.16986,1.22002 3.54622,1.42145 0.63968,0.34234 0.68563,0.23312 0.70464,-1.67466 0.0112,-1.12249 0.31416,-3.15213 0.67327,-4.51033 l 0.65293,-2.46944 m 4.13705,-8.16838 1.24335,-1.98843 c 1.81876,-2.90865 2.96375,-5.00453 5.45849,-7.53638 l 2.18306,-2.21553 -1.27522,-0.40701 c -1.30966,-0.418 -2.63101,-0.93202 -1.96626,-0.93202 0.19827,0 1.45609,0.14809 2.32918,0.44558 1.42407,0.48523 1.69372,0.48545 2.62048,0.002 1.12716,-0.58779 3.91448,-0.71815 4.70142,-0.21988 0.31576,0.19993 1.05652,0.071 2.05772,-0.35818 2.05602,-0.88131 5.09886,-0.86561 7.08685,0.0366 2.05006,0.93035 6.84332,4.42357 9.262,6.74994 1.21981,1.17326 2.19988,2.50336 2.58093,3.50272 0.55343,1.45147 0.40243,0.78619 0.82032,1.54483 m 1.64643,4.78886 c 0.6557,1.25146 1.85595,6.52335 2.14983,9.07666 0.13958,1.21267 0.3018,2.20486 0.3605,2.20486 0.0587,0 0.95592,-0.39532 1.99383,-0.8785 2.46578,-1.14788 3.82739,-1.17744 3.82739,-0.0831 0,0.97057 -2.66871,5.73913 -4.38207,7.83007 -0.74705,0.91167 -1.21267,1.84339 -1.17361,2.34846 0.13816,1.78697 -0.53154,6.8456 -1.35828,10.25996 -0.88078,3.63749 -0.8247,4.13764 0.46571,4.15382 1.01229,0.0127 4.69603,-1.94086 7.03034,-3.7283 3.96044,-3.0326 5.6165,-6.77428 5.99828,-13.55241 0.21771,-3.86515 -0.17271,-6.84371 -1.68782,-12.87639 -0.7178,-2.85807 -3.66369,-8.69224 -6.23458,-12.34722 -1.75906,-2.50084 -6.71881,-7.51806 -8.18478,-8.27965 -2.22517,-1.15599 -8.29292,-2.22011 -11.72804,-2.05677 m -30.57336,12.88265 c 2.39921,-1.0857 13.10132,-14.811901 12.81567,-16.391849 m 13.91285,61.605789 c 0.46511,0.0445 2.74848,-1.87795 3.62107,-1.21797 1.46046,1.10464 5.57952,1.10909 8.56995,-0.64342 2.80317,-1.64276 3.82472,-3.26229 5.15856,-8.17811 0.72889,-2.68635 1.80589,-9.35863 1.55425,-9.62904 -0.0669,-0.0719 -0.72427,0.33027 -1.46083,0.8937 -3.44016,2.56808 -6.52776,4.12204 -10.25079,5.82903 l -0.36607,1.81928 c -0.6959,3.45849 -1.79465,5.72153 -4.07394,8.39088 -3.83621,4.49268 -7.26162,5.62704 -12.57753,4.16517 l 3e-5,2e-5 c -3.00586,-0.50339 -4.59766,-1.87079 -6.45337,-3.29004 l -2.00095,-1.53033 m 21.59068,-39.28538 c -0.94044,-1.50371 -3.46606,-6.54877 -4.24405,-7.90811 -0.77799,-1.35934 -1.70797,-2.7326 -2.06662,-3.05168 -0.92377,-0.82185 -4.86279,-2.41428 -5.97193,-2.41428 -1.74869,0 -5.01861,2.09853 -7.012,4.50009 -2.15576,2.59717 -5.24732,7.87157 -4.84796,8.27094 m -4.63434,8.5862 -0.45966,1.87528 m 0,0.42469 c -0.14664,1.0951 -0.27502,4.07948 -0.2853,7.15103 0.8722,10.40082 0.32317,3.88659 2.79828,1.65167 0.6618,-0.54924 4.23326,-0.33643 9.53027,0.56787 4.66853,0.79701 14.57258,0.7867 17.78475,-0.0185 2.99049,-0.74964 4.74121,-0.94779 5.27838,-0.59742 0.26696,0.17413 0.68409,1.08862 0.92696,2.03222 l 0.44159,1.71563 1.53986,-0.12158 c 0.84693,-0.0669 1.79789,-0.25966 2.11325,-0.42844 0.6641,-0.35541 1.01936,-1.82799 1.01936,-4.22522 0,-1.71513 0.53977,-2.46888 2.65794,-3.71168 0.58811,-0.34507 0.60311,-0.58316 0.2001,-3.175 -0.52118,-3.35177 -1.78057,-8.27001 -2.11767,-8.27001 m -8.51879,6.60702 c 0.34618,0.4978 -0.0589,0.6551 0.24085,1.52065 0.63398,1.83044 0.54251,6.41684 -0.14163,7.10098 -0.34439,0.3444 -0.43532,-0.11121 -0.43775,-2.19351 -0.005,-4.43771 -0.34727,-6.34791 -1.196,-6.67834 m 8.24005,-11.31842 c 0.37885,-0.37734 -2.18807,-3.83974 -3.85682,-5.32734 -1.9889,-1.77299 -6.68821,-5.04508 -8.72286,-6.07364 -1.28219,-0.64817 -4.50943,-0.75675 -5.97143,-0.2009 l -0.97275,0.36984 1.78482,0.82692 c 0.98166,0.45481 2.18253,1.35994 2.66862,2.01141 1.34391,1.80116 5.7151,9.31097 5.98085,10.36983"
       id="path1577"
       sodipodi:nodetypes="ssscssssscccscsssssssssccssscccsccssssssccsscssscscsssccsssssssssssssccccssssccssccsccssssccccccsssccsssssccscsccsscsssc" />
    <path
       style="fill:none;stroke:#000000;stroke-width:0.1;stroke-miterlimit:4;stroke-dasharray:none;stroke-opacity:1"
       d="m 152.08276,156.61033 c -2.82773,-0.3788 -3.72062,0.33089 -6.42301,-0.19205 -3.88478,-0.75174 -6.89955,-0.37581 -8.44932,-2.18637 -1.11692,-1.30487 -1.37512,-1.96112 -3.19626,-1.96112 -2.92569,0 -7.69181,-3.03365 -9.05482,-4.67233 -1.68262,-2.02295 -1.62204,-1.39869 -2.83148,-3.84601 -17.26083,-34.92765 27.76601,-52.834433 35.79005,-47.514043 0.0914,-0.67865 0.83047,-0.236 0.73906,-0.01 v 7e-5 c -0.22397,0.55393 0.58909,1.775222 0.86991,3.452492 l 0.13778,0.822971 0.12116,-1.993451 c -0.40034,-10.101772 -1.39743,-6.885602 3.30407,-0.1053 2.70004,2.440641 5.25926,4.193291 1.98434,0.79709 -4.81187,-4.980542 -5.57818,-9.323132 -2.39295,-13.560432 0.87833,-1.16843 1.72374,-2.12441 1.8787,-2.12441 0.15496,0 0.36206,0.41997 0.46016,0.93322 0.14272,0.74658 -0.0961,1.19436 -1.1936,2.23843 -1.14769,1.09177 -1.372,1.53573 -1.372,2.7154 0,2.80897 2.74332,6.08131 5.11528,6.10181 1.02541,0.009 4.77847,1.87591 5.90902,2.939612 0.41865,0.3939 0.69568,0.718 1.46458,1.0517 0.73169,0.17071 2.80933,0.36953 4.35607,0.710431 3.81631,0.84111 8.45692,1.32909 10.38924,2.47047 1.27624,0.75384 6.42913,6.07805 7.91612,8.1793 0.89946,1.27102 3.70893,6.33775 4.93139,8.89351 2.10371,4.39816 3.31689,14.30523 2.47927,19.85788 l -0.33473,2.21897 c -0.26009,0.45345 -0.78862,1.7693 -1.09142,2.7951 -0.30281,1.0258 -0.86423,2.37309 -1.24762,2.99396 -0.96727,1.56648 -4.29574,4.12188 -7.35509,5.64678 -2.26039,1.12667 -2.72636,1.24167 -3.87619,0.95665 -1.2808,-0.31748 -1.35051,-0.28034 -3.48559,1.85685 -1.8952,1.89708 -2.5154,2.28344 -4.76686,2.96955 -3.95578,1.20548 -6.65062,2.30737 -7.23477,0.7851 -9.81495,-0.93738 -2.98743,3.01003 -12.96983,1.02962 -2.63238,-0.16047 -5.37021,-0.82344 -6.94577,-2.48982 l -1.32386,-1.45338 z"
       id="path1577-0"
       sodipodi:nodetypes="sssssscsssccccssssscscssssscssssssccccs" />
    <path
       id="path18148"
       style="fill:#000000;fill-opacity:0.17963;stroke:#000000;stroke-width:0.377953;stroke-linecap:round;stroke-miterlimit:4;stroke-dasharray:none;stroke-opacity:1"
       d="M 537.21094 426.75586 C 536.86168 426.76255 536.53381 426.79452 536.22852 426.85742 C 534.30247 427.51665 531.13894 428.99318 529.21289 435.73242 C 532.19233 443.05178 530.99548 447.11111 549.74609 466.58203 C 556.19533 470.82829 570.40838 475.20223 579.875 467.7168 C 587.82936 458.01879 596.85484 443.59744 599.58203 439.0332 C 596.87302 438.07165 579.83919 437.0742 566.12109 434.80078 C 552.58481 432.55748 542.4498 426.65557 537.21094 426.75586 z M 537.26953 430.05469 C 537.72302 430.06554 538.18171 430.19748 538.62695 430.47266 C 540.0292 431.33934 540.04674 432.07156 538.7168 434.20117 C 537.29452 436.47853 537.64237 437.69285 541.18359 442.83984 C 543.44984 446.13366 547.54724 450.79767 550.28906 453.20508 C 555.79625 458.04042 569.95651 465.21517 574.12695 465.2832 C 576.7583 465.32606 576.75883 465.35359 574.20508 467.28516 C 568.1045 471.89943 556.86663 468.22726 548.79492 458.98242 C 540.59142 449.58674 533.46094 438.54023 533.46094 435.22656 C 533.46094 432.25974 535.3044 430.00767 537.26953 430.05469 z "
       transform="scale(0.26458333)" />
    <path
       id="path20985"
       style="fill:#000000;fill-opacity:0.17963;stroke:#000000;stroke-width:0.0264583;stroke-miterlimit:4;stroke-dasharray:none;stroke-opacity:1"
       d="m 165.84104,125.56219 c -0.76008,-5.3e-4 -1.71044,0.0197 -2.87993,0.045 -3.01643,0.0652 -5.62879,0.26219 -5.80481,0.43821 -0.19154,0.19154 0.76543,1.48823 2.3828,3.22926 1.48637,1.60002 2.83888,2.90939 3.0055,2.90939 0.95865,0 2.7648,-1.58973 4.72788,-4.16151 1.57664,-2.06551 1.86225,-2.45804 -1.43144,-2.46031 z m -6.69571,1.15497 c 0.14541,-0.003 0.34732,0.0265 0.60358,0.0935 0.39442,0.10315 0.96967,0.61515 1.27847,1.13792 0.30882,0.52276 0.98274,1.40509 1.49759,1.9606 0.58247,0.62856 0.81099,1.13515 0.60513,1.341 -0.20585,0.20586 -0.82691,-0.34523 -1.64435,-1.45882 -0.72244,-0.98416 -1.64666,-2.02299 -2.05414,-2.30839 -0.6491,-0.45465 -0.72252,-0.7565 -0.28628,-0.76584 z" />
    <path
       id="path22175"
       style="fill:#000000;fill-opacity:0.17963;stroke:#000000;stroke-width:0.0264583;stroke-miterlimit:4;stroke-dasharray:none;stroke-opacity:1"
       d="m 185.83859,113.43947 c -3.26106,1.39282 -6.55774,2.47895 -10.40894,2.11811 -0.9434,0.0659 -3.96068,0.81838 -4.59212,1.22337 -0.39523,0.2535 -0.0772,0.88488 1.55494,3.0856 2.6043,3.51161 3.69293,4.70519 4.62194,5.06687 0.84872,0.33043 1.26286,0.16886 1.30276,0.13436 0.0399,-0.0345 1.26298,-0.78513 2.71818,-1.6676 1.45522,-0.88245 3.35384,-2.32839 4.21887,-3.21376 1.11056,-1.13127 2.09568,-1.68065 3.07009,-2.86959 1.60662,-1.60664 0.71956,-4.25239 -1.58957,-3.92379 -0.18008,-0.0734 -0.39538,0.0479 -0.89615,0.0464 z m 1.89661,0.45845 c 0.42989,0 0.96769,1.45957 0.74931,2.03347 -0.35599,0.93557 -5.17026,5.26187 -7.43004,6.67711 -1.29897,0.81351 -2.70551,1.48855 -3.12591,1.49965 -1.41154,0.0373 -0.84965,-0.48083 0.74466,-1.73736 5.29631,-4.17422 7.47831,-5.85767 8.76794,-7.22644 0.47042,-0.4993 0.11297,-1.24643 0.29404,-1.24643 z"
       sodipodi:nodetypes="scsssssccccssssssss" />
    <path
       style="fill:none;fill-opacity:0.17963;stroke:#000000;stroke-width:0.1;stroke-linecap:round;stroke-miterlimit:4;stroke-dasharray:none;stroke-opacity:1"
       d="m 150.69519,95.767886 c -6.55048,4.062546 -36.28024,21.288104 -14.41432,54.272104 3.86548,4.38306 10.03005,3.72525 15.28792,3.93118 -2.05735,-2.89302 -3.8524,-6.04834 -6.44277,-8.40835 -6.5573,-4.89063 -11.9958,-11.56179 -13.64993,-20.20189 3.67638,1.66228 7.35277,3.81814 11.02915,4.69557 l 1.52879,-7.53476"
       id="path27547"
       sodipodi:nodetypes="ccccccc" />
    <path
       style="fill:none;fill-opacity:0.17963;stroke:#000000;stroke-width:0.1;stroke-linecap:round;stroke-miterlimit:4;stroke-dasharray:none;stroke-opacity:1"
       d="m 143.70643,112.6938 c 7.69936,-7.38851 10.06612,-11.95389 12.99473,-16.816715"
       id="path28128"
       sodipodi:nodetypes="cc" />
    <path
       d="m 158.93948,146.59645 c 0,-0.70042 -0.22503,-0.87284 -1.38027,-1.05757 -0.75915,-0.1214 -1.6506,-0.32445 -1.98099,-0.45123 -0.49974,-0.19177 -0.55697,-0.0881 -0.34044,0.61659 0.42515,1.38374 0.89125,1.72906 2.33378,1.72906 1.20428,0 1.36792,-0.10011 1.36792,-0.83685 z"
       style="fill:#000000;fill-opacity:0.17963;stroke:#000000;stroke-width:0.0264583;stroke-miterlimit:4;stroke-dasharray:none;stroke-opacity:1"
       id="path28402" />
    <path
       d="m 170.50668,146.50645 c 0.46697,-0.17754 0.84904,-0.5762 0.84904,-0.8859 0,-0.50043 -0.0589,-0.50423 -0.52895,-0.0341 -0.51367,0.51367 -3.74043,1.11125 -4.71862,0.87388 -0.26679,-0.0648 -0.56545,0.10358 -0.66369,0.37406 -0.14646,0.40322 0.21683,0.44705 2.01727,0.24335 1.20775,-0.13664 2.57797,-0.3937 3.04495,-0.57125 z"
       style="fill:#000000;stroke:#000000;stroke-width:0.0264583;stroke-miterlimit:4;stroke-dasharray:none;stroke-opacity:1;fill-opacity:0.17962962"
       id="path28650" />
    <path
       d="m 181.49094,143.3861 m 3.3975,-2.66524 c 0.29105,-0.28166 -0.5027,-0.0461 -1.76389,0.52348 -1.26118,0.56957 -3.00743,1.23848 -3.88056,1.48646 -1.89592,0.53849 -2.27499,0.82162 -2.01324,1.50373 0.15585,0.40614 0.92252,0.14576 3.66281,-1.24396 1.90614,-0.96669 3.70384,-1.98806 3.99488,-2.26971 z"
       style="fill:#000000;stroke:#000000;stroke-width:0.0264583;stroke-miterlimit:4;stroke-dasharray:none;stroke-opacity:1;fill-opacity:0.17962962"
       id="path28822" />
    <path
       d="m 148.25112,142.50593 c 0,-1.08462 -0.11642,-1.35537 -0.51676,-1.20174 -0.66242,0.25419 -3.71261,-1.49247 -6.88021,-3.93989 -1.36444,-1.05422 -2.4808,-1.76764 -2.4808,-1.58537 0,0.74236 4.94364,5.27483 7.24005,6.63789 1.35374,0.80353 2.50102,1.4673 2.54953,1.47505 0.0485,0.008 0.0882,-0.61592 0.0882,-1.38594 z"
       style="fill:#000000;stroke:#000000;stroke-width:0.0264583;stroke-miterlimit:4;stroke-dasharray:none;stroke-opacity:1;fill-opacity:0.17962962"
       id="path30543"
       sodipodi:nodetypes="ssssscss" />
    <path
       style="fill:#000000;fill-opacity:0.17963;stroke:#000000;stroke-width:0.1;stroke-linecap:round;stroke-miterlimit:4;stroke-dasharray:none;stroke-opacity:1"
       d="m 187.78845,138.29322 c 2.1766,-1.87553 4.27123,-3.915 5.63674,-7.4127 l 0.0772,1.4671 c -1.22666,2.70067 -3.39214,4.2278 -5.4051,5.9456 z"
       id="path30784"
       sodipodi:nodetypes="ccccc" />
  </g>
</svg>
