<?xml version="1.0" encoding="UTF-8" standalone="no"?>
<!-- Created with Inkscape (http://www.inkscape.org/) -->

<svg
   width="210mm"
   height="297mm"
   viewBox="0 0 210 297"
   version="1.1"
   id="svg5"
   inkscape:version="1.1 (c68e22c387, 2021-05-23)"
   sodipodi:docname="MotorHalter.svg"
   xmlns:inkscape="http://www.inkscape.org/namespaces/inkscape"
   xmlns:sodipodi="http://sodipodi.sourceforge.net/DTD/sodipodi-0.dtd"
   xmlns="http://www.w3.org/2000/svg"
   xmlns:svg="http://www.w3.org/2000/svg">
  <sodipodi:namedview
     id="namedview7"
     pagecolor="#ffffff"
     bordercolor="#666666"
     borderopacity="1.0"
     inkscape:pageshadow="2"
     inkscape:pageopacity="0.0"
     inkscape:pagecheckerboard="0"
     inkscape:document-units="mm"
     showgrid="false"
     inkscape:zoom="1.8399049"
     inkscape:cx="388.33529"
     inkscape:cy="658.45795"
     inkscape:window-width="1920"
     inkscape:window-height="1017"
     inkscape:window-x="-8"
     inkscape:window-y="-8"
     inkscape:window-maximized="1"
     inkscape:current-layer="layer1" />
  <defs
     id="defs2">
    <inkscape:path-effect
       effect="powerstroke"
       id="path-effect5781"
       is_visible="true"
       lpeversion="1"
       offset_points="0,1"
       not_jump="false"
       sort_points="true"
       interpolator_type="CubicBezierJohan"
       interpolator_beta="0.2"
       start_linecap_type="zerowidth"
       linejoin_type="extrp_arc"
       miter_limit="4"
       scale_width="1"
       end_linecap_type="zerowidth" />
    <inkscape:path-effect
       effect="simplify"
       id="path-effect5779"
       is_visible="true"
       lpeversion="1"
       steps="1"
       threshold="0.000408163"
       smooth_angles="360"
       helper_size="0"
       simplify_individual_paths="false"
       simplify_just_coalesce="false" />
  </defs>
  <g
     inkscape:label="Ebene 1"
     inkscape:groupmode="layer"
     id="layer1">
    <path
       id="rect973"
       style="fill:none;stroke:#000000;stroke-width:0.0999996;stroke-linecap:square"
       d="m 80.818034,141.12897 0.004,-25.65209 h 23.126986 l -1.7e-4,25.65065"
       sodipodi:nodetypes="cccc" />
    <path
       id="rect973-3"
       style="fill:none;stroke:#000000;stroke-width:0.0999996;stroke-linecap:square"
       d="m 79.870704,174.14133 0.004,-4.88777 H 103.0017 l -1.7e-4,4.88633"
       sodipodi:nodetypes="cccc" />
    <path
       id="path1739"
       style="fill:none;stroke:#000000;stroke-width:0.1;stroke-linecap:square"
       d="m 100.28969,117.51811 a 1.6999999,1.6436018 0 0 1 -1.699999,1.6436 1.6999999,1.6436018 0 0 1 -1.7,-1.6436 1.6999999,1.6436018 0 0 1 1.7,-1.6436 1.6999999,1.6436018 0 0 1 1.699999,1.6436 z" />
    <path
       id="path1739-9"
       style="fill:none;stroke:#000000;stroke-width:0.1;stroke-linecap:square"
       d="m 91.07227,126.20964 a 1.9250001,1.8613505 0 0 1 -1.925,1.86135 1.9250001,1.8613505 0 0 1 -1.925,-1.86135 1.9250001,1.8613505 0 0 1 1.925,-1.86135 1.9250001,1.8613505 0 0 1 1.925,1.86135 z" />
    <path
       id="path1739-1"
       style="fill:none;stroke:#000000;stroke-width:0.1;stroke-linecap:square"
       d="m 100.28969,134.90877 a 1.6999999,1.6436018 0 0 1 -1.699999,1.6436 1.6999999,1.6436018 0 0 1 -1.7,-1.6436 1.6999999,1.6436018 0 0 1 1.7,-1.6436 1.6999999,1.6436018 0 0 1 1.699999,1.6436 z" />
    <path
       id="rect2667"
       style="opacity:1;fill:none;stroke:#000000;stroke-width:0.1;stroke-linecap:square"
       d="m 103.94885,141.12753 9.06051,0.001 v 4.9 H 71.761635 v -4.9 h 9.056399"
       sodipodi:nodetypes="cccccc" />
    <rect
       style="opacity:1;fill:none;stroke:#000000;stroke-width:0.0999999;stroke-linecap:square;stroke-miterlimit:4;stroke-dasharray:none"
       id="rect5343"
       width="99.900002"
       height="29.9"
       x="42.301872"
       y="150.42921" />
    <path
       style="opacity:1;fill:none;stroke:#000000;stroke-width:0.1;stroke-linecap:square;stroke-miterlimit:4;stroke-dasharray:none;stroke-opacity:1"
       d="m 103.00153,174.13989 -23.130826,0.001"
       id="path6643"
       sodipodi:nodetypes="cc" />
  </g>
  <g
     inkscape:groupmode="layer"
     id="layer2"
     inkscape:label="Ebene 2"
     style="display:none">
    <path
       style="opacity:1;fill:none;stroke:#000000;stroke-width:0.0999999;stroke-linecap:square;stroke-miterlimit:4;stroke-dasharray:none"
       d="M 103.89762,126.29664 H 89.14867"
       id="path1521" />
    <path
       style="opacity:1;fill:none;stroke:#000000;stroke-width:0.1;stroke-linecap:square;stroke-miterlimit:4;stroke-dasharray:none"
       d="m 99.160896,115.9865 v 20.48079"
       id="path1876" />
    <path
       style="opacity:1;fill:none;stroke:#000000;stroke-width:0.1;stroke-linecap:square;stroke-miterlimit:4;stroke-dasharray:none"
       d="m 99.115016,122.30781 h 5.428374"
       id="path1991" />
  </g>
</svg>
