<?xml version="1.0" encoding="UTF-8" standalone="no"?>
<svg
   height="300.80mm"
   viewBox="0.0 0.0 268.40 300.80"
   width="268.40mm"
   version="1.1"
   id="svg912"
   sodipodi:docname="StifteBox.svg"
   inkscape:version="1.1 (c68e22c387, 2021-05-23)"
   xmlns:inkscape="http://www.inkscape.org/namespaces/inkscape"
   xmlns:sodipodi="http://sodipodi.sourceforge.net/DTD/sodipodi-0.dtd"
   xmlns="http://www.w3.org/2000/svg"
   xmlns:svg="http://www.w3.org/2000/svg"
   xmlns:rdf="http://www.w3.org/1999/02/22-rdf-syntax-ns#"
   xmlns:cc="http://creativecommons.org/ns#"
   xmlns:dc="http://purl.org/dc/elements/1.1/">
  <defs
     id="defs916" />
  <sodipodi:namedview
     id="namedview914"
     pagecolor="#ffffff"
     bordercolor="#666666"
     borderopacity="1.0"
     inkscape:pageshadow="2"
     inkscape:pageopacity="0.0"
     inkscape:pagecheckerboard="0"
     inkscape:document-units="mm"
     showgrid="false"
     inkscape:zoom="0.25832925"
     inkscape:cx="-445.16833"
     inkscape:cy="799.36748"
     inkscape:window-width="1920"
     inkscape:window-height="1017"
     inkscape:window-x="-8"
     inkscape:window-y="-8"
     inkscape:window-maximized="1"
     inkscape:current-layer="layer1"
     showborder="false"
     showguides="false"
     inkscape:guide-bbox="true"
     inkscape:snap-global="false">
    <sodipodi:guide
       position="185.13905,10.331841"
       orientation="0,-1"
       id="guide21025" />
    <sodipodi:guide
       position="12.04551,110.57636"
       orientation="1,0"
       id="guide25522" />
    <sodipodi:guide
       position="-67.383345,70.515679"
       orientation="0,-1"
       id="guide27286" />
    <sodipodi:guide
       position="16.696746,115.10833"
       orientation="1,0"
       id="guide28523" />
    <sodipodi:guide
       position="-39.381643,164.82187"
       orientation="0,-1"
       id="guide2149" />
  </sodipodi:namedview>
  <!--
ClosedBox - Fully closed box


This box is more of a building block than a finished item.
Use a vector graphics program (like Inkscape) to add holes or adjust the base
plate.

See BasedBox for variant with a base.


Created with Boxes.py (https://festi.info/boxes.py)
Creation date: 2021-08-21 18:02:42
Command line (remove spaces between dashes): boxes ClosedBox - -FingerJoint_angle=90.0 - -FingerJoint_style=rectangular - -FingerJoint_surroundingspaces=2.0 - -FingerJoint_edge_width=1.0 - -FingerJoint_finger=2.0 - -FingerJoint_play=0.0 - -FingerJoint_space=2.0 - -FingerJoint_width=1.0 - -x=115 - -y=80 - -h=80 - -outside=0 - -thickness=4.0 - -format=svg - -tabs=0.0 - -debug=0 - -labels=0 - -labels=1 - -reference=100 - -burn=0.1
Url: http://festi.info/ClosedBox?FingerJoint_angle=90.0&FingerJoint_style=rectangular&FingerJoint_surroundingspaces=2.0&FingerJoint_edge_width=1.0&FingerJoint_finger=2.0&FingerJoint_play=0.0&FingerJoint_space=2.0&FingerJoint_width=1.0&x=115&y=80&h=80&outside=0&thickness=4.0&format=svg&tabs=0.0&debug=0&labels=0&labels=1&reference=100&burn=0.1&render=1
SettingsUrl: http://festi.info/ClosedBox?FingerJoint_angle=90.0&FingerJoint_style=rectangular&FingerJoint_surroundingspaces=2.0&FingerJoint_edge_width=1.0&FingerJoint_finger=2.0&FingerJoint_play=0.0&FingerJoint_space=2.0&FingerJoint_width=1.0&x=115&y=80&h=80&outside=0&thickness=4.0&format=svg&tabs=0.0&debug=0&labels=0&labels=1&reference=100&burn=0.1
-->
  <title
     id="title871">ClosedBox</title>
  <metadata
     id="metadata873">
    <rdf:RDF>
      <cc:Work>
        <dc:title>ClosedBox</dc:title>
        <dc:date>2021-08-21 18:02:42</dc:date>
        <dc:source>http://festi.info/ClosedBox?FingerJoint_angle=90.0&amp;FingerJoint_style=rectangular&amp;FingerJoint_surroundingspaces=2.0&amp;FingerJoint_edge_width=1.0&amp;FingerJoint_finger=2.0&amp;FingerJoint_play=0.0&amp;FingerJoint_space=2.0&amp;FingerJoint_width=1.0&amp;x=115&amp;y=80&amp;h=80&amp;outside=0&amp;thickness=4.0&amp;format=svg&amp;tabs=0.0&amp;debug=0&amp;labels=0&amp;labels=1&amp;reference=100&amp;burn=0.1&amp;render=1</dc:source>
        <dc:description>Fully closed box

This box is more of a building block than a finished item.
Use a vector graphics program (like Inkscape) to add holes or adjust the base
plate.

See BasedBox for variant with a base.

Created with Boxes.py (https://festi.info/boxes.py)
Command line: boxes ClosedBox --FingerJoint_angle=90.0 --FingerJoint_style=rectangular --FingerJoint_surroundingspaces=2.0 --FingerJoint_edge_width=1.0 --FingerJoint_finger=2.0 --FingerJoint_play=0.0 --FingerJoint_space=2.0 --FingerJoint_width=1.0 --x=115 --y=80 --h=80 --outside=0 --thickness=4.0 --format=svg --tabs=0.0 --debug=0 --labels=0 --labels=1 --reference=100 --burn=0.1
Url: http://festi.info/ClosedBox?FingerJoint_angle=90.0&amp;FingerJoint_style=rectangular&amp;FingerJoint_surroundingspaces=2.0&amp;FingerJoint_edge_width=1.0&amp;FingerJoint_finger=2.0&amp;FingerJoint_play=0.0&amp;FingerJoint_space=2.0&amp;FingerJoint_width=1.0&amp;x=115&amp;y=80&amp;h=80&amp;outside=0&amp;thickness=4.0&amp;format=svg&amp;tabs=0.0&amp;debug=0&amp;labels=0&amp;labels=1&amp;reference=100&amp;burn=0.1&amp;render=1
SettingsUrl: http://festi.info/ClosedBox?FingerJoint_angle=90.0&amp;FingerJoint_style=rectangular&amp;FingerJoint_surroundingspaces=2.0&amp;FingerJoint_edge_width=1.0&amp;FingerJoint_finger=2.0&amp;FingerJoint_play=0.0&amp;FingerJoint_space=2.0&amp;FingerJoint_width=1.0&amp;x=115&amp;y=80&amp;h=80&amp;outside=0&amp;thickness=4.0&amp;format=svg&amp;tabs=0.0&amp;debug=0&amp;labels=0&amp;labels=1&amp;reference=100&amp;burn=0.1
</dc:description>
      </cc:Work>
    </rdf:RDF>
  </metadata>
  <g
     id="p-2"
     style="fill:none;stroke-linecap:round;stroke-linejoin:round"
     transform="translate(467.43588,123.52508)">
    <g
       transform="translate(179.3,232.6)"
       id="text887"
       style="font-size:4px;text-anchor:middle;fill:#ff0000" />
    <path
       d="m 139.3,278.6 h 12 c 0.055,0 0.1,-0.045 0.1,-0.1 v -3.9 c 0,-0.1 -0.1,0 0,0 h 7.8 c 0.1,0 0,-0.1 0,0 v 3.9 c 0,0.055 0.045,0.1 0.1,0.1 h 8 c 0.055,0 0.1,-0.045 0.1,-0.1 v -3.9 c 0,-0.1 -0.1,0 0,0 h 7.8 c 0.1,0 0,-0.1 0,0 v 3.9 c 0,0.055 0.045,0.1 0.1,0.1 h 8 c 0.055,0 0.1,-0.045 0.1,-0.1 v -3.9 c 0,-0.1 -0.1,0 0,0 h 7.8 c 0.1,0 0,-0.1 0,0 v 3.9 c 0,0.055 0.045,0.1 0.1,0.1 h 8 c 0.055,0 0.1,-0.045 0.1,-0.1 v -3.9 c 0,-0.1 -0.1,0 0,0 h 7.8 c 0.1,0 0,-0.1 0,0 v 3.9 c 0,0.055 0.045,0.1 0.1,0.1 h 12 c 0.055,0 0.1,-0.045 0.1,-0.1 v -4 -11.9 c 0,-0.1 -0.1,0 0,0 h 3.9 c 0.055,0 0.1,-0.045 0.1,-0.1 v -8 c 0,-0.055 -0.045,-0.1 -0.1,-0.1 h -3.9 c -0.1,0 0,0.1 0,0 v -7.8 c 0,-0.1 -0.1,0 0,0 h 3.9 c 0.055,0 0.1,-0.045 0.1,-0.1 v -8 c 0,-0.055 -0.045,-0.1 -0.1,-0.1 h -3.9 c -0.1,0 0,0.1 0,0 v -7.8 c 0,-0.1 -0.1,0 0,0 h 3.9 c 0.055,0 0.1,-0.045 0.1,-0.1 v -8 c 0,-0.055 -0.045,-0.1 -0.1,-0.1 h -3.9 c -0.1,0 0,0.1 0,0 v -7.8 c 0,-0.1 -0.1,0 0,0 h 3.9 c 0.055,0 0.1,-0.045 0.1,-0.1 v -8 c 0,-0.055 -0.045,-0.1 -0.1,-0.1 h -3.9 c -0.1,0 0,0.1 0,0 v -11.9 -4 c 0,-0.055 -0.045,-0.1 -0.1,-0.1 h -40 c -0.055,0 -40,0 -40,0 -0.055,0 -0.1,0.045 -0.1,0.1 v 4 11.9 c 0,0.1 0.1,0 0,0 h -3.9 c -0.055,0 -0.1,0.045 -0.1,0.1 v 8 c 0,0.055 0.045,0.1 0.1,0.1 h 3.9 c 0.1,0 0,-0.1 0,0 v 7.8 c 0,0.1 0.1,0 0,0 h -3.9 c -0.055,0 -0.1,0.045 -0.1,0.1 v 8 c 0,0.055 0.045,0.1 0.1,0.1 h 3.9 c 0.1,0 0,-0.1 0,0 v 7.8 c 0,0.1 0.1,0 0,0 h -3.9 c -0.055,0 -0.1,0.045 -0.1,0.1 v 8 c 0,0.055 0.045,0.1 0.1,0.1 h 3.9 c 0.1,0 0,-0.1 0,0 v 7.8 c 0,0.1 0.1,0 0,0 h -3.9 c -0.055,0 -0.1,0.045 -0.1,0.1 v 8 c 0,0.055 0.045,0.1 0.1,0.1 h 3.9 c 0.1,0 0,-0.1 0,0 v 11.9 4 c 0,0.055 0.045,0.1 0.1,0.1"
       stroke="#000000"
       stroke-width="0.2"
       id="path889"
       sodipodi:nodetypes="csssssssssssssssssssssssssssssssssscsssssssssssssssssssssssssssssssscsscsscsssssssssssssssssssssssssssssssscsc" />
  </g>
  <text
     xml:space="preserve"
     style="font-size:14px;line-height:1.25;font-family:Arial;-inkscape-font-specification:'Arial, Normal';writing-mode:lr-tb;opacity:0.5;fill:#000000;stroke:#000000;stroke-width:0.1;stroke-linecap:round"
     x="51.338409"
     y="51.751259"
     id="text7928"><tspan
       sodipodi:role="line"
       id="tspan7926"
       style="stroke-width:0.1"
       x="51.338409"
       y="51.751259">unten</tspan></text>
  <g
     inkscape:groupmode="layer"
     id="layer1"
     inkscape:label="Layer 1"
     style="display:inline">
    <g
       id="g1931"
       transform="translate(-384.33768,93.740897)">
      <text
         xml:space="preserve"
         style="font-size:14px;line-height:1.25;font-family:Arial;-inkscape-font-specification:'Arial, Normal';writing-mode:lr-tb;opacity:0.5;fill:#000000;stroke:#000000;stroke-width:0.1;stroke-linecap:round"
         x="244.65379"
         y="134.05516"
         id="text4134"><tspan
           sodipodi:role="line"
           id="tspan4132"
           style="stroke-width:0.1"
           x="244.65379"
           y="134.05516">hinten</tspan></text>
      <g
         id="p-3"
         style="fill:none;stroke-linecap:round;stroke-linejoin:round"
         transform="translate(87.389029,-13.028363)">
        <g
           transform="translate(179.3,142.4)"
           id="text892"
           style="font-size:4px;text-anchor:middle;fill:#ff0000" />
        <path
           d="m 207.3,188.4 h 12 c 0.055,0 0.1,-0.045 0.1,-0.1 v -4 -11.9 c 0,-0.1 -0.1,0 0,0 h 3.9 c 0.055,0 0.1,-0.045 0.1,-0.1 v -8 c 0,-0.055 -0.045,-0.1 -0.1,-0.1 h -3.9 c -0.1,0 0,0.1 0,0 v -7.8 c 0,-0.1 -0.1,0 0,0 h 3.9 c 0.055,0 0.1,-0.045 0.1,-0.1 v -8 c 0,-0.055 -0.045,-0.1 -0.1,-0.1 h -3.9 c -0.1,0 0,0.1 0,0 v -7.8 c 0,-0.1 -0.1,0 0,0 h 3.9 c 0.055,0 0.1,-0.045 0.1,-0.1 v -8 c 0,-0.055 -0.045,-0.1 -0.1,-0.1 h -3.9 c -0.1,0 0,0.1 0,0 v -7.8 c 0,-0.1 -0.1,0 0,0 h 3.9 c 0.055,0 0.1,-0.045 0.1,-0.1 v -8 c 0,-0.055 -0.045,-0.1 -0.1,-0.1 h -3.9 c -0.1,0 0,0.1 0,0 v -11.9 -4 c 0,-0.055 -0.0993,-0.045 -0.1,-0.1 C 218.94989,72.262749 181.91262,72.210367 179.05134,72.226231 176.19905,72.059141 139.37969,72.429374 139.3,100.2 c -1.6e-4,0.055 -0.1,0.045 -0.1,0.1 v 4 11.9 c 0,0.1 0.1,0 0,0 h -3.9 c -0.055,0 -0.1,0.045 -0.1,0.1 v 8 c 0,0.055 0.045,0.1 0.1,0.1 h 3.9 c 0.1,0 0,-0.1 0,0 v 7.8 c 0,0.1 0.1,0 0,0 h -3.9 c -0.055,0 -0.1,0.045 -0.1,0.1 v 8 c 0,0.055 0.045,0.1 0.1,0.1 h 3.9 c 0.1,0 0,-0.1 0,0 v 7.8 c 0,0.1 0.1,0 0,0 h -3.9 c -0.055,0 -0.1,0.045 -0.1,0.1 v 8 c 0,0.055 0.045,0.1 0.1,0.1 h 3.9 c 0.1,0 0,-0.1 0,0 v 7.8 c 0,0.1 0.1,0 0,0 h -3.9 c -0.055,0 -0.1,0.045 -0.1,0.1 v 8 c 0,0.055 0.045,0.1 0.1,0.1 h 3.9 c 0.1,0 0,-0.1 0,0 v 11.9 4 c 0,0.055 0.045,0.1 0.1,0.1 m 0,0 h 12 l 11.40613,-15.73871 h 33.15841 L 207.3,188.4"
           stroke="#000000"
           stroke-width="0.2"
           id="path894"
           sodipodi:nodetypes="cccsscsssssssssssssssssssssssssssssssscsscsscsssssssssssssssssssssssssssssssscsc" />
      </g>
    </g>
    <g
       id="g3379">
      <text
         xml:space="preserve"
         style="font-size:14px;line-height:1.25;font-family:Arial;-inkscape-font-specification:'Arial, Normal';writing-mode:lr-tb;opacity:0.5;fill:#000000;stroke:#000000;stroke-width:0.1;stroke-linecap:round"
         x="203.00743"
         y="124.73714"
         id="text2378"><tspan
           sodipodi:role="line"
           id="tspan2376"
           style="stroke-width:0.1"
           x="203.00743"
           y="124.73714">vorne</tspan></text>
      <g
         id="p-3-9"
         style="opacity:1;fill:none;stroke:#000000;stroke-width:0.1;stroke-linecap:round;stroke-linejoin:round;stroke-miterlimit:4;stroke-dasharray:none;stroke-opacity:1"
         transform="translate(41.36507,-15.034182)">
        <g
           transform="translate(179.3,142.4)"
           id="text892-9"
           style="font-size:4px;text-anchor:middle;fill:#ff0000;stroke:#000000;stroke-width:0.1;stroke-miterlimit:4;stroke-dasharray:none;stroke-opacity:1" />
        <path
           d="m 139.2,100.3 v 4 11.9 c 0,0.1 0.1,0 0,0 h -3.9 c -0.055,0 -0.1,0.045 -0.1,0.1 v 8 c 0,0.055 0.045,0.1 0.1,0.1 h 3.9 c 0.1,0 0,-0.1 0,0 v 7.8 c 0,0.1 0.1,0 0,0 h -3.9 c -0.055,0 -0.1,0.045 -0.1,0.1 v 8 c 0,0.055 0.045,0.1 0.1,0.1 h 3.9 c 0.1,0 0,-0.1 0,0 v 7.8 c 0,0.1 0.1,0 0,0 h -3.9 c -0.055,0 -0.1,0.045 -0.1,0.1 v 8 c 0,0.055 0.045,0.1 0.1,0.1 h 3.9 c 0.1,0 0,-0.1 0,0 v 7.8 c 0,0.1 0.1,0 0,0 h -3.9 c -0.055,0 -0.1,0.045 -0.1,0.1 v 8 c 0,0.055 0.045,0.1 0.1,0.1 h 3.9 c 0.1,0 0,-0.1 0,0 v 11.9 4 c 0,0.055 0.045,0.1 0.1,0.1 m 0,0 h 12 l 11.40613,-15.73871 h 33.15841 L 207.3,188.4"
           stroke="#000000"
           stroke-width="0.2"
           id="path894-0"
           sodipodi:nodetypes="csscsssssssssssssssssssssssssssssssscscccc"
           style="stroke:#000000;stroke-width:0.1;stroke-miterlimit:4;stroke-dasharray:none;stroke-opacity:1" />
      </g>
      <path
         style="opacity:1;fill:none;stroke:#000000;stroke-width:0.2;stroke-linecap:round;stroke-miterlimit:4;stroke-dasharray:none;stroke-opacity:1"
         d="m 180.64718,85.109888 v -36.50121 c 1.4e-4,-6.14796 3.71156,-2.60058 7.12441,-0.0543 l 16.39382,10.89921 c 8.05222,-2.19089 15.02635,-2.33331 16.251,-2.26157 1.21084,0.0709 8.6934,0.30326 16.79117,2.42773 m 23.57496,25.73339 -0.0175,3.91265 v 11.900002 c 0,0.1 -0.1,0 0,0 h 3.9 c 0.055,0 0.1,0.045 0.1,0.1 v 8 c 0,0.055 -0.045,0.1 -0.1,0.1 h -3.9 c -0.1,0 0,-0.1 0,0 v 7.8 c 0,0.1 -0.1,0 0,0 h 3.9 c 0.055,0 0.1,0.045 0.1,0.1 v 8 c 0,0.055 -0.045,0.1 -0.1,0.1 h -3.9 c -0.1,0 0,-0.1 0,0 v 7.8 c 0,0.1 -0.1,0 0,0 h 3.9 c 0.055,0 0.1,0.045 0.1,0.1 v 8 c 0,0.055 -0.045,0.1 -0.1,0.1 h -3.9 c -0.1,0 0,-0.1 0,0 v 7.8 c 0,0.1 -0.1,0 0,0 h 3.9 c 0.055,0 0.1,0.045 0.1,0.1 v 8 c 0,0.055 -0.045,0.1 -0.1,0.1 h -3.9 c -0.1,0 0,-0.1 0,0 v 11.9 4 c 0,0.055 -0.045,0.1 -0.1,0.1 h -12"
         id="path16771"
         sodipodi:nodetypes="ccccsccssssssssssssssssssssssssssssssscssccc" />
      <path
         style="opacity:1;fill:none;stroke:#000000;stroke-width:0.1;stroke-linecap:round;stroke-miterlimit:4;stroke-dasharray:none;stroke-opacity:1"
         d="m 260.78254,85.353168 -0.0515,-36.85301 c 0.27122,-8.59009 -7.87443,0.14747 -23.52347,11.11962"
         id="path16771-4"
         sodipodi:nodetypes="ccc" />
    </g>
    <path
       id="rect22028"
       style="opacity:1;fill:none;stroke:#000000;stroke-width:0.2;stroke-linecap:round"
       d="M 12.179096,90.49893 V 10.353564 h 47.680687 c 0.0072,-1.2623006 -0.0048,-2.5520086 -5.17e-4,-3.8273206 h 19.799999 l -0.01008,3.7925016 47.690255,0.03482 v 80.145366 l -47.628833,0.0115 -0.05134,3.81582 H 59.859266 l 0.02868,-3.79961 z"
       sodipodi:nodetypes="ccccccccccccc" />
    <g
       id="g26160">
      <text
         xml:space="preserve"
         style="font-size:14px;line-height:1.25;font-family:Arial;-inkscape-font-specification:'Arial, Normal';writing-mode:lr-tb;opacity:0.5;fill:#000000;stroke:#000000;stroke-width:0.1;stroke-linecap:round"
         x="68.351143"
         y="143.1136"
         id="text5546"><tspan
           sodipodi:role="line"
           id="tspan5544"
           style="stroke-width:0.1"
           x="68.351143"
           y="143.1136">links</tspan></text>
      <g
         id="g25645"
         transform="translate(0.50789938,-13.967233)">
        <g
           id="p-1-5"
           style="fill:none;stroke-linecap:round;stroke-linejoin:round"
           transform="translate(9.2886422,-79.632786)">
          <text
             alignment-baseline="hanging"
             font-size="4px"
             style="font-style:normal;font-weight:normal;font-family:sans-serif;fill:#ff0000"
             text-anchor="middle"
             transform="translate(71.6,232.6)"
             id="text882-3" />
          <path
             d="M 105.12102,263.46282 115.5,278.49996 c 0.0312,0.0453 0.045,0.1 0.1,0.1 h 13.5 4 c 0.055,0 0.1,-0.045 0.1,-0.1 v -4 -12 c 0,-0.055 -0.045,-0.1 -0.1,-0.1 h -3.9 c -0.1,0 0,0.1 0,0 v -7.8 c 0,-0.1 -0.1,0 0,0 h 3.9 c 0.055,0 0.1,-0.045 0.1,-0.1 v -8 c 0,-0.055 -0.045,-0.1 -0.1,-0.1 h -3.9 c -0.1,0 0,0.1 0,0 v -7.8 c 0,-0.1 -0.1,0 0,0 h 3.9 c 0.055,0 0.1,-0.045 0.1,-0.1 v -8 c 0,-0.055 -0.045,-0.1 -0.1,-0.1 h -3.9 c -0.1,0 0,0.1 0,0 v -7.8 c 0,-0.1 -0.1,0 0,0 h 3.9 c 0.055,0 0.1,-0.045 0.1,-0.1 v -8 c 0,-0.055 -0.045,-0.1 -0.1,-0.1 h -3.9 c -0.1,0 0,0.1 0,0 v -7.8 c 0,-0.1 -0.1,0 0,0 h 3.9 c 0.055,0 0.1,-0.045 0.1,-0.1 v -12 -4 c 0,-0.055 -0.045,-0.1 -0.1,-0.1 h -4 -13.5 c -0.055,0 -0.1,0.045 -44.05,0.05 l -57.45,-0.05 h -4 c -0.055,0 -0.1,0.045 -0.1,0.1 v 4 12 c 0,0.055 0.045,0.1 0.1,0.1 H 14 c 0.1,0 0,-0.1 0,0 v 7.8 c 0,0.1 0.1,0 0,0 h -3.9 c -0.055,0 -0.1,0.045 -0.1,0.1 v 8 c 0,0.055 0.045,0.1 0.1,0.1 H 14 c 0.1,0 0,-0.1 0,0 v 7.8 c 0,0.1 0.1,0 0,0 h -3.9 c -0.055,0 -0.1,0.045 -0.1,0.1 v 8 c 0,0.055 0.045,0.1 0.1,0.1 H 14 c 0.1,0 0,-0.1 0,0 v 7.8 c 0,0.1 0.1,0 0,0 h -3.9 c -0.055,0 -0.1,0.045 -0.1,0.1 v 8 c 0,0.055 0.045,0.1 0.1,0.1 H 14 c 0.1,0 0,-0.1 0,0 v 7.8 c 0,0.1 0.1,0 0,0 h -3.9 c -0.055,0 -0.1,0.045 -0.1,0.1 v 12 4 c 0,0.055 0.045,0.1 0.1,0.1 h 4 m 0,4e-5 h 13.5 c 0.055,0 0.06847,-0.0549 0.1,-0.1 l 10.615534,-15.17313 66.805486,0.13595"
             stroke="#000000"
             stroke-width="0.2"
             id="path884-1"
             sodipodi:nodetypes="cssccsscsscssssssssssssssssssssssssssssssssccsssscsscsssssssssssssssssssssssssssssssscsscc" />
        </g>
        <rect
           style="opacity:1;fill:none;stroke:#000000;stroke-width:0.2;stroke-linecap:round;stroke-miterlimit:4;stroke-dasharray:none;stroke-opacity:1"
           id="rect25440"
           width="19.813414"
           height="3.8999999"
           x="71.185921"
           y="175.53262" />
      </g>
    </g>
    <path
       id="rect27180"
       style="opacity:1;fill:none;stroke:#000000;stroke-width:0.2;stroke-linecap:round"
       d="m 39.517525,196.84197 35.5823,0.0249 v 13.39204 h -3.89513 v 50.72347 l 0.24179,0.42299 -107.575567,-0.0779 -0.0806,-50.90728 h -3.92978 l -0.0806,-13.55332 h 35.5058204 v 32.25825 h 4.391967 l 0.0202,-32.27115 35.0177996,-0.0129 v 32.33206 h 4.6945 z"
       sodipodi:nodetypes="ccccccccccccccc" />
    <rect
       style="opacity:1;fill:none;stroke:#000000;stroke-width:0.2;stroke-linecap:round;stroke-miterlimit:4;stroke-dasharray:none"
       id="rect3796"
       width="3.9859998"
       height="14.8"
       x="-119.64165"
       y="196.07324" />
    <path
       id="rect3796-4"
       style="display:inline;fill:none;stroke:#000000;stroke-width:0.2;stroke-linecap:round"
       d="m -164.62173,280.14903 0.064,14.11011 -4.54505,-0.002 c -3.15521,-0.0784 -4.87935,1.76978 -5.23908,3.59396 -2.71966,14.91293 7.2529,36.73979 -0.55543,46.93202 -3.6388,3.19584 -7.65676,5.56254 -11.25349,6.90635 -11.65292,4.24598 -22.15528,-2.96292 -1.21731,-15.43111 5.63012,-2.45526 0.0757,-23.65143 -1.61049,-25.92375 -12.63189,-16.49887 -8.71265,-32.32559 1.24592,-33.94345 3.25632,-0.97027 12.80262,-0.26144 18.127,2.05818 0.009,0.34106 -0.18333,1.99625 0.20972,1.70837 z"
       sodipodi:nodetypes="cccccccccccc" />
  </g>
  <g
     inkscape:groupmode="layer"
     id="layer3"
     inkscape:label="Layer 3"
     style="display:inline">
    <path
       id="rect2048"
       style="opacity:1;fill:none;stroke:#000000;stroke-width:0.2;stroke-linecap:round"
       d="m -52.191203,117.79415 h 37.781145 V 53.334573 h -80.063621 v 64.459577 h 37.896533 V 85.412063 h 4.310062 z"
       sodipodi:nodetypes="cccccc" />
    <path
       id="rect2048-7"
       style="fill:none;stroke:#000000;stroke-width:0.2;stroke-linecap:round"
       d="m -138.93462,116.60435 h 37.78115 V 52.144769 h -80.06363 v 64.459581 h 37.89654 V 84.222264 h 4.31006 z"
       sodipodi:nodetypes="cccccc" />
  </g>
  <g
     id="g26149"
     transform="translate(-321.77349,62.007145)">
    <g
       id="g25657"
       transform="translate(-127.28532,-87.021599)">
      <g
         id="p-1"
         style="fill:none;stroke-linecap:round;stroke-linejoin:round"
         transform="translate(136.76918,7.5301016)">
        <text
           alignment-baseline="hanging"
           font-size="4px"
           style="font-style:normal;font-weight:normal;font-family:sans-serif;fill:#ff0000"
           text-anchor="middle"
           transform="translate(71.6,232.6)"
           id="text882" />
        <path
           d="M 105.12102,263.46282 115.5,278.49996 c 0.0312,0.0453 0.045,0.1 0.1,0.1 h 13.5 4 c 0.055,0 0.1,-0.045 0.1,-0.1 v -4 -12 c 0,-0.055 -0.045,-0.1 -0.1,-0.1 h -3.9 c -0.1,0 0,0.1 0,0 v -7.8 c 0,-0.1 -0.1,0 0,0 h 3.9 c 0.055,0 0.1,-0.045 0.1,-0.1 v -8 c 0,-0.055 -0.045,-0.1 -0.1,-0.1 h -3.9 c -0.1,0 0,0.1 0,0 v -7.8 c 0,-0.1 -0.1,0 0,0 h 3.9 c 0.055,0 0.1,-0.045 0.1,-0.1 v -8 c 0,-0.055 -0.045,-0.1 -0.1,-0.1 h -3.9 c -0.1,0 0,0.1 0,0 v -7.8 c 0,-0.1 -0.1,0 0,0 h 3.9 c 0.055,0 0.1,-0.045 0.1,-0.1 v -8 c 0,-0.055 -0.045,-0.1 -0.1,-0.1 h -3.9 c -0.1,0 0,0.1 0,0 v -7.8 c 0,-0.1 -0.1,0 0,0 h 3.9 c 0.055,0 0.1,-0.045 0.1,-0.1 v -12 -4 c 0,-0.055 -0.045,-0.1 -0.1,-0.1 h -4 -13.5 c -0.055,0 -0.1,0.045 -44.05,0.05 l -57.45,-0.05 h -4 c -0.055,0 -0.1,0.045 -0.1,0.1 v 4 12 c 0,0.055 0.045,0.1 0.1,0.1 H 14 c 0.1,0 0,-0.1 0,0 v 7.8 c 0,0.1 0.1,0 0,0 h -3.9 c -0.055,0 -0.1,0.045 -0.1,0.1 v 8 c 0,0.055 0.045,0.1 0.1,0.1 H 14 c 0.1,0 0,-0.1 0,0 v 7.8 c 0,0.1 0.1,0 0,0 h -3.9 c -0.055,0 -0.1,0.045 -0.1,0.1 v 8 c 0,0.055 0.045,0.1 0.1,0.1 H 14 c 0.1,0 0,-0.1 0,0 v 7.8 c 0,0.1 0.1,0 0,0 h -3.9 c -0.055,0 -0.1,0.045 -0.1,0.1 v 8 c 0,0.055 0.045,0.1 0.1,0.1 H 14 c 0.1,0 0,-0.1 0,0 v 7.8 c 0,0.1 0.1,0 0,0 h -3.9 c -0.055,0 -0.1,0.045 -0.1,0.1 v 12 4 c 0,0.055 0.045,0.1 0.1,0.1 h 4 m 0,4e-5 h 13.5 c 0.055,0 0.06847,-0.0549 0.1,-0.1 l 10.615534,-15.17313 66.805486,0.13595"
           stroke="#000000"
           stroke-width="0.2"
           id="path884"
           sodipodi:nodetypes="cssccsscsscssssssssssssssssssssssssssssssssccsssscsscsssssssssssssssssssssssssssssssscsscc" />
      </g>
      <text
         xml:space="preserve"
         style="font-size:14px;line-height:1.25;font-family:Arial;-inkscape-font-specification:'Arial, Normal';writing-mode:lr-tb;opacity:0.5;fill:#000000;stroke:#000000;stroke-width:0.1;stroke-linecap:round"
         x="198.34102"
         y="234.60074"
         id="text6188"><tspan
           sodipodi:role="line"
           id="tspan6186"
           style="stroke-width:0.1"
           x="198.34102"
           y="234.60074">rechts</tspan></text>
    </g>
    <rect
       style="opacity:1;fill:none;stroke:#000000;stroke-width:0.2;stroke-linecap:round;stroke-miterlimit:4;stroke-dasharray:none;stroke-opacity:1"
       id="rect25715"
       width="19.828966"
       height="3.8095057"
       x="71.081474"
       y="175.75969" />
  </g>
</svg>
